{
.appVersion = "998";
copyright = "Copyright 2017 Google Inc. All Rights Reserved.";
customParameters = (
{
name = glyphOrder;
value = (
.notdef,
NULL,
CR,
space,
uni00A0,
uni200B,
u14400,
u14401,
u14402,
u14403,
u14404,
u14405,
u14406,
u14407,
u14408,
u14409,
u1440A,
u1440B,
u1440C,
u1440D,
u1440E,
u1440F,
u14410,
u14411,
u14412,
u14413,
u14414,
u14415,
u14416,
u14417,
u14418,
u14419,
u1441A,
u1441B,
u1441C,
u1441D,
u1441E,
u1441F,
u14420,
u14421,
u14422,
u14423,
u14424,
u14425,
u14426,
u14427,
u14428,
u14429,
u1442A,
u1442B,
u1442C,
u1442D,
u1442E,
u1442F,
u14430,
u14431,
u14432,
u14433,
u14434,
u14435,
u14436,
u14437,
u14438,
u14439,
u1443A,
u1443B,
u1443C,
u1443D,
u1443E,
u1443F,
u14440,
u14441,
u14442,
u14443,
u14444,
u14445,
u14446,
u14447,
u14448,
u14449,
u1444A,
u1444B,
u1444C,
u1444D,
u1444E,
u1444F,
u14450,
u14451,
u14452,
u14453,
u14454,
u14455,
u14456,
u14457,
u14458,
u14459,
u1445A,
u1445B,
u1445C,
u1445D,
u1445E,
u1445F,
u14460,
u14461,
u14462,
u14463,
u14464,
u14465,
u14466,
u14467,
u14468,
u14469,
u1446A,
u1446B,
u1446C,
u1446D,
u1446E,
u1446F,
u14470,
u14471,
u14472,
u14473,
u14474,
u14475,
u14476,
u14477,
u14478,
u14479,
u1447A,
u1447B,
u1447C,
u1447D,
u1447E,
u1447F,
u14480,
u14481,
u14482,
u14483,
u14484,
u14485,
u14486,
u14487,
u14488,
u14489,
u1448A,
u1448B,
u1448C,
u1448D,
u1448E,
u1448F,
u14490,
u14491,
u14492,
u14493,
u14494,
u14495,
u14496,
u14497,
u14498,
u14499,
u1449A,
u1449B,
u1449C,
u1449D,
u1449E,
u1449F,
u144A0,
u144A1,
u144A2,
u144A3,
u144A4,
u144A5,
u144A6,
u144A7,
u144A8,
u144A9,
u144AA,
u144AB,
u144AC,
u144AD,
u144AE,
u144AF,
u144B0,
u144B1,
u144B2,
u144B3,
u144B4,
u144B5,
u144B6,
u144B7,
u144B8,
u144B9,
u144BA,
u144BB,
u144BC,
u144BD,
u144BE,
u144BF,
u144C0,
u144C1,
u144C2,
u144C3,
u144C4,
u144C5,
u144C6,
u144C7,
u144C8,
u144C9,
u144CA,
u144CB,
u144CC,
u144CD,
u144CE,
u144CF,
u144D0,
u144D1,
u144D2,
u144D3,
u144D4,
u144D5,
u144D6,
u144D7,
u144D8,
u144D9,
u144DA,
u144DB,
u144DC,
u144DD,
u144DE,
u144DF,
u144E0,
u144E1,
u144E2,

glyphs = (
{
glyphname = .notdef;
lastChange = "2017-06-15 15:44:51 +0000";
layers = (
{
layerId = UUID0;
paths = (
{
closed = 1;
nodes = (
"505 0 LINE",
"505 714 LINE",
"94 714 LINE",
"94 0 LINE"
);
},
{
closed = 1;
nodes = (
"145 663 LINE",
"454 663 LINE",
"454 51 LINE",
"145 51 LINE"
);
}
);
width = 600;
}
);
},
{
glyphname = u14400;
lastChange = "2017-06-15 15:44:51 +0000";
layers = (
{
layerId = UUID0;
paths = (
{
closed = 1;
nodes = (
"374 -45 OFFCURVE",
"496 31 OFFCURVE",
"544 79 CURVE SMOOTH",
"569 104 OFFCURVE",
"599 158 OFFCURVE",
"617 186 CURVE SMOOTH",
"637 218 OFFCURVE",
"657 260 OFFCURVE",
"657 299 CURVE SMOOTH",
"657 313 OFFCURVE",
"654 326 OFFCURVE",
"648 338 CURVE",
"654 337 OFFCURVE",
"661 337 OFFCURVE",
"667 337 CURVE SMOOTH",
"739 337 OFFCURVE",
"790 367 OFFCURVE",
"790 432 CURVE SMOOTH",
"790 497 OFFCURVE",
"751 483 OFFCURVE",
"737 552 CURVE",
"751 575 OFFCURVE",
"762 609 OFFCURVE",
"762 639 CURVE SMOOTH",
"762 710 OFFCURVE",
"700 800 OFFCURVE",
"562 800 CURVE SMOOTH",
"521 800 OFFCURVE",
"434 761 OFFCURVE",
"408 707 CURVE",
"412 703 LINE",
"382 663 OFFCURVE",
"306 589 OFFCURVE",
"306 549 CURVE SMOOTH",
"306 530 OFFCURVE",
"321 517 OFFCURVE",
"362 517 CURVE",
"377 455 OFFCURVE",
"358 366 OFFCURVE",
"445 356 CURVE",
"442 354 LINE SMOOTH",
"405 329 OFFCURVE",
"351 220 OFFCURVE",
"348 187 CURVE",
"336 175 OFFCURVE",
"322 166 OFFCURVE",
"307 166 CURVE SMOOTH",
"267 166 OFFCURVE",
"222 309 OFFCURVE",
"202 337 CURVE",
"211 348 OFFCURVE",
"218 360 OFFCURVE",
"227 371 CURVE",
"244 390 OFFCURVE",
"290 397 OFFCURVE",
"290 428 CURVE SMOOTH",
"290 454 OFFCURVE",
"260 460 OFFCURVE",
"235 464 CURVE",
"272 495 OFFCURVE",
"289 525 OFFCURVE",
"289 546 CURVE SMOOTH",
"289 565 OFFCURVE",
"275 576 OFFCURVE",
"249 576 CURVE SMOOTH",
"214 576 OFFCURVE",
"140 548 OFFCURVE",
"88 492 CURVE SMOOTH",
"55 456 OFFCURVE",
"50 399 OFFCURVE",
"50 346 CURVE SMOOTH",
"50 245 OFFCURVE",
"100 155 OFFCURVE",
"164 76 CURVE SMOOTH",
"194 39 OFFCURVE",
"245 -45 OFFCURVE",
"317 -45 CURVE SMOOTH"
);
},
{
closed = 1;
nodes = (
"227 -14 OFFCURVE",
"170 120 OFFCURVE",
"133 184 CURVE SMOOTH",
"102 237 OFFCURVE",
"80 284 OFFCURVE",
"80 342 CURVE SMOOTH",
"80 389 OFFCURVE",
"84 438 OFFCURVE",
"112 474 CURVE SMOOTH",
"145 517 OFFCURVE",
"214 548 OFFCURVE",
"246 548 CURVE SMOOTH",
"255 548 OFFCURVE",
"261 545 OFFCURVE",
"261 539 CURVE SMOOTH",
"261 528 OFFCURVE",
"244 506 OFFCURVE",
"197 472 CURVE",
"192 451 LINE",
"205 436 OFFCURVE",
"237 428 OFFCURVE",
"256 428 CURVE",
"233 414 OFFCURVE",
"174 375 OFFCURVE",
"174 333 CURVE SMOOTH",
"174 296 OFFCURVE",
"258 135 OFFCURVE",
"305 135 CURVE SMOOTH",
"344 135 OFFCURVE",
"385 183 OFFCURVE",
"407 205 CURVE",
"423 205 OFFCURVE",
"512 114 OFFCURVE",
"512 90 CURVE",
"476 60 OFFCURVE",
"436 36 OFFCURVE",
"421 27 CURVE SMOOTH",
"396 12 OFFCURVE",
"358 -14 OFFCURVE",
"328 -14 CURVE SMOOTH"
);
},
{
closed = 1;
nodes = (
"523 145 OFFCURVE",
"429 237 OFFCURVE",
"403 237 CURVE SMOOTH",
"401 237 OFFCURVE",
"390 229 OFFCURVE",
"388 228 CURVE",
"403 259 OFFCURVE",
"436 310 OFFCURVE",
"457 327 CURVE SMOOTH",
"477 343 OFFCURVE",
"530 363 OFFCURVE",
"564 363 CURVE SMOOTH",
"568 363 OFFCURVE",
"573 363 OFFCURVE",
"578 362 CURVE",
"587 356 OFFCURVE",
"597 352 OFFCURVE",
"606 348 CURVE",
"617 339 OFFCURVE",
"625 324 OFFCURVE",
"625 303 CURVE SMOOTH",
"625 249 OFFCURVE",
"573 164 OFFCURVE",
"537 117 CURVE"
);
},
{
closed = 1;
nodes = (
"411 386 OFFCURVE",
"400 412 OFFCURVE",
"395 447 CURVE",
"445 455 LINE",
"446 482 LINE",
"393 474 LINE",
"389 525 LINE",
"378 547 OFFCURVE",
"352 541 OFFCURVE",
"335 549 CURVE",
"342 582 OFFCURVE",
"401 638 OFFCURVE",
"433 680 CURVE",
"539 562 LINE",
"548 564 OFFCURVE",
"562 569 OFFCURVE",
"574 569 CURVE SMOOTH",
"588 569 OFFCURVE",
"599 563 OFFCURVE",
"599 541 CURVE SMOOTH",
"599 514 OFFCURVE",
"526 497 OFFCURVE",
"526 446 CURVE SMOOTH",
"526 432 OFFCURVE",
"529 420 OFFCURVE",
"533 409 CURVE",
"527 413 LINE",
"519 401 OFFCURVE",
"486 386 OFFCURVE",
"465 386 CURVE SMOOTH"
);
},
{
closed = 1;
nodes = (
"446 574 OFFCURVE",
"456 581 OFFCURVE",
"456 592 CURVE SMOOTH",
"456 605 OFFCURVE",
"439 620 OFFCURVE",
"418 620 CURVE SMOOTH",
"406 620 OFFCURVE",
"397 615 OFFCURVE",
"395 607 CURVE",
"394 605 OFFCURVE",
"394 604 OFFCURVE",
"394 602 CURVE SMOOTH",
"394 589 OFFCURVE",
"411 574 OFFCURVE",
"433 574 CURVE SMOOTH"
);
},
{
closed = 1;
nodes = (
"620 367 OFFCURVE",
"556 393 OFFCURVE",
"556 441 CURVE SMOOTH",
"556 488 OFFCURVE",
"630 501 OFFCURVE",
"630 539 CURVE SMOOTH",
"630 576 OFFCURVE",
"611 595 OFFCURVE",
"580 595 CURVE SMOOTH",
"572 595 OFFCURVE",
"562 594 OFFCURVE",
"552 591 CURVE",
"537 622 OFFCURVE",
"464 683 OFFCURVE",
"449 706 CURVE",
"448 706 LINE",
"446 711 LINE",
"479 747 OFFCURVE",
"527 770 OFFCURVE",
"570 770 CURVE SMOOTH",
"676 770 OFFCURVE",
"730 694 OFFCURVE",
"730 638 CURVE SMOOTH",
"730 615 OFFCURVE",
"720 566 OFFCURVE",
"706 551 CURVE",
"709 494 OFFCURVE",
"756 480 OFFCURVE",
"756 438 CURVE SMOOTH",
"756 408 OFFCURVE",
"748 367 OFFCURVE",
"668 367 CURVE SMOOTH"
);
}
);
width = 840;
}
);
unicode = 14400;
},
{
glyphname = u14401;
lastChange = "2017-06-15 15:44:51 +0000";
layers = (
{
layerId = UUID0;
paths = (
{
closed = 1;
nodes = (
"348 0 LINE",
"357 14 LINE",
"363 120 LINE",
"491 120 LINE",
"487 92 OFFCURVE",
"474 80 OFFCURVE",
"445 71 CURVE SMOOTH",
"419 63 LINE SMOOTH",
"394 55 OFFCURVE",
"383 40 OFFCURVE",
"383 27 CURVE SMOOTH",
"383 13 OFFCURVE",
"396 0 OFFCURVE",
"421 0 CURVE SMOOTH",
"548 0 LINE",
"557 14 LINE",
"563 120 LINE",
"610 120 LINE SMOOTH",
"635 120 OFFCURVE",
"642 129 OFFCURVE",
"642 141 CURVE SMOOTH",
"642 151 OFFCURVE",
"637 163 OFFCURVE",
"634 174 CURVE SMOOTH",
"506 599 LINE",
"612 575 LINE SMOOTH",
"627 572 OFFCURVE",
"639 568 OFFCURVE",
"649 568 CURVE SMOOTH",
"669 568 OFFCURVE",
"690 582 OFFCURVE",
"690 614 CURVE SMOOTH",
"690 652 OFFCURVE",
"681 677 OFFCURVE",
"576 808 CURVE",
"603 819 OFFCURVE",
"626 837 OFFCURVE",
"626 864 CURVE SMOOTH",
"626 913 OFFCURVE",
"568 914 OFFCURVE",
"555 945 CURVE",
"563 961 OFFCURVE",
"572 986 OFFCURVE",
"572 1006 CURVE SMOOTH",
"572 1057 OFFCURVE",
"528 1120 OFFCURVE",
"442 1120 CURVE SMOOTH",
"403 1120 OFFCURVE",
"341 1093 OFFCURVE",
"322 1055 CURVE",
"324 1052 LINE",
"302 1027 OFFCURVE",
"253 969 OFFCURVE",
"253 944 CURVE SMOOTH",
"253 929 OFFCURVE",
"264 919 OFFCURVE",
"290 919 CURVE",
"305 874 OFFCURVE",
"281 808 OFFCURVE",
"362 808 CURVE SMOOTH",
"366 808 LINE",
"344 790 OFFCURVE",
"297 802 OFFCURVE",
"271 782 CURVE SMOOTH",
"249 765 OFFCURVE",
"208 709 OFFCURVE",
"188 696 CURVE",
"177 720 OFFCURVE",
"160 751 OFFCURVE",
"159 779 CURVE",
"181 795 OFFCURVE",
"243 824 OFFCURVE",
"243 843 CURVE SMOOTH",
"243 851 OFFCURVE",
"229 859 OFFCURVE",
"209 862 CURVE",
"219 875 OFFCURVE",
"227 891 OFFCURVE",
"227 906 CURVE SMOOTH",
"227 918 OFFCURVE",
"219 942 OFFCURVE",
"196 942 CURVE SMOOTH",
"168 942 OFFCURVE",
"118 913 OFFCURVE",
"51 826 CURVE",
"51 737 OFFCURVE",
"62 649 OFFCURVE",
"136 565 CURVE",
"141 564 OFFCURVE",
"146 563 OFFCURVE",
"150 561 CURVE",
"194 577 OFFCURVE",
"254 606 OFFCURVE",
"291 643 CURVE",
"316 540 LINE",
"197 166 LINE",
"194 158 OFFCURVE",
"192 149 OFFCURVE",
"192 142 CURVE SMOOTH",
"192 130 OFFCURVE",
"199 120 OFFCURVE",
"223 120 CURVE SMOOTH",
"291 120 LINE",
"287 93 OFFCURVE",
"273 82 OFFCURVE",
"245 71 CURVE SMOOTH",
"205 56 LINE SMOOTH",
"190 50 OFFCURVE",
"183 37 OFFCURVE",
"183 25 CURVE SMOOTH",
"183 12 OFFCURVE",
"191 0 OFFCURVE",
"208 0 CURVE SMOOTH"
);
},
{
closed = 1;
nodes = (
"213 38 LINE",
"256 52 LINE SMOOTH",
"288 62 OFFCURVE",
"311 74 OFFCURVE",
"314 120 CURVE",
"338 120 LINE",
"333 26 LINE",
"213 26 LINE"
);
},
{
closed = 1;
nodes = (
"413 38 LINE",
"461 54 LINE SMOOTH",
"500 67 OFFCURVE",
"511 83 OFFCURVE",
"514 120 CURVE",
"538 120 LINE",
"533 26 LINE",
"413 26 LINE"
);
},
{
closed = 1;
nodes = (
"342 529 LINE",
"501 529 LINE",
"614 145 LINE",
"219 145 LINE"
);
},
{
closed = 1;
nodes = (
"308 682 LINE",
"293 685 LINE",
"271 644 OFFCURVE",
"197 605 OFFCURVE",
"148 588 CURVE",
"89 675 OFFCURVE",
"82 738 OFFCURVE",
"75 824 CURVE",
"99 854 OFFCURVE",
"154 915 OFFCURVE",
"191 915 CURVE SMOOTH",
"199 915 OFFCURVE",
"202 911 OFFCURVE",
"202 900 CURVE SMOOTH",
"202 885 OFFCURVE",
"179 863 OFFCURVE",
"168 853 CURVE",
"172 844 LINE",
"184 843 OFFCURVE",
"204 840 OFFCURVE",
"215 840 CURVE",
"206 831 OFFCURVE",
"133 807 OFFCURVE",
"133 781 CURVE SMOOTH",
"133 744 OFFCURVE",
"169 662 OFFCURVE",
"184 662 CURVE",
"236 701 OFFCURVE",
"267 751 OFFCURVE",
"285 762 CURVE SMOOTH",
"327 788 OFFCURVE",
"380 766 OFFCURVE",
"398 817 CURVE",
"407 820 OFFCURVE",
"415 825 OFFCURVE",
"420 830 CURVE",
"442 806 OFFCURVE",
"482 796 OFFCURVE",
"514 796 CURVE SMOOTH",
"524 796 OFFCURVE",
"536 797 OFFCURVE",
"549 800 CURVE",
"644 690 OFFCURVE",
"663 664 OFFCURVE",
"663 618 CURVE SMOOTH",
"663 601 OFFCURVE",
"655 596 OFFCURVE",
"640 596 CURVE SMOOTH",
"632 596 OFFCURVE",
"622 598 OFFCURVE",
"612 600 CURVE SMOOTH",
"473 632 LINE",
"440 632 OFFCURVE",
"422 621 OFFCURVE",
"389 621 CURVE SMOOTH",
"363 621 OFFCURVE",
"360 643 OFFCURVE",
"360 657 CURVE SMOOTH",
"360 682 OFFCURVE",
"364 692 OFFCURVE",
"396 692 CURVE SMOOTH",
"445 692 OFFCURVE",
"506 651 OFFCURVE",
"553 645 CURVE",
"577 668 LINE",
"511 763 LINE",
"487 758 LINE",
"542 671 LINE",
"496 678 OFFCURVE",
"445 717 OFFCURVE",
"397 717 CURVE SMOOTH",
"356 717 OFFCURVE",
"335 691 OFFCURVE",
"335 653 CURVE SMOOTH",
"335 634 OFFCURVE",
"347 593 OFFCURVE",
"378 593 CURVE SMOOTH",
"409 593 OFFCURVE",
"447 606 OFFCURVE",
"478 606 CURVE",
"483 605 LINE",
"495 554 LINE",
"340 554 LINE"
);
},
{
closed = 1;
nodes = (
"328 834 OFFCURVE",
"320 850 OFFCURVE",
"318 871 CURVE",
"352 879 LINE",
"353 899 LINE",
"319 893 LINE",
"319 957 OFFCURVE",
"295 940 OFFCURVE",
"275 945 CURVE",
"280 965 OFFCURVE",
"321 1010 OFFCURVE",
"341 1034 CURVE",
"415 950 LINE",
"421 950 OFFCURVE",
"431 956 OFFCURVE",
"439 956 CURVE SMOOTH",
"448 956 OFFCURVE",
"455 951 OFFCURVE",
"455 938 CURVE SMOOTH",
"455 920 OFFCURVE",
"404 910 OFFCURVE",
"404 873 CURVE SMOOTH",
"404 865 OFFCURVE",
"405 858 OFFCURVE",
"407 852 CURVE",
"397 844 OFFCURVE",
"378 834 OFFCURVE",
"364 834 CURVE SMOOTH"
);
},
{
closed = 1;
nodes = (
"352 960 OFFCURVE",
"359 965 OFFCURVE",
"359 974 CURVE SMOOTH",
"359 984 OFFCURVE",
"347 996 OFFCURVE",
"331 996 CURVE SMOOTH",
"321 996 OFFCURVE",
"313 989 OFFCURVE",
"313 981 CURVE SMOOTH",
"313 972 OFFCURVE",
"326 960 OFFCURVE",
"341 960 CURVE SMOOTH"
);
},
{
closed = 1;
nodes = (
"499 820 OFFCURVE",
"429 830 OFFCURVE",
"429 869 CURVE SMOOTH",
"429 900 OFFCURVE",
"480 908 OFFCURVE",
"480 937 CURVE SMOOTH",
"480 964 OFFCURVE",
"466 978 OFFCURVE",
"444 978 CURVE SMOOTH",
"439 978 OFFCURVE",
"431 977 OFFCURVE",
"426 976 CURVE",
"415 993 OFFCURVE",
"355 1046 OFFCURVE",
"353 1057 CURVE",
"375 1077 OFFCURVE",
"407 1094 OFFCURVE",
"436 1094 CURVE SMOOTH",
"509 1094 OFFCURVE",
"545 1044 OFFCURVE",
"545 1006 CURVE SMOOTH",
"545 990 OFFCURVE",
"532 960 OFFCURVE",
"527 945 CURVE",
"538 899 OFFCURVE",
"598 894 OFFCURVE",
"598 867 CURVE SMOOTH",
"598 848 OFFCURVE",
"568 820 OFFCURVE",
"513 820 CURVE SMOOTH"
);
}
);
width = 740;
}
);
unicode = 14401;
},
{
glyphname = u14402;
lastChange = "2017-06-15 15:44:51 +0000";
layers = (
{
layerId = UUID0;
paths = (
{
closed = 1;
nodes = (
"239 0 LINE SMOOTH",
"302 0 OFFCURVE",
"297 47 OFFCURVE",
"313 82 CURVE SMOOTH",
"324 106 OFFCURVE",
"370 142 OFFCURVE",
"379 166 CURVE SMOOTH",
"397 215 LINE SMOOTH",
"404 233 OFFCURVE",
"407 255 OFFCURVE",
"411 255 CURVE SMOOTH",
"414 255 OFFCURVE",
"449 182 OFFCURVE",
"458 166 CURVE SMOOTH",
"496 94 LINE",
"454 76 OFFCURVE",
"421 77 OFFCURVE",
"421 39 CURVE SMOOTH",
"421 9 OFFCURVE",
"448 0 OFFCURVE",
"504 0 CURVE SMOOTH",
"599 0 LINE SMOOTH",
"646 0 OFFCURVE",
"659 23 OFFCURVE",
"659 51 CURVE SMOOTH",
"659 86 OFFCURVE",
"628 120 OFFCURVE",
"608 168 CURVE SMOOTH",
"582 230 OFFCURVE",
"568 329 OFFCURVE",
"568 397 CURVE SMOOTH",
"568 453 OFFCURVE",
"575 497 OFFCURVE",
"575 548 CURVE SMOOTH",
"575 557 OFFCURVE",
"572 583 OFFCURVE",
"569 599 CURVE",
"580 602 OFFCURVE",
"591 604 OFFCURVE",
"603 604 CURVE SMOOTH",
"690 604 OFFCURVE",
"717 632 OFFCURVE",
"717 669 CURVE SMOOTH",
"717 705 OFFCURVE",
"687 733 OFFCURVE",
"678 775 CURVE SMOOTH",
"671 807 OFFCURVE",
"670 838 OFFCURVE",
"650 866 CURVE SMOOTH",
"623 903 OFFCURVE",
"553 863 OFFCURVE",
"553 907 CURVE SMOOTH",
"553 949 OFFCURVE",
"570 944 OFFCURVE",
"570 1027 CURVE SMOOTH",
"570 1068 OFFCURVE",
"545 1120 OFFCURVE",
"462 1120 CURVE SMOOTH",
"422 1120 OFFCURVE",
"393 1101 OFFCURVE",
"373 1059 CURVE SMOOTH",
"363 1038 OFFCURVE",
"326 1010 OFFCURVE",
"326 989 CURVE SMOOTH",
"326 975 OFFCURVE",
"358 972 OFFCURVE",
"362 962 CURVE SMOOTH",
"365 954 OFFCURVE",
"377 931 OFFCURVE",
"378 926 CURVE SMOOTH",
"384 898 OFFCURVE",
"403 910 OFFCURVE",
"403 891 CURVE SMOOTH",
"403 867 OFFCURVE",
"398 863 OFFCURVE",
"392 863 CURVE SMOOTH",
"389 863 OFFCURVE",
"352 867 OFFCURVE",
"328 867 CURVE SMOOTH",
"252 867 OFFCURVE",
"238 748 OFFCURVE",
"204 748 CURVE SMOOTH",
"185 748 OFFCURVE",
"179 787 OFFCURVE",
"179 801 CURVE SMOOTH",
"179 828 OFFCURVE",
"201 861 OFFCURVE",
"201 901 CURVE SMOOTH",
"201 920 OFFCURVE",
"194 940 OFFCURVE",
"184 957 CURVE",
"184 1052 LINE",
"108 1052 LINE",
"108 970 LINE",
"104 963 OFFCURVE",
"100 954 OFFCURVE",
"98 943 CURVE SMOOTH",
"94 921 OFFCURVE",
"99 928 OFFCURVE",
"91 906 CURVE",
"79 892 OFFCURVE",
"50 892 OFFCURVE",
"50 867 CURVE SMOOTH",
"50 835 OFFCURVE",
"106 814 OFFCURVE",
"106 796 CURVE SMOOTH",
"106 766 OFFCURVE",
"97 741 OFFCURVE",
"97 710 CURVE SMOOTH",
"97 694 OFFCURVE",
"101 681 OFFCURVE",
"108 669 CURVE",
"108 84 LINE",
"81 80 OFFCURVE",
"58 65 OFFCURVE",
"58 45 CURVE SMOOTH",
"58 5 OFFCURVE",
"85 0 OFFCURVE",
"117 0 CURVE SMOOTH"
);
},
{
closed = 1;
nodes = (
"150 83 OFFCURVE",
"142 85 OFFCURVE",
"134 86 CURVE",
"134 644 LINE",
"141 639 OFFCURVE",
"150 636 OFFCURVE",
"158 634 CURVE",
"158 81 LINE"
);
},
{
closed = 1;
nodes = (
"184 630 LINE",
"212 630 OFFCURVE",
"244 642 OFFCURVE",
"272 658 CURVE",
"273 585 OFFCURVE",
"287 493 OFFCURVE",
"287 414 CURVE SMOOTH",
"287 332 OFFCURVE",
"258 276 OFFCURVE",
"233 208 CURVE SMOOTH",
"224 183 OFFCURVE",
"211 99 OFFCURVE",
"184 82 CURVE"
);
},
{
closed = 1;
nodes = (
"575 153 LINE",
"563 168 OFFCURVE",
"538 196 OFFCURVE",
"538 217 CURVE",
"537 282 OFFCURVE",
"488 332 OFFCURVE",
"488 375 CURVE SMOOTH",
"488 405 OFFCURVE",
"495 423 OFFCURVE",
"495 452 CURVE SMOOTH",
"495 510 OFFCURVE",
"467 523 OFFCURVE",
"462 564 CURVE",
"438 552 LINE",
"442 516 OFFCURVE",
"469 488 OFFCURVE",
"469 448 CURVE SMOOTH",
"469 420 OFFCURVE",
"462 403 OFFCURVE",
"462 375 CURVE SMOOTH",
"462 328 OFFCURVE",
"516 263 OFFCURVE",
"516 204 CURVE SMOOTH",
"516 180 OFFCURVE",
"542 154 OFFCURVE",
"555 136 CURVE"
);
},
{
closed = 1;
nodes = (
"478 282 LINE",
"466 297 OFFCURVE",
"451 364 OFFCURVE",
"441 382 CURVE SMOOTH",
"422 416 OFFCURVE",
"385 436 OFFCURVE",
"385 479 CURVE SMOOTH",
"385 509 OFFCURVE",
"392 527 OFFCURVE",
"392 556 CURVE SMOOTH",
"392 614 OFFCURVE",
"364 627 OFFCURVE",
"359 668 CURVE",
"335 656 LINE",
"339 620 OFFCURVE",
"366 592 OFFCURVE",
"366 552 CURVE SMOOTH",
"366 524 OFFCURVE",
"359 507 OFFCURVE",
"359 479 CURVE SMOOTH",
"359 432 OFFCURVE",
"398 409 OFFCURVE",
"418 371 CURVE SMOOTH",
"429 350 OFFCURVE",
"445 283 OFFCURVE",
"458 265 CURVE"
);
},
{
closed = 1;
nodes = (
"99 26 OFFCURVE",
"83 26 OFFCURVE",
"83 42 CURVE SMOOTH",
"83 49 OFFCURVE",
"102 61 OFFCURVE",
"121 61 CURVE SMOOTH",
"138 61 OFFCURVE",
"157 52 OFFCURVE",
"180 52 CURVE SMOOTH",
"236 52 OFFCURVE",
"239 155 OFFCURVE",
"256 197 CURVE SMOOTH",
"286 271 OFFCURVE",
"312 332 OFFCURVE",
"312 414 CURVE SMOOTH",
"312 496 OFFCURVE",
"299 609 OFFCURVE",
"298 675 CURVE",
"318 689 OFFCURVE",
"336 704 OFFCURVE",
"348 717 CURVE",
"333 735 LINE",
"297 703 OFFCURVE",
"230 656 OFFCURVE",
"186 656 CURVE SMOOTH",
"171 656 OFFCURVE",
"124 680 OFFCURVE",
"124 698 CURVE SMOOTH",
"124 724 OFFCURVE",
"132 769 OFFCURVE",
"132 796 CURVE SMOOTH",
"132 832 OFFCURVE",
"78 838 OFFCURVE",
"78 868 CURVE",
"89 877 OFFCURVE",
"106 879 OFFCURVE",
"114 892 CURVE SMOOTH",
"128 916 OFFCURVE",
"108 962 OFFCURVE",
"145 962 CURVE",
"168 937 OFFCURVE",
"176 918 OFFCURVE",
"176 895 CURVE SMOOTH",
"176 857 OFFCURVE",
"153 831 OFFCURVE",
"153 799 CURVE SMOOTH",
"153 778 OFFCURVE",
"171 722 OFFCURVE",
"204 722 CURVE SMOOTH",
"259 722 OFFCURVE",
"268 841 OFFCURVE",
"328 841 CURVE SMOOTH",
"340 841 OFFCURVE",
"370 839 OFFCURVE",
"381 839 CURVE SMOOTH",
"416 839 OFFCURVE",
"429 853 OFFCURVE",
"429 892 CURVE SMOOTH",
"429 909 OFFCURVE",
"415 914 OFFCURVE",
"403 926 CURVE",
"393 993 OFFCURVE",
"383 969 OFFCURVE",
"353 994 CURVE",
"365 1007 OFFCURVE",
"389 1042 OFFCURVE",
"398 1057 CURVE SMOOTH",
"413 1083 OFFCURVE",
"441 1094 OFFCURVE",
"465 1094 CURVE SMOOTH",
"518 1094 OFFCURVE",
"546 1058 OFFCURVE",
"546 1025 CURVE SMOOTH",
"546 945 OFFCURVE",
"525 946 OFFCURVE",
"525 909 CURVE SMOOTH",
"525 835 OFFCURVE",
"613 872 OFFCURVE",
"630 851 CURVE SMOOTH",
"652 824 OFFCURVE",
"647 795 OFFCURVE",
"654 766 CURVE SMOOTH",
"665 719 OFFCURVE",
"693 714 OFFCURVE",
"693 675 CURVE SMOOTH",
"693 636 OFFCURVE",
"646 627 OFFCURVE",
"606 627 CURVE SMOOTH",
"577 627 OFFCURVE",
"553 615 OFFCURVE",
"529 615 CURVE SMOOTH",
"514 615 OFFCURVE",
"481 595 OFFCURVE",
"463 595 CURVE SMOOTH",
"445 595 OFFCURVE",
"452 643 OFFCURVE",
"441 663 CURVE SMOOTH",
"434 676 OFFCURVE",
"399 700 OFFCURVE",
"399 708 CURVE SMOOTH",
"399 715 OFFCURVE",
"402 719 OFFCURVE",
"406 719 CURVE SMOOTH",
"449 719 OFFCURVE",
"464 658 OFFCURVE",
"501 658 CURVE SMOOTH",
"528 658 OFFCURVE",
"613 677 OFFCURVE",
"613 704 CURVE SMOOTH",
"613 728 OFFCURVE",
"584 770 OFFCURVE",
"566 791 CURVE",
"535 785 LINE",
"535 763 OFFCURVE",
"536 714 OFFCURVE",
"540 688 CURVE",
"529 686 OFFCURVE",
"515 683 OFFCURVE",
"498 682 CURVE",
"472 705 OFFCURVE",
"444 742 OFFCURVE",
"410 742 CURVE SMOOTH",
"397 742 OFFCURVE",
"372 734 OFFCURVE",
"372 712 CURVE SMOOTH",
"372 686 OFFCURVE",
"408 673 OFFCURVE",
"418 651 CURVE SMOOTH",
"428 628 OFFCURVE",
"418 570 OFFCURVE",
"458 570 CURVE SMOOTH",
"476 570 OFFCURVE",
"509 589 OFFCURVE",
"535 592 CURVE SMOOTH",
"544 593 LINE",
"547 578 OFFCURVE",
"550 552 OFFCURVE",
"550 544 CURVE SMOOTH",
"550 499 OFFCURVE",
"540 461 OFFCURVE",
"540 393 CURVE SMOOTH",
"540 305 OFFCURVE",
"555 225 OFFCURVE",
"592 145 CURVE SMOOTH",
"604 119 OFFCURVE",
"634 79 OFFCURVE",
"634 51 CURVE SMOOTH",
"634 38 OFFCURVE",
"629 26 OFFCURVE",
"585 26 CURVE SMOOTH",
"511 26 LINE SMOOTH",
"458 26 OFFCURVE",
"447 28 OFFCURVE",
"447 42 CURVE SMOOTH",
"447 56 OFFCURVE",
"498 62 OFFCURVE",
"518 69 CURVE",
"529 85 LINE",
"440 259 LINE SMOOTH",
"429 281 OFFCURVE",
"422 287 OFFCURVE",
"411 287 CURVE SMOOTH",
"403 287 OFFCURVE",
"393 282 OFFCURVE",
"384 257 CURVE SMOOTH",
"359 191 LINE SMOOTH",
"339 137 OFFCURVE",
"310 139 OFFCURVE",
"290 92 CURVE SMOOTH",
"280 68 OFFCURVE",
"275 26 OFFCURVE",
"242 26 CURVE SMOOTH",
"117 26 LINE SMOOTH"
);
},
{
closed = 1;
nodes = (
"152 987 OFFCURVE",
"145 989 OFFCURVE",
"138 989 CURVE SMOOTH",
"134 989 LINE",
"134 1026 LINE",
"158 1026 LINE",
"158 983 LINE"
);
},
{
closed = 1;
nodes = (
"560 713 OFFCURVE",
"559 739 OFFCURVE",
"559 761 CURVE",
"571 746 OFFCURVE",
"581 728 OFFCURVE",
"588 708 CURVE",
"582 705 OFFCURVE",
"574 701 OFFCURVE",
"562 696 CURVE"
);
}
);
width = 767;
}
);
unicode = 14402;
},
{
glyphname = u14403;
lastChange = "2017-06-15 15:44:51 +0000";
layers = (
{
layerId = UUID0;
paths = (
{
closed = 1;
nodes = (
"393 0 LINE",
"402 14 LINE",
"408 111 LINE",
"421 111 OFFCURVE",
"442 110 OFFCURVE",
"455 107 CURVE",
"457 107 LINE SMOOTH",
"458 107 OFFCURVE",
"459 107 OFFCURVE",
"461 106 CURVE",
"463 108 LINE",
"477 109 OFFCURVE",
"499 111 OFFCURVE",
"517 111 CURVE SMOOTH",
"534 111 LINE",
"529 89 OFFCURVE",
"516 79 OFFCURVE",
"490 71 CURVE SMOOTH",
"464 63 LINE SMOOTH",
"439 55 OFFCURVE",
"428 40 OFFCURVE",
"428 27 CURVE SMOOTH",
"428 13 OFFCURVE",
"441 0 OFFCURVE",
"466 0 CURVE SMOOTH",
"593 0 LINE",
"602 14 LINE",
"608 110 LINE",
"616 111 OFFCURVE",
"624 111 OFFCURVE",
"631 111 CURVE SMOOTH",
"644 111 OFFCURVE",
"678 110 OFFCURVE",
"690 106 CURVE",
"696 111 OFFCURVE",
"701 116 OFFCURVE",
"707 120 CURVE",
"707 176 OFFCURVE",
"686 226 OFFCURVE",
"645 231 CURVE",
"642 278 OFFCURVE",
"624 312 OFFCURVE",
"590 320 CURVE",
"589 354 OFFCURVE",
"580 382 OFFCURVE",
"563 398 CURVE",
"561 435 OFFCURVE",
"559 516 OFFCURVE",
"559 541 CURVE SMOOTH",
"559 624 OFFCURVE",
"737 612 OFFCURVE",
"737 694 CURVE SMOOTH",
"737 735 OFFCURVE",
"693 829 OFFCURVE",
"693 865 CURVE SMOOTH",
"693 880 OFFCURVE",
"723 899 OFFCURVE",
"723 923 CURVE SMOOTH",
"723 938 OFFCURVE",
"711 962 OFFCURVE",
"675 962 CURVE SMOOTH",
"639 962 OFFCURVE",
"600 926 OFFCURVE",
"600 886 CURVE SMOOTH",
"600 846 OFFCURVE",
"641 786 OFFCURVE",
"641 728 CURVE",
"622 709 OFFCURVE",
"576 710 OFFCURVE",
"536 693 CURVE",
"528 703 OFFCURVE",
"525 740 OFFCURVE",
"525 758 CURVE SMOOTH",
"525 791 OFFCURVE",
"550 815 OFFCURVE",
"554 851 CURVE",
"555 851 LINE",
"556 857 OFFCURVE",
"556 863 OFFCURVE",
"556 870 CURVE",
"565 932 OFFCURVE",
"584 1031 OFFCURVE",
"584 1111 CURVE SMOOTH",
"584 1130 OFFCURVE",
"582 1148 OFFCURVE",
"569 1148 CURVE SMOOTH",
"544 1148 OFFCURVE",
"506 1073 OFFCURVE",
"495 1060 CURVE SMOOTH",
"481 1044 OFFCURVE",
"467 1027 OFFCURVE",
"452 1012 CURVE",
"438 1010 OFFCURVE",
"424 1008 OFFCURVE",
"422 1024 CURVE",
"396 1019 LINE",
"400 999 OFFCURVE",
"411 991 OFFCURVE",
"426 988 CURVE",
"419 981 OFFCURVE",
"411 975 OFFCURVE",
"404 969 CURVE",
"404 971 LINE",
"392 972 OFFCURVE",
"379 976 OFFCURVE",
"378 990 CURVE",
"352 985 LINE",
"355 968 OFFCURVE",
"366 957 OFFCURVE",
"380 951 CURVE",
"368 942 OFFCURVE",
"354 933 OFFCURVE",
"343 926 CURVE",
"332 933 OFFCURVE",
"325 940 OFFCURVE",
"322 949 CURVE",
"306 933 LINE",
"306 917 OFFCURVE",
"324 904 OFFCURVE",
"351 893 CURVE",
"340 864 OFFCURVE",
"307 819 OFFCURVE",
"307 802 CURVE SMOOTH",
"307 792 OFFCURVE",
"318 792 OFFCURVE",
"320 791 CURVE",
"329 788 OFFCURVE",
"346 793 OFFCURVE",
"346 780 CURVE SMOOTH",
"346 772 OFFCURVE",
"340 756 OFFCURVE",
"340 747 CURVE SMOOTH",
"340 732 OFFCURVE",
"345 728 OFFCURVE",
"361 722 CURVE SMOOTH",
"383 714 OFFCURVE",
"413 710 OFFCURVE",
"413 683 CURVE",
"334 678 OFFCURVE",
"333 656 OFFCURVE",
"269 592 CURVE",
"238 602 OFFCURVE",
"181 654 OFFCURVE",
"136 693 CURVE SMOOTH",
"121 706 OFFCURVE",
"133 744 OFFCURVE",
"88 744 CURVE SMOOTH",
"62 744 OFFCURVE",
"50 717 OFFCURVE",
"50 690 CURVE SMOOTH",
"50 606 OFFCURVE",
"123 616 OFFCURVE",
"156 588 CURVE SMOOTH",
"182 566 OFFCURVE",
"237 485 OFFCURVE",
"266 485 CURVE SMOOTH",
"274 485 OFFCURVE",
"337 522 OFFCURVE",
"360 538 CURVE",
"368 509 OFFCURVE",
"369 431 OFFCURVE",
"369 400 CURVE",
"352 386 OFFCURVE",
"339 360 OFFCURVE",
"335 324 CURVE",
"335 320 LINE",
"305 314 OFFCURVE",
"281 283 OFFCURVE",
"275 231 CURVE",
"275 227 LINE",
"249 215 OFFCURVE",
"229 179 OFFCURVE",
"223 131 CURVE",
"225 107 LINE",
"235 108 OFFCURVE",
"265 111 OFFCURVE",
"287 111 CURVE SMOOTH",
"297 111 OFFCURVE",
"318 110 OFFCURVE",
"334 108 CURVE",
"327 89 OFFCURVE",
"314 80 OFFCURVE",
"290 71 CURVE SMOOTH",
"250 56 LINE SMOOTH",
"235 50 OFFCURVE",
"228 37 OFFCURVE",
"228 25 CURVE SMOOTH",
"228 12 OFFCURVE",
"236 0 OFFCURVE",
"253 0 CURVE SMOOTH"
);
},
{
closed = 1;
nodes = (
"258 38 LINE",
"301 52 LINE SMOOTH",
"332 62 OFFCURVE",
"351 70 OFFCURVE",
"357 109 CURVE",
"365 109 OFFCURVE",
"374 110 OFFCURVE",
"383 110 CURVE",
"378 26 LINE",
"258 26 LINE"
);
},
{
closed = 1;
nodes = (
"324 136 OFFCURVE",
"290 138 OFFCURVE",
"276 138 CURVE SMOOTH",
"270 138 OFFCURVE",
"255 138 OFFCURVE",
"249 137 CURVE",
"251 179 OFFCURVE",
"272 203 OFFCURVE",
"295 203 CURVE SMOOTH",
"316 203 OFFCURVE",
"333 174 OFFCURVE",
"336 135 CURVE"
);
},
{
closed = 1;
nodes = (
"348 194 OFFCURVE",
"343 204 OFFCURVE",
"336 211 CURVE",
"339 211 LINE SMOOTH",
"345 211 OFFCURVE",
"357 211 OFFCURVE",
"368 210 CURVE",
"362 203 OFFCURVE",
"357 194 OFFCURVE",
"352 184 CURVE"
);
},
{
closed = 1;
nodes = (
"439 136 OFFCURVE",
"405 138 OFFCURVE",
"391 138 CURVE SMOOTH",
"385 138 OFFCURVE",
"370 138 OFFCURVE",
"364 137 CURVE",
"366 179 OFFCURVE",
"387 203 OFFCURVE",
"410 203 CURVE SMOOTH",
"431 203 OFFCURVE",
"448 174 OFFCURVE",
"451 135 CURVE"
);
},
{
closed = 1;
nodes = (
"458 38 LINE",
"506 53 LINE SMOOTH",
"528 60 OFFCURVE",
"552 71 OFFCURVE",
"557 109 CURVE",
"562 109 OFFCURVE",
"566 108 OFFCURVE",
"569 108 CURVE",
"569 107 LINE",
"571 107 LINE SMOOTH",
"573 107 OFFCURVE",
"575 106 OFFCURVE",
"576 106 CURVE",
"578 108 LINE",
"583 108 LINE",
"578 26 LINE",
"458 26 LINE"
);
},
{
closed = 1;
nodes = (
"376 236 OFFCURVE",
"342 238 OFFCURVE",
"328 238 CURVE SMOOTH",
"322 238 OFFCURVE",
"307 238 OFFCURVE",
"301 237 CURVE",
"303 279 OFFCURVE",
"324 293 OFFCURVE",
"347 293 CURVE SMOOTH",
"368 293 OFFCURVE",
"385 274 OFFCURVE",
"388 235 CURVE"
);
},
{
closed = 1;
nodes = (
"463 194 OFFCURVE",
"458 204 OFFCURVE",
"451 211 CURVE",
"454 211 LINE SMOOTH",
"460 211 OFFCURVE",
"472 211 OFFCURVE",
"483 210 CURVE",
"477 203 OFFCURVE",
"472 194 OFFCURVE",
"467 184 CURVE"
);
},
{
closed = 1;
nodes = (
"554 136 OFFCURVE",
"520 138 OFFCURVE",
"506 138 CURVE SMOOTH",
"500 138 OFFCURVE",
"485 138 OFFCURVE",
"479 137 CURVE",
"481 179 OFFCURVE",
"502 203 OFFCURVE",
"525 203 CURVE SMOOTH",
"546 203 OFFCURVE",
"563 174 OFFCURVE",
"566 135 CURVE"
);
},
{
closed = 1;
nodes = (
"400 290 OFFCURVE",
"395 298 OFFCURVE",
"389 304 CURVE",
"399 304 LINE SMOOTH",
"404 304 OFFCURVE",
"411 304 OFFCURVE",
"420 303 CURVE",
"414 297 OFFCURVE",
"408 290 OFFCURVE",
"404 281 CURVE"
);
},
{
closed = 1;
nodes = (
"491 236 OFFCURVE",
"457 238 OFFCURVE",
"443 238 CURVE SMOOTH",
"437 238 OFFCURVE",
"422 238 OFFCURVE",
"416 237 CURVE",
"418 279 OFFCURVE",
"439 293 OFFCURVE",
"462 293 CURVE SMOOTH",
"483 293 OFFCURVE",
"500 274 OFFCURVE",
"503 235 CURVE"
);
},
{
closed = 1;
nodes = (
"436 329 OFFCURVE",
"402 331 OFFCURVE",
"388 331 CURVE SMOOTH",
"382 331 OFFCURVE",
"367 331 OFFCURVE",
"361 330 CURVE",
"363 372 OFFCURVE",
"384 386 OFFCURVE",
"407 386 CURVE SMOOTH",
"428 386 OFFCURVE",
"445 367 OFFCURVE",
"448 328 CURVE"
);
},
{
closed = 1;
nodes = (
"578 195 OFFCURVE",
"573 204 OFFCURVE",
"566 211 CURVE",
"569 211 LINE SMOOTH",
"575 211 OFFCURVE",
"586 211 OFFCURVE",
"597 210 CURVE",
"591 203 OFFCURVE",
"586 195 OFFCURVE",
"582 185 CURVE"
);
},
{
closed = 1;
nodes = (
"668 136 OFFCURVE",
"634 138 OFFCURVE",
"620 138 CURVE SMOOTH",
"614 138 OFFCURVE",
"599 138 OFFCURVE",
"593 137 CURVE",
"595 179 OFFCURVE",
"616 203 OFFCURVE",
"639 203 CURVE SMOOTH",
"660 203 OFFCURVE",
"677 174 OFFCURVE",
"680 135 CURVE"
);
},
{
closed = 1;
nodes = (
"515 290 OFFCURVE",
"510 298 OFFCURVE",
"504 304 CURVE",
"514 304 LINE SMOOTH",
"519 304 OFFCURVE",
"526 304 OFFCURVE",
"535 303 CURVE",
"529 297 OFFCURVE",
"523 290 OFFCURVE",
"519 281 CURVE"
);
},
{
closed = 1;
nodes = (
"606 236 OFFCURVE",
"572 238 OFFCURVE",
"558 238 CURVE SMOOTH",
"552 238 OFFCURVE",
"537 238 OFFCURVE",
"531 237 CURVE",
"533 279 OFFCURVE",
"554 293 OFFCURVE",
"577 293 CURVE SMOOTH",
"598 293 OFFCURVE",
"615 274 OFFCURVE",
"618 235 CURVE"
);
},
{
closed = 1;
nodes = (
"460 383 OFFCURVE",
"455 390 OFFCURVE",
"450 396 CURVE",
"478 395 LINE",
"473 389 OFFCURVE",
"468 382 OFFCURVE",
"464 374 CURVE"
);
},
{
closed = 1;
nodes = (
"551 329 OFFCURVE",
"517 331 OFFCURVE",
"503 331 CURVE SMOOTH",
"497 331 OFFCURVE",
"482 331 OFFCURVE",
"476 330 CURVE",
"478 372 OFFCURVE",
"499 386 OFFCURVE",
"522 386 CURVE SMOOTH",
"543 386 OFFCURVE",
"560 367 OFFCURVE",
"563 328 CURVE"
);
},
{
closed = 1;
nodes = (
"395 423 LINE",
"394 454 OFFCURVE",
"391 534 OFFCURVE",
"378 563 CURVE",
"362 569 LINE",
"268 512 LINE",
"226 534 OFFCURVE",
"208 583 OFFCURVE",
"170 609 CURVE SMOOTH",
"141 629 OFFCURVE",
"72 636 OFFCURVE",
"72 686 CURVE SMOOTH",
"72 701 OFFCURVE",
"81 716 OFFCURVE",
"96 716 CURVE",
"111 711 OFFCURVE",
"106 684 OFFCURVE",
"119 673 CURVE SMOOTH",
"142 654 OFFCURVE",
"240 566 OFFCURVE",
"270 566 CURVE SMOOTH",
"289 566 OFFCURVE",
"332 622 OFFCURVE",
"339 629 CURVE",
"370 657 OFFCURVE",
"412 659 OFFCURVE",
"439 660 CURVE",
"439 758 OFFCURVE",
"365 717 OFFCURVE",
"365 753 CURVE SMOOTH",
"365 768 OFFCURVE",
"374 783 OFFCURVE",
"374 790 CURVE SMOOTH",
"374 801 OFFCURVE",
"368 806 OFFCURVE",
"338 812 CURVE",
"344 828 OFFCURVE",
"368 856 OFFCURVE",
"378 883 CURVE",
"426 868 OFFCURVE",
"489 858 OFFCURVE",
"528 853 CURVE",
"525 828 OFFCURVE",
"499 803 OFFCURVE",
"499 777 CURVE SMOOTH",
"499 761 OFFCURVE",
"500 740 OFFCURVE",
"502 723 CURVE SMOOTH",
"504 709 OFFCURVE",
"510 676 OFFCURVE",
"533 662 CURVE",
"560 698 OFFCURVE",
"667 676 OFFCURVE",
"667 729 CURVE SMOOTH",
"667 791 OFFCURVE",
"627 841 OFFCURVE",
"627 893 CURVE SMOOTH",
"627 916 OFFCURVE",
"641 937 OFFCURVE",
"675 937 CURVE SMOOTH",
"692 937 OFFCURVE",
"694 922 OFFCURVE",
"694 919 CURVE SMOOTH",
"694 901 OFFCURVE",
"668 888 OFFCURVE",
"668 868 CURVE SMOOTH",
"668 811 OFFCURVE",
"710 738 OFFCURVE",
"710 691 CURVE SMOOTH",
"710 670 OFFCURVE",
"665 653 OFFCURVE",
"641 644 CURVE SMOOTH",
"570 617 OFFCURVE",
"534 595 OFFCURVE",
"534 540 CURVE SMOOTH",
"534 522 OFFCURVE",
"537 445 OFFCURVE",
"538 414 CURVE"
);
},
{
closed = 1;
nodes = (
"416 833 OFFCURVE",
"437 835 OFFCURVE",
"437 844 CURVE SMOOTH",
"437 853 OFFCURVE",
"416 867 OFFCURVE",
"402 867 CURVE SMOOTH",
"388 867 OFFCURVE",
"376 859 OFFCURVE",
"376 850 CURVE SMOOTH",
"376 841 OFFCURVE",
"388 833 OFFCURVE",
"402 833 CURVE SMOOTH"
);
},
{
closed = 1;
nodes = (
"483 883 OFFCURVE",
"413 895 OFFCURVE",
"367 914 CURVE",
"386 929 OFFCURVE",
"411 942 OFFCURVE",
"429 957 CURVE SMOOTH",
"487 1005 OFFCURVE",
"515 1048 OFFCURVE",
"557 1108 CURVE",
"561 1059 OFFCURVE",
"539 923 OFFCURVE",
"528 879 CURVE"
);
}
);
width = 787;
}
);
unicode = 14403;
},
{
glyphname = u14404;
lastChange = "2017-06-15 15:44:51 +0000";
layers = (
{
layerId = UUID0;
paths = (
{
closed = 1;
nodes = (
"241 0 LINE SMOOTH",
"287 0 OFFCURVE",
"295 74 OFFCURVE",
"311 112 CURVE SMOOTH",
"314 119 OFFCURVE",
"316 137 OFFCURVE",
"330 137 CURVE SMOOTH",
"342 137 OFFCURVE",
"372 109 OFFCURVE",
"372 86 CURVE SMOOTH",
"372 75 OFFCURVE",
"365 68 OFFCURVE",
"347 63 CURVE SMOOTH",
"334 59 OFFCURVE",
"324 43 OFFCURVE",
"324 31 CURVE SMOOTH",
"324 16 OFFCURVE",
"339 0 OFFCURVE",
"364 0 CURVE SMOOTH",
"441 0 LINE SMOOTH",
"480 0 OFFCURVE",
"499 18 OFFCURVE",
"499 51 CURVE SMOOTH",
"499 130 OFFCURVE",
"430 241 OFFCURVE",
"430 274 CURVE SMOOTH",
"430 360 OFFCURVE",
"642 329 OFFCURVE",
"642 419 CURVE SMOOTH",
"642 436 OFFCURVE",
"631 458 OFFCURVE",
"594 458 CURVE SMOOTH",
"548 458 OFFCURVE",
"450 419 OFFCURVE",
"405 411 CURVE",
"436 445 OFFCURVE",
"481 475 OFFCURVE",
"481 535 CURVE SMOOTH",
"481 579 OFFCURVE",
"462 625 OFFCURVE",
"435 659 CURVE SMOOTH",
"402 700 OFFCURVE",
"435 727 OFFCURVE",
"380 771 CURVE SMOOTH",
"360 787 OFFCURVE",
"346 796 OFFCURVE",
"322 801 CURVE",
"297 801 LINE",
"267 767 OFFCURVE",
"217 727 OFFCURVE",
"175 705 CURVE SMOOTH",
"124 678 OFFCURVE",
"50 670 OFFCURVE",
"50 618 CURVE SMOOTH",
"50 595 OFFCURVE",
"70 580 OFFCURVE",
"103 580 CURVE SMOOTH",
"128 580 OFFCURVE",
"153 591 OFFCURVE",
"186 603 CURVE",
"183 577 OFFCURVE",
"179 552 OFFCURVE",
"179 527 CURVE SMOOTH",
"179 468 OFFCURVE",
"203 428 OFFCURVE",
"241 394 CURVE",
"208 404 OFFCURVE",
"170 436 OFFCURVE",
"134 436 CURVE SMOOTH",
"98 436 OFFCURVE",
"84 411 OFFCURVE",
"84 387 CURVE SMOOTH",
"84 325 OFFCURVE",
"128 308 OFFCURVE",
"203 286 CURVE SMOOTH",
"237 276 OFFCURVE",
"267 264 OFFCURVE",
"267 246 CURVE SMOOTH",
"267 237 OFFCURVE",
"264 223 OFFCURVE",
"257 199 CURVE SMOOTH",
"244 156 OFFCURVE",
"228 110 OFFCURVE",
"198 88 CURVE",
"151 73 OFFCURVE",
"127 60 OFFCURVE",
"127 32 CURVE SMOOTH",
"127 4 OFFCURVE",
"160 0 OFFCURVE",
"164 0 CURVE SMOOTH"
);
},
{
closed = 1;
nodes = (
"160 30 OFFCURVE",
"157 33 OFFCURVE",
"157 40 CURVE SMOOTH",
"157 51 OFFCURVE",
"194 53 OFFCURVE",
"216 68 CURVE SMOOTH",
"237 82 OFFCURVE",
"265 129 OFFCURVE",
"284 187 CURVE SMOOTH",
"293 215 OFFCURVE",
"300 235 OFFCURVE",
"300 250 CURVE SMOOTH",
"300 272 OFFCURVE",
"286 285 OFFCURVE",
"250 298 CURVE SMOOTH",
"214 311 OFFCURVE",
"171 325 OFFCURVE",
"153 334 CURVE SMOOTH",
"128 346 OFFCURVE",
"114 357 OFFCURVE",
"114 385 CURVE SMOOTH",
"114 389 OFFCURVE",
"115 406 OFFCURVE",
"137 406 CURVE SMOOTH",
"179 406 OFFCURVE",
"209 366 OFFCURVE",
"266 363 CURVE",
"285 382 LINE",
"257 410 OFFCURVE",
"209 441 OFFCURVE",
"209 529 CURVE SMOOTH",
"209 579 OFFCURVE",
"213 577 OFFCURVE",
"218 633 CURVE",
"189 643 LINE",
"175 631 OFFCURVE",
"125 609 OFFCURVE",
"96 609 CURVE SMOOTH",
"84 609 OFFCURVE",
"77 612 OFFCURVE",
"77 621 CURVE SMOOTH",
"77 647 OFFCURVE",
"139 659 OFFCURVE",
"159 668 CURVE SMOOTH",
"246 707 OFFCURVE",
"267 731 OFFCURVE",
"310 777 CURVE",
"403 746 OFFCURVE",
"373 705 OFFCURVE",
"411 643 CURVE SMOOTH",
"430 612 OFFCURVE",
"454 579 OFFCURVE",
"454 537 CURVE SMOOTH",
"454 482 OFFCURVE",
"400 444 OFFCURVE",
"378 416 CURVE",
"387 384 LINE",
"467 391 OFFCURVE",
"563 430 OFFCURVE",
"587 430 CURVE SMOOTH",
"603 430 OFFCURVE",
"612 429 OFFCURVE",
"612 416 CURVE SMOOTH",
"612 361 OFFCURVE",
"398 374 OFFCURVE",
"398 277 CURVE SMOOTH",
"398 225 OFFCURVE",
"469 124 OFFCURVE",
"469 60 CURVE SMOOTH",
"469 44 OFFCURVE",
"458 30 OFFCURVE",
"439 30 CURVE SMOOTH",
"371 30 LINE SMOOTH",
"356 30 OFFCURVE",
"354 31 OFFCURVE",
"354 35 CURVE SMOOTH",
"354 40 OFFCURVE",
"357 43 OFFCURVE",
"372 48 CURVE SMOOTH",
"398 57 OFFCURVE",
"402 72 OFFCURVE",
"402 85 CURVE SMOOTH",
"402 114 OFFCURVE",
"361 167 OFFCURVE",
"330 167 CURVE SMOOTH",
"280 167 OFFCURVE",
"282 30 OFFCURVE",
"238 30 CURVE SMOOTH",
"166 30 LINE SMOOTH"
);
},
{
closed = 1;
nodes = (
"371 441 OFFCURVE",
"408 487 OFFCURVE",
"408 546 CURVE SMOOTH",
"408 606 OFFCURVE",
"371 650 OFFCURVE",
"323 650 CURVE SMOOTH",
"278 650 OFFCURVE",
"241 606 OFFCURVE",
"241 546 CURVE SMOOTH",
"241 487 OFFCURVE",
"278 441 OFFCURVE",
"323 441 CURVE SMOOTH"
);
},
{
closed = 1;
nodes = (
"279 495 OFFCURVE",
"269 521 OFFCURVE",
"269 547 CURVE SMOOTH",
"269 591 OFFCURVE",
"295 625 OFFCURVE",
"323 625 CURVE SMOOTH",
"356 625 OFFCURVE",
"380 591 OFFCURVE",
"380 547 CURVE SMOOTH",
"380 525 OFFCURVE",
"373 504 OFFCURVE",
"362 489 CURVE",
"363 491 OFFCURVE",
"363 494 OFFCURVE",
"363 497 CURVE SMOOTH",
"363 519 OFFCURVE",
"347 536 OFFCURVE",
"327 536 CURVE SMOOTH",
"307 536 OFFCURVE",
"291 519 OFFCURVE",
"291 497 CURVE SMOOTH",
"291 491 OFFCURVE",
"292 485 OFFCURVE",
"294 480 CURVE"
);
}
);
width = 692;
}
);
unicode = 14404;
},
{
glyphname = u14405;
lastChange = "2017-06-15 15:44:51 +0000";
layers = (
{
layerId = UUID0;
paths = (
{
closed = 1;
nodes = (
"364 -47 OFFCURVE",
"398 -25 OFFCURVE",
"435 1 CURVE SMOOTH",
"548 79 LINE SMOOTH",
"630 135 OFFCURVE",
"661 236 OFFCURVE",
"661 299 CURVE SMOOTH",
"661 313 OFFCURVE",
"657 327 OFFCURVE",
"651 339 CURVE",
"660 338 OFFCURVE",
"669 337 OFFCURVE",
"678 337 CURVE SMOOTH",
"735 337 OFFCURVE",
"794 365 OFFCURVE",
"794 432 CURVE SMOOTH",
"794 497 OFFCURVE",
"755 483 OFFCURVE",
"741 552 CURVE",
"755 575 OFFCURVE",
"766 609 OFFCURVE",
"766 639 CURVE SMOOTH",
"766 710 OFFCURVE",
"704 800 OFFCURVE",
"576 800 CURVE SMOOTH",
"525 800 OFFCURVE",
"438 761 OFFCURVE",
"412 707 CURVE",
"416 703 LINE",
"386 663 OFFCURVE",
"310 589 OFFCURVE",
"310 549 CURVE SMOOTH",
"310 530 OFFCURVE",
"325 517 OFFCURVE",
"366 517 CURVE",
"386 458 OFFCURVE",
"355 366 OFFCURVE",
"448 356 CURVE",
"421 331 OFFCURVE",
"404 296 OFFCURVE",
"385 266 CURVE SMOOTH",
"380 258 OFFCURVE",
"375 250 OFFCURVE",
"370 241 CURVE",
"359 274 OFFCURVE",
"349 313 OFFCURVE",
"332 341 CURVE SMOOTH",
"282 423 OFFCURVE",
"193 504 OFFCURVE",
"106 504 CURVE SMOOTH",
"82 504 OFFCURVE",
"65 490 OFFCURVE",
"65 473 CURVE SMOOTH",
"65 454 OFFCURVE",
"88 437 OFFCURVE",
"88 427 CURVE SMOOTH",
"88 407 OFFCURVE",
"50 388 OFFCURVE",
"50 363 CURVE SMOOTH",
"50 282 OFFCURVE",
"160 326 OFFCURVE",
"204 265 CURVE SMOOTH",
"217 247 OFFCURVE",
"222 194 OFFCURVE",
"229 137 CURVE SMOOTH",
"240 50 OFFCURVE",
"255 -47 OFFCURVE",
"323 -47 CURVE SMOOTH"
);
},
{
closed = 1;
nodes = (
"245 -17 OFFCURVE",
"277 196 OFFCURVE",
"229 279 CURVE SMOOTH",
"185 355 OFFCURVE",
"82 308 OFFCURVE",
"82 367 CURVE SMOOTH",
"82 378 OFFCURVE",
"117 389 OFFCURVE",
"117 426 CURVE SMOOTH",
"117 449 OFFCURVE",
"95 465 OFFCURVE",
"95 471 CURVE SMOOTH",
"95 474 OFFCURVE",
"100 475 OFFCURVE",
"105 475 CURVE SMOOTH",
"185 475 OFFCURVE",
"260 391 OFFCURVE",
"300 335 CURVE SMOOTH",
"323 303 OFFCURVE",
"341 232 OFFCURVE",
"354 196 CURVE",
"354 160 OFFCURVE",
"378 130 OFFCURVE",
"382 94 CURVE",
"412 96 LINE",
"409 130 OFFCURVE",
"384 162 OFFCURVE",
"384 196 CURVE SMOOTH",
"384 228 OFFCURVE",
"440 303 OFFCURVE",
"461 327 CURVE SMOOTH",
"478 347 OFFCURVE",
"534 363 OFFCURVE",
"568 363 CURVE SMOOTH",
"572 363 OFFCURVE",
"576 363 OFFCURVE",
"580 362 CURVE",
"588 357 OFFCURVE",
"596 352 OFFCURVE",
"605 350 CURVE",
"619 338 OFFCURVE",
"629 322 OFFCURVE",
"629 297 CURVE SMOOTH",
"629 204 OFFCURVE",
"571 130 OFFCURVE",
"527 100 CURVE SMOOTH",
"424 29 LINE SMOOTH",
"397 10 OFFCURVE",
"351 -17 OFFCURVE",
"322 -17 CURVE SMOOTH"
);
},
{
closed = 1;
nodes = (
"412 386 OFFCURVE",
"407 410 OFFCURVE",
"403 448 CURVE",
"450 455 LINE",
"451 482 LINE",
"401 474 LINE",
"400 485 OFFCURVE",
"396 525 OFFCURVE",
"393 532 CURVE SMOOTH",
"383 554 OFFCURVE",
"353 544 OFFCURVE",
"336 551 CURVE",
"343 586 OFFCURVE",
"405 641 OFFCURVE",
"434 682 CURVE",
"543 562 LINE",
"552 564 OFFCURVE",
"566 569 OFFCURVE",
"578 569 CURVE SMOOTH",
"592 569 OFFCURVE",
"603 563 OFFCURVE",
"603 541 CURVE SMOOTH",
"603 514 OFFCURVE",
"530 497 OFFCURVE",
"530 446 CURVE SMOOTH",
"530 431 OFFCURVE",
"533 418 OFFCURVE",
"538 406 CURVE",
"519 396 OFFCURVE",
"485 386 OFFCURVE",
"469 386 CURVE SMOOTH"
);
},
{
closed = 1;
nodes = (
"450 574 OFFCURVE",
"460 581 OFFCURVE",
"460 592 CURVE SMOOTH",
"460 605 OFFCURVE",
"443 620 OFFCURVE",
"422 620 CURVE SMOOTH",
"410 620 OFFCURVE",
"401 615 OFFCURVE",
"399 607 CURVE",
"398 605 OFFCURVE",
"398 604 OFFCURVE",
"398 602 CURVE SMOOTH",
"398 589 OFFCURVE",
"415 574 OFFCURVE",
"437 574 CURVE SMOOTH"
);
},
{
closed = 1;
nodes = (
"623 367 OFFCURVE",
"560 394 OFFCURVE",
"560 441 CURVE SMOOTH",
"560 488 OFFCURVE",
"634 501 OFFCURVE",
"634 539 CURVE SMOOTH",
"634 576 OFFCURVE",
"615 595 OFFCURVE",
"584 595 CURVE SMOOTH",
"576 595 OFFCURVE",
"566 594 OFFCURVE",
"556 591 CURVE",
"450 711 LINE",
"483 747 OFFCURVE",
"531 770 OFFCURVE",
"574 770 CURVE SMOOTH",
"680 770 OFFCURVE",
"734 694 OFFCURVE",
"734 638 CURVE SMOOTH",
"734 615 OFFCURVE",
"724 566 OFFCURVE",
"710 551 CURVE",
"721 485 OFFCURVE",
"760 480 OFFCURVE",
"760 438 CURVE SMOOTH",
"760 408 OFFCURVE",
"751 367 OFFCURVE",
"669 367 CURVE SMOOTH"
);
}
);
width = 844;
}
);
unicode = 14405;
},
{
glyphname = u14406;
lastChange = "2017-06-15 15:44:51 +0000";
layers = (
{
layerId = UUID0;
paths = (
{
closed = 1;
nodes = (
"358 -47 OFFCURVE",
"392 -25 OFFCURVE",
"429 1 CURVE SMOOTH",
"542 79 LINE SMOOTH",
"624 135 OFFCURVE",
"655 236 OFFCURVE",
"655 299 CURVE SMOOTH",
"655 313 OFFCURVE",
"652 326 OFFCURVE",
"646 338 CURVE",
"652 337 OFFCURVE",
"658 337 OFFCURVE",
"664 337 CURVE SMOOTH",
"737 337 OFFCURVE",
"787 367 OFFCURVE",
"787 432 CURVE SMOOTH",
"787 497 OFFCURVE",
"749 483 OFFCURVE",
"735 552 CURVE",
"749 575 OFFCURVE",
"760 609 OFFCURVE",
"760 639 CURVE SMOOTH",
"760 710 OFFCURVE",
"698 800 OFFCURVE",
"560 800 CURVE SMOOTH",
"519 800 OFFCURVE",
"432 761 OFFCURVE",
"406 707 CURVE",
"410 703 LINE",
"380 663 OFFCURVE",
"304 589 OFFCURVE",
"304 549 CURVE SMOOTH",
"304 530 OFFCURVE",
"319 517 OFFCURVE",
"360 517 CURVE",
"380 458 OFFCURVE",
"349 366 OFFCURVE",
"442 356 CURVE",
"414 331 OFFCURVE",
"398 296 OFFCURVE",
"379 266 CURVE SMOOTH",
"364 242 LINE",
"353 245 OFFCURVE",
"341 246 OFFCURVE",
"334 256 CURVE SMOOTH",
"311 289 OFFCURVE",
"301 339 OFFCURVE",
"277 373 CURVE",
"261 374 OFFCURVE",
"247 377 OFFCURVE",
"234 380 CURVE",
"240 382 OFFCURVE",
"246 384 OFFCURVE",
"251 385 CURVE",
"300 398 OFFCURVE",
"324 418 OFFCURVE",
"324 441 CURVE SMOOTH",
"324 490 OFFCURVE",
"275 543 OFFCURVE",
"205 543 CURVE SMOOTH",
"156 543 OFFCURVE",
"119 516 OFFCURVE",
"119 465 CURVE SMOOTH",
"119 461 OFFCURVE",
"119 457 OFFCURVE",
"120 453 CURVE",
"110 461 OFFCURVE",
"102 466 OFFCURVE",
"94 466 CURVE SMOOTH",
"63 466 OFFCURVE",
"50 461 OFFCURVE",
"50 421 CURVE SMOOTH",
"50 323 OFFCURVE",
"128 288 OFFCURVE",
"175 266 CURVE",
"213 195 OFFCURVE",
"210 -47 OFFCURVE",
"317 -47 CURVE SMOOTH"
);
},
{
closed = 1;
nodes = (
"239 -17 OFFCURVE",
"249 198 OFFCURVE",
"201 281 CURVE",
"136 338 OFFCURVE",
"80 338 OFFCURVE",
"80 434 CURVE",
"82 434 LINE SMOOTH",
"96 434 OFFCURVE",
"138 361 OFFCURVE",
"256 343 CURVE",
"280 319 OFFCURVE",
"291 267 OFFCURVE",
"310 239 CURVE SMOOTH",
"317 229 OFFCURVE",
"338 223 OFFCURVE",
"351 214 CURVE",
"349 208 OFFCURVE",
"348 202 OFFCURVE",
"348 196 CURVE SMOOTH",
"348 160 OFFCURVE",
"372 130 OFFCURVE",
"376 94 CURVE",
"406 96 LINE",
"403 130 OFFCURVE",
"378 162 OFFCURVE",
"378 196 CURVE SMOOTH",
"378 228 OFFCURVE",
"436 303 OFFCURVE",
"455 327 CURVE SMOOTH",
"471 347 OFFCURVE",
"528 363 OFFCURVE",
"562 363 CURVE SMOOTH",
"567 363 OFFCURVE",
"572 362 OFFCURVE",
"577 361 CURVE",
"584 357 OFFCURVE",
"591 354 OFFCURVE",
"598 351 CURVE",
"612 340 OFFCURVE",
"623 323 OFFCURVE",
"623 297 CURVE SMOOTH",
"623 204 OFFCURVE",
"565 131 OFFCURVE",
"521 100 CURVE SMOOTH",
"418 29 LINE SMOOTH",
"391 11 OFFCURVE",
"346 -17 OFFCURVE",
"316 -17 CURVE SMOOTH"
);
},
{
closed = 1;
nodes = (
"190 443 OFFCURVE",
"197 447 OFFCURVE",
"197 454 CURVE SMOOTH",
"197 461 OFFCURVE",
"190 466 OFFCURVE",
"181 466 CURVE SMOOTH",
"172 466 OFFCURVE",
"164 461 OFFCURVE",
"164 454 CURVE SMOOTH",
"164 447 OFFCURVE",
"172 443 OFFCURVE",
"181 443 CURVE SMOOTH"
);
},
{
closed = 1;
nodes = (
"235 422 OFFCURVE",
"242 426 OFFCURVE",
"242 433 CURVE SMOOTH",
"242 440 OFFCURVE",
"235 445 OFFCURVE",
"226 445 CURVE SMOOTH",
"217 445 OFFCURVE",
"209 440 OFFCURVE",
"209 433 CURVE SMOOTH",
"209 426 OFFCURVE",
"217 422 OFFCURVE",
"226 422 CURVE SMOOTH"
);
},
{
closed = 1;
nodes = (
"171 402 OFFCURVE",
"146 436 OFFCURVE",
"146 462 CURVE SMOOTH",
"146 495 OFFCURVE",
"178 511 OFFCURVE",
"205 511 CURVE SMOOTH",
"243 511 OFFCURVE",
"296 484 OFFCURVE",
"296 443 CURVE SMOOTH",
"296 419 OFFCURVE",
"211 402 OFFCURVE",
"196 402 CURVE SMOOTH"
);
},
{
closed = 1;
nodes = (
"213 475 OFFCURVE",
"220 479 OFFCURVE",
"220 486 CURVE SMOOTH",
"220 493 OFFCURVE",
"213 498 OFFCURVE",
"204 498 CURVE SMOOTH",
"195 498 OFFCURVE",
"187 493 OFFCURVE",
"187 486 CURVE SMOOTH",
"187 479 OFFCURVE",
"195 475 OFFCURVE",
"204 475 CURVE SMOOTH"
);
},
{
closed = 1;
nodes = (
"258 454 OFFCURVE",
"265 458 OFFCURVE",
"265 465 CURVE SMOOTH",
"265 472 OFFCURVE",
"258 477 OFFCURVE",
"249 477 CURVE SMOOTH",
"240 477 OFFCURVE",
"232 472 OFFCURVE",
"232 465 CURVE SMOOTH",
"232 458 OFFCURVE",
"240 454 OFFCURVE",
"249 454 CURVE SMOOTH"
);
},
{
closed = 1;
nodes = (
"406 386 OFFCURVE",
"401 410 OFFCURVE",
"397 448 CURVE",
"443 455 LINE",
"444 482 LINE",
"395 474 LINE",
"394 480 LINE SMOOTH",
"391 499 OFFCURVE",
"394 517 OFFCURVE",
"387 532 CURVE SMOOTH",
"377 554 OFFCURVE",
"347 544 OFFCURVE",
"330 551 CURVE",
"337 586 OFFCURVE",
"399 641 OFFCURVE",
"428 682 CURVE",
"537 562 LINE",
"546 564 OFFCURVE",
"560 569 OFFCURVE",
"572 569 CURVE SMOOTH",
"586 569 OFFCURVE",
"597 563 OFFCURVE",
"597 541 CURVE SMOOTH",
"597 514 OFFCURVE",
"524 497 OFFCURVE",
"524 446 CURVE SMOOTH",
"524 431 OFFCURVE",
"527 418 OFFCURVE",
"533 406 CURVE",
"513 396 OFFCURVE",
"479 386 OFFCURVE",
"463 386 CURVE SMOOTH"
);
},
{
closed = 1;
nodes = (
"444 574 OFFCURVE",
"454 581 OFFCURVE",
"454 592 CURVE SMOOTH",
"454 605 OFFCURVE",
"437 620 OFFCURVE",
"416 620 CURVE SMOOTH",
"404 620 OFFCURVE",
"395 615 OFFCURVE",
"393 607 CURVE",
"392 605 OFFCURVE",
"392 604 OFFCURVE",
"392 602 CURVE SMOOTH",
"392 589 OFFCURVE",
"409 574 OFFCURVE",
"431 574 CURVE SMOOTH"
);
},
{
closed = 1;
nodes = (
"618 367 OFFCURVE",
"554 393 OFFCURVE",
"554 441 CURVE SMOOTH",
"554 488 OFFCURVE",
"628 501 OFFCURVE",
"628 539 CURVE SMOOTH",
"628 576 OFFCURVE",
"609 595 OFFCURVE",
"578 595 CURVE SMOOTH",
"570 595 OFFCURVE",
"560 594 OFFCURVE",
"550 591 CURVE",
"444 711 LINE",
"477 747 OFFCURVE",
"525 770 OFFCURVE",
"568 770 CURVE SMOOTH",
"674 770 OFFCURVE",
"728 694 OFFCURVE",
"728 638 CURVE SMOOTH",
"728 615 OFFCURVE",
"717 566 OFFCURVE",
"703 551 CURVE",
"717 482 OFFCURVE",
"753 480 OFFCURVE",
"753 438 CURVE SMOOTH",
"753 408 OFFCURVE",
"745 367 OFFCURVE",
"665 367 CURVE SMOOTH"
);
}
);
width = 837;
}
);
unicode = 14406;
},
{
glyphname = u14407;
lastChange = "2017-06-15 15:44:51 +0000";
layers = (
{
layerId = UUID0;
paths = (
{
closed = 1;
nodes = (
"358 -47 OFFCURVE",
"392 -25 OFFCURVE",
"429 1 CURVE SMOOTH",
"542 79 LINE SMOOTH",
"624 135 OFFCURVE",
"655 236 OFFCURVE",
"655 299 CURVE SMOOTH",
"655 313 OFFCURVE",
"652 326 OFFCURVE",
"646 338 CURVE",
"652 337 OFFCURVE",
"659 337 OFFCURVE",
"665 337 CURVE SMOOTH",
"728 337 OFFCURVE",
"788 367 OFFCURVE",
"788 432 CURVE SMOOTH",
"788 497 OFFCURVE",
"749 483 OFFCURVE",
"735 552 CURVE",
"749 575 OFFCURVE",
"760 609 OFFCURVE",
"760 639 CURVE SMOOTH",
"760 710 OFFCURVE",
"698 800 OFFCURVE",
"560 800 CURVE SMOOTH",
"519 800 OFFCURVE",
"432 761 OFFCURVE",
"406 707 CURVE",
"410 703 LINE",
"380 663 OFFCURVE",
"304 589 OFFCURVE",
"304 549 CURVE SMOOTH",
"304 530 OFFCURVE",
"319 517 OFFCURVE",
"360 517 CURVE",
"380 458 OFFCURVE",
"349 366 OFFCURVE",
"442 356 CURVE",
"411 327 OFFCURVE",
"394 290 OFFCURVE",
"379 266 CURVE SMOOTH",
"364 242 LINE",
"353 245 OFFCURVE",
"341 246 OFFCURVE",
"334 256 CURVE SMOOTH",
"312 288 OFFCURVE",
"302 334 OFFCURVE",
"280 368 CURVE",
"322 388 OFFCURVE",
"338 438 OFFCURVE",
"348 488 CURVE",
"336 506 LINE",
"290 499 OFFCURVE",
"244 495 OFFCURVE",
"203 495 CURVE SMOOTH",
"171 495 OFFCURVE",
"142 497 OFFCURVE",
"116 504 CURVE",
"103 473 LINE",
"105 468 OFFCURVE",
"106 463 OFFCURVE",
"108 459 CURVE",
"102 463 OFFCURVE",
"96 466 OFFCURVE",
"89 466 CURVE SMOOTH",
"68 466 OFFCURVE",
"50 461 OFFCURVE",
"50 421 CURVE SMOOTH",
"50 323 OFFCURVE",
"128 288 OFFCURVE",
"175 266 CURVE",
"213 195 OFFCURVE",
"210 -47 OFFCURVE",
"317 -47 CURVE SMOOTH"
);
},
{
closed = 1;
nodes = (
"239 -17 OFFCURVE",
"249 198 OFFCURVE",
"201 281 CURVE",
"136 338 OFFCURVE",
"80 336 OFFCURVE",
"80 428 CURVE SMOOTH",
"80 431 OFFCURVE",
"81 434 OFFCURVE",
"84 434 CURVE SMOOTH",
"103 434 OFFCURVE",
"137 359 OFFCURVE",
"255 349 CURVE",
"279 325 OFFCURVE",
"291 267 OFFCURVE",
"310 239 CURVE SMOOTH",
"317 229 OFFCURVE",
"338 223 OFFCURVE",
"351 214 CURVE",
"349 208 OFFCURVE",
"348 202 OFFCURVE",
"348 196 CURVE SMOOTH",
"348 160 OFFCURVE",
"372 130 OFFCURVE",
"376 94 CURVE",
"406 96 LINE",
"403 130 OFFCURVE",
"378 162 OFFCURVE",
"378 196 CURVE SMOOTH",
"378 225 OFFCURVE",
"434 303 OFFCURVE",
"455 327 CURVE SMOOTH",
"472 347 OFFCURVE",
"528 363 OFFCURVE",
"562 363 CURVE SMOOTH",
"565 363 OFFCURVE",
"569 363 OFFCURVE",
"573 362 CURVE",
"581 356 OFFCURVE",
"591 351 OFFCURVE",
"600 349 CURVE",
"613 338 OFFCURVE",
"623 321 OFFCURVE",
"623 297 CURVE SMOOTH",
"623 204 OFFCURVE",
"565 131 OFFCURVE",
"521 100 CURVE SMOOTH",
"418 29 LINE SMOOTH",
"391 11 OFFCURVE",
"346 -17 OFFCURVE",
"316 -17 CURVE SMOOTH"
);
},
{
closed = 1;
nodes = (
"209 389 OFFCURVE",
"180 401 OFFCURVE",
"161 417 CURVE SMOOTH",
"148 428 OFFCURVE",
"142 448 OFFCURVE",
"137 466 CURVE",
"156 463 OFFCURVE",
"175 462 OFFCURVE",
"194 462 CURVE SMOOTH",
"235 462 OFFCURVE",
"276 467 OFFCURVE",
"315 473 CURVE",
"304 430 OFFCURVE",
"285 389 OFFCURVE",
"236 389 CURVE SMOOTH"
);
},
{
closed = 1;
nodes = (
"406 386 OFFCURVE",
"401 410 OFFCURVE",
"397 448 CURVE",
"443 455 LINE",
"444 482 LINE",
"395 474 LINE",
"392 483 OFFCURVE",
"394 516 OFFCURVE",
"387 532 CURVE SMOOTH",
"377 555 OFFCURVE",
"347 544 OFFCURVE",
"330 551 CURVE",
"337 586 OFFCURVE",
"399 641 OFFCURVE",
"428 682 CURVE",
"537 562 LINE",
"546 564 OFFCURVE",
"560 569 OFFCURVE",
"572 569 CURVE SMOOTH",
"586 569 OFFCURVE",
"597 563 OFFCURVE",
"597 541 CURVE SMOOTH",
"597 514 OFFCURVE",
"524 497 OFFCURVE",
"524 446 CURVE SMOOTH",
"524 431 OFFCURVE",
"527 418 OFFCURVE",
"532 406 CURVE",
"513 396 OFFCURVE",
"479 386 OFFCURVE",
"463 386 CURVE SMOOTH"
);
},
{
closed = 1;
nodes = (
"444 574 OFFCURVE",
"454 581 OFFCURVE",
"454 592 CURVE SMOOTH",
"454 605 OFFCURVE",
"437 620 OFFCURVE",
"416 620 CURVE SMOOTH",
"404 620 OFFCURVE",
"395 615 OFFCURVE",
"393 607 CURVE",
"392 605 OFFCURVE",
"392 604 OFFCURVE",
"392 602 CURVE SMOOTH",
"392 589 OFFCURVE",
"409 574 OFFCURVE",
"431 574 CURVE SMOOTH"
);
},
{
closed = 1;
nodes = (
"618 367 OFFCURVE",
"554 395 OFFCURVE",
"554 441 CURVE SMOOTH",
"554 488 OFFCURVE",
"628 501 OFFCURVE",
"628 539 CURVE SMOOTH",
"628 576 OFFCURVE",
"609 595 OFFCURVE",
"578 595 CURVE SMOOTH",
"570 595 OFFCURVE",
"560 594 OFFCURVE",
"550 591 CURVE",
"444 711 LINE",
"477 747 OFFCURVE",
"525 770 OFFCURVE",
"568 770 CURVE SMOOTH",
"674 770 OFFCURVE",
"728 694 OFFCURVE",
"728 638 CURVE SMOOTH",
"728 615 OFFCURVE",
"718 566 OFFCURVE",
"704 551 CURVE",
"712 487 OFFCURVE",
"754 480 OFFCURVE",
"754 438 CURVE SMOOTH",
"754 408 OFFCURVE",
"746 367 OFFCURVE",
"666 367 CURVE SMOOTH"
);
}
);
width = 838;
}
);
unicode = 14407;
},
{
glyphname = u14408;
lastChange = "2017-06-15 15:44:51 +0000";
layers = (
{
layerId = UUID0;
paths = (
{
closed = 1;
nodes = (
"581 -47 OFFCURVE",
"695 22 OFFCURVE",
"790 96 CURVE",
"885 22 OFFCURVE",
"999 -47 OFFCURVE",
"1059 -47 CURVE SMOOTH",
"1100 -47 OFFCURVE",
"1134 -25 OFFCURVE",
"1171 1 CURVE SMOOTH",
"1284 79 LINE SMOOTH",
"1366 135 OFFCURVE",
"1397 236 OFFCURVE",
"1397 299 CURVE SMOOTH",
"1397 313 OFFCURVE",
"1393 327 OFFCURVE",
"1387 339 CURVE",
"1396 338 OFFCURVE",
"1404 337 OFFCURVE",
"1412 337 CURVE SMOOTH",
"1471 337 OFFCURVE",
"1530 364 OFFCURVE",
"1530 429 CURVE SMOOTH",
"1530 494 OFFCURVE",
"1491 483 OFFCURVE",
"1477 552 CURVE",
"1491 575 OFFCURVE",
"1502 609 OFFCURVE",
"1502 639 CURVE SMOOTH",
"1502 710 OFFCURVE",
"1440 800 OFFCURVE",
"1302 800 CURVE SMOOTH",
"1261 800 OFFCURVE",
"1174 761 OFFCURVE",
"1148 707 CURVE",
"1152 703 LINE",
"1122 663 OFFCURVE",
"1046 589 OFFCURVE",
"1046 549 CURVE SMOOTH",
"1046 530 OFFCURVE",
"1061 517 OFFCURVE",
"1102 517 CURVE",
"1122 456 OFFCURVE",
"1089 360 OFFCURVE",
"1193 355 CURVE",
"1129 308 OFFCURVE",
"1084 223 OFFCURVE",
"1050 140 CURVE",
"1025 153 OFFCURVE",
"964 176 OFFCURVE",
"906 198 CURVE",
"923 216 OFFCURVE",
"935 231 OFFCURVE",
"941 242 CURVE",
"1018 261 OFFCURVE",
"1080 304 OFFCURVE",
"1080 405 CURVE SMOOTH",
"1080 445 OFFCURVE",
"1063 450 OFFCURVE",
"1045 450 CURVE SMOOTH",
"1026 450 OFFCURVE",
"1004 421 OFFCURVE",
"967 421 CURVE SMOOTH",
"948 421 OFFCURVE",
"902 450 OFFCURVE",
"865 450 CURVE SMOOTH",
"853 450 OFFCURVE",
"850 443 OFFCURVE",
"850 430 CURVE SMOOTH",
"850 400 OFFCURVE",
"857 369 OFFCURVE",
"857 337 CURVE SMOOTH",
"857 288 OFFCURVE",
"828 260 OFFCURVE",
"790 242 CURVE",
"743 270 OFFCURVE",
"723 290 OFFCURVE",
"723 338 CURVE SMOOTH",
"723 370 OFFCURVE",
"730 400 OFFCURVE",
"730 430 CURVE SMOOTH",
"730 443 OFFCURVE",
"727 450 OFFCURVE",
"715 450 CURVE SMOOTH",
"678 450 OFFCURVE",
"632 421 OFFCURVE",
"613 421 CURVE SMOOTH",
"576 421 OFFCURVE",
"554 450 OFFCURVE",
"535 450 CURVE SMOOTH",
"517 450 OFFCURVE",
"500 445 OFFCURVE",
"500 405 CURVE SMOOTH",
"500 304 OFFCURVE",
"562 261 OFFCURVE",
"639 242 CURVE",
"645 231 OFFCURVE",
"657 216 OFFCURVE",
"674 198 CURVE",
"616 177 OFFCURVE",
"555 153 OFFCURVE",
"530 140 CURVE",
"496 223 OFFCURVE",
"451 308 OFFCURVE",
"387 355 CURVE",
"491 360 OFFCURVE",
"458 456 OFFCURVE",
"478 517 CURVE",
"519 517 OFFCURVE",
"534 530 OFFCURVE",
"534 549 CURVE SMOOTH",
"534 589 OFFCURVE",
"458 663 OFFCURVE",
"428 703 CURVE",
"432 707 LINE",
"406 761 OFFCURVE",
"319 800 OFFCURVE",
"278 800 CURVE SMOOTH",
"140 800 OFFCURVE",
"78 710 OFFCURVE",
"78 639 CURVE SMOOTH",
"78 609 OFFCURVE",
"89 575 OFFCURVE",
"103 552 CURVE",
"89 483 OFFCURVE",
"50 494 OFFCURVE",
"50 429 CURVE SMOOTH",
"50 364 OFFCURVE",
"109 337 OFFCURVE",
"168 337 CURVE SMOOTH",
"176 337 OFFCURVE",
"184 338 OFFCURVE",
"193 339 CURVE",
"187 327 OFFCURVE",
"183 313 OFFCURVE",
"183 299 CURVE SMOOTH",
"183 236 OFFCURVE",
"214 135 OFFCURVE",
"296 79 CURVE SMOOTH",
"409 1 LINE SMOOTH",
"446 -25 OFFCURVE",
"480 -47 OFFCURVE",
"521 -47 CURVE SMOOTH"
);
},
{
closed = 1;
nodes = (
"97 367 OFFCURVE",
"84 405 OFFCURVE",
"84 435 CURVE SMOOTH",
"84 477 OFFCURVE",
"125 489 OFFCURVE",
"134 551 CURVE",
"120 566 OFFCURVE",
"110 615 OFFCURVE",
"110 638 CURVE SMOOTH",
"110 694 OFFCURVE",
"164 770 OFFCURVE",
"270 770 CURVE SMOOTH",
"313 770 OFFCURVE",
"361 747 OFFCURVE",
"394 711 CURVE",
"288 591 LINE",
"278 594 OFFCURVE",
"268 595 OFFCURVE",
"260 595 CURVE SMOOTH",
"229 595 OFFCURVE",
"210 576 OFFCURVE",
"210 539 CURVE SMOOTH",
"210 501 OFFCURVE",
"284 488 OFFCURVE",
"284 441 CURVE SMOOTH",
"284 394 OFFCURVE",
"218 367 OFFCURVE",
"171 367 CURVE SMOOTH"
);
},
{
closed = 1;
nodes = (
"492 -17 OFFCURVE",
"447 11 OFFCURVE",
"420 29 CURVE SMOOTH",
"317 100 LINE SMOOTH",
"273 131 OFFCURVE",
"215 204 OFFCURVE",
"215 297 CURVE SMOOTH",
"215 322 OFFCURVE",
"226 340 OFFCURVE",
"240 350 CURVE",
"247 352 OFFCURVE",
"256 357 OFFCURVE",
"263 361 CURVE",
"267 362 OFFCURVE",
"272 363 OFFCURVE",
"276 363 CURVE SMOOTH",
"406 363 OFFCURVE",
"486 169 OFFCURVE",
"509 101 CURVE",
"539 103 LINE",
"545 117 OFFCURVE",
"807 214 OFFCURVE",
"820 223 CURVE SMOOTH",
"879 264 OFFCURVE",
"891 297 OFFCURVE",
"891 330 CURVE SMOOTH",
"891 351 OFFCURVE",
"886 371 OFFCURVE",
"885 393 CURVE",
"885 402 OFFCURVE",
"886 407 OFFCURVE",
"893 407 CURVE SMOOTH",
"912 407 OFFCURVE",
"928 387 OFFCURVE",
"969 387 CURVE SMOOTH",
"1002 387 OFFCURVE",
"1039 415 OFFCURVE",
"1050 418 CURVE",
"1044 311 OFFCURVE",
"1000 295 OFFCURVE",
"923 270 CURVE",
"875 187 OFFCURVE",
"599 -17 OFFCURVE",
"522 -17 CURVE SMOOTH"
);
},
{
closed = 1;
nodes = (
"359 386 OFFCURVE",
"325 396 OFFCURVE",
"306 406 CURVE",
"311 418 OFFCURVE",
"314 431 OFFCURVE",
"314 446 CURVE SMOOTH",
"314 497 OFFCURVE",
"241 514 OFFCURVE",
"241 541 CURVE SMOOTH",
"241 563 OFFCURVE",
"252 569 OFFCURVE",
"266 569 CURVE SMOOTH",
"278 569 OFFCURVE",
"292 564 OFFCURVE",
"301 562 CURVE",
"410 682 LINE",
"439 641 OFFCURVE",
"501 586 OFFCURVE",
"508 551 CURVE",
"491 544 OFFCURVE",
"462 554 OFFCURVE",
"451 532 CURVE SMOOTH",
"444 518 OFFCURVE",
"447 491 OFFCURVE",
"443 474 CURVE",
"395 482 LINE",
"396 455 LINE",
"441 448 LINE",
"437 410 OFFCURVE",
"432 386 OFFCURVE",
"375 386 CURVE SMOOTH"
);
},
{
closed = 1;
nodes = (
"684 233 OFFCURVE",
"667 254 OFFCURVE",
"657 270 CURVE",
"580 295 OFFCURVE",
"536 311 OFFCURVE",
"530 418 CURVE",
"541 415 OFFCURVE",
"578 387 OFFCURVE",
"611 387 CURVE SMOOTH",
"652 387 OFFCURVE",
"668 407 OFFCURVE",
"687 407 CURVE SMOOTH",
"694 407 OFFCURVE",
"695 402 OFFCURVE",
"695 393 CURVE",
"694 371 OFFCURVE",
"689 351 OFFCURVE",
"689 330 CURVE SMOOTH",
"689 298 OFFCURVE",
"700 267 OFFCURVE",
"753 228 CURVE",
"707 211 LINE"
);
},
{
closed = 1;
nodes = (
"429 574 OFFCURVE",
"446 589 OFFCURVE",
"446 602 CURVE SMOOTH",
"446 604 OFFCURVE",
"446 605 OFFCURVE",
"445 607 CURVE",
"443 615 OFFCURVE",
"434 620 OFFCURVE",
"422 620 CURVE SMOOTH",
"401 620 OFFCURVE",
"384 605 OFFCURVE",
"384 592 CURVE SMOOTH",
"384 581 OFFCURVE",
"394 574 OFFCURVE",
"407 574 CURVE SMOOTH"
);
},
{
closed = 1;
nodes = (
"1015 -17 OFFCURVE",
"910 47 OFFCURVE",
"817 117 CURVE",
"840 136 OFFCURVE",
"862 155 OFFCURVE",
"881 173 CURVE",
"956 144 OFFCURVE",
"1037 110 OFFCURVE",
"1041 103 CURVE",
"1071 101 LINE",
"1094 169 OFFCURVE",
"1174 363 OFFCURVE",
"1304 363 CURVE SMOOTH",
"1308 363 OFFCURVE",
"1313 362 OFFCURVE",
"1317 361 CURVE",
"1324 357 OFFCURVE",
"1333 353 OFFCURVE",
"1340 350 CURVE",
"1354 340 OFFCURVE",
"1365 322 OFFCURVE",
"1365 297 CURVE SMOOTH",
"1365 204 OFFCURVE",
"1307 131 OFFCURVE",
"1263 100 CURVE SMOOTH",
"1160 29 LINE SMOOTH",
"1133 11 OFFCURVE",
"1088 -17 OFFCURVE",
"1058 -17 CURVE SMOOTH"
);
},
{
closed = 1;
nodes = (
"1148 386 OFFCURVE",
"1143 410 OFFCURVE",
"1139 448 CURVE",
"1185 455 LINE",
"1186 482 LINE",
"1137 474 LINE",
"1133 488 OFFCURVE",
"1136 517 OFFCURVE",
"1129 532 CURVE SMOOTH",
"1119 554 OFFCURVE",
"1089 544 OFFCURVE",
"1072 551 CURVE",
"1079 586 OFFCURVE",
"1141 641 OFFCURVE",
"1170 682 CURVE",
"1279 562 LINE",
"1288 564 OFFCURVE",
"1302 569 OFFCURVE",
"1314 569 CURVE SMOOTH",
"1328 569 OFFCURVE",
"1339 563 OFFCURVE",
"1339 541 CURVE SMOOTH",
"1339 514 OFFCURVE",
"1266 497 OFFCURVE",
"1266 446 CURVE SMOOTH",
"1266 431 OFFCURVE",
"1269 418 OFFCURVE",
"1274 406 CURVE",
"1255 396 OFFCURVE",
"1221 386 OFFCURVE",
"1205 386 CURVE SMOOTH"
);
},
{
closed = 1;
nodes = (
"1186 574 OFFCURVE",
"1196 581 OFFCURVE",
"1196 592 CURVE SMOOTH",
"1196 605 OFFCURVE",
"1179 620 OFFCURVE",
"1158 620 CURVE SMOOTH",
"1146 620 OFFCURVE",
"1137 615 OFFCURVE",
"1135 607 CURVE",
"1134 605 OFFCURVE",
"1134 604 OFFCURVE",
"1134 602 CURVE SMOOTH",
"1134 589 OFFCURVE",
"1151 574 OFFCURVE",
"1173 574 CURVE SMOOTH"
);
},
{
closed = 1;
nodes = (
"1362 367 OFFCURVE",
"1296 393 OFFCURVE",
"1296 441 CURVE SMOOTH",
"1296 488 OFFCURVE",
"1370 501 OFFCURVE",
"1370 539 CURVE SMOOTH",
"1370 576 OFFCURVE",
"1351 595 OFFCURVE",
"1320 595 CURVE SMOOTH",
"1312 595 OFFCURVE",
"1302 594 OFFCURVE",
"1292 591 CURVE",
"1186 711 LINE",
"1219 747 OFFCURVE",
"1267 770 OFFCURVE",
"1310 770 CURVE SMOOTH",
"1416 770 OFFCURVE",
"1470 694 OFFCURVE",
"1470 638 CURVE SMOOTH",
"1470 615 OFFCURVE",
"1460 566 OFFCURVE",
"1446 551 CURVE",
"1455 489 OFFCURVE",
"1496 477 OFFCURVE",
"1496 435 CURVE SMOOTH",
"1496 405 OFFCURVE",
"1483 367 OFFCURVE",
"1409 367 CURVE SMOOTH"
);
}
);
width = 1580;
}
);
unicode = 14408;
},
{
glyphname = u14409;
lastChange = "2017-06-15 15:44:51 +0000";
layers = (
{
layerId = UUID0;
paths = (
{
closed = 1;
nodes = (
"812 -30 OFFCURVE",
"916 11 OFFCURVE",
"916 129 CURVE SMOOTH",
"916 221 OFFCURVE",
"854 222 OFFCURVE",
"828 348 CURVE",
"854 390 OFFCURVE",
"874 452 OFFCURVE",
"874 507 CURVE SMOOTH",
"874 637 OFFCURVE",
"758 800 OFFCURVE",
"533 800 CURVE SMOOTH",
"411 800 OFFCURVE",
"275 730 OFFCURVE",
"228 631 CURVE",
"237 621 LINE",
"168 499 OFFCURVE",
"50 398 OFFCURVE",
"50 336 CURVE SMOOTH",
"50 301 OFFCURVE",
"75 300 OFFCURVE",
"150 300 CURVE",
"188 185 OFFCURVE",
"142 -10 OFFCURVE",
"326 -10 CURVE SMOOTH",
"372 -10 OFFCURVE",
"446 11 OFFCURVE",
"485 39 CURVE",
"536 -12 OFFCURVE",
"627 -30 OFFCURVE",
"708 -30 CURVE SMOOTH"
);
},
{
closed = 1;
nodes = (
"223 20 OFFCURVE",
"212 86 OFFCURVE",
"203 166 CURVE",
"234 168 OFFCURVE",
"270 171 OFFCURVE",
"298 172 CURVE",
"300 202 LINE",
"270 201 OFFCURVE",
"231 197 OFFCURVE",
"199 195 CURVE",
"196 217 LINE SMOOTH",
"191 252 OFFCURVE",
"192 286 OFFCURVE",
"183 304 CURVE SMOOTH",
"163 345 OFFCURVE",
"114 326 OFFCURVE",
"83 339 CURVE",
"96 405 OFFCURVE",
"209 502 OFFCURVE",
"259 597 CURVE",
"467 367 LINE",
"483 370 OFFCURVE",
"509 380 OFFCURVE",
"531 380 CURVE SMOOTH",
"556 380 OFFCURVE",
"601 378 OFFCURVE",
"601 338 CURVE SMOOTH",
"601 289 OFFCURVE",
"445 248 OFFCURVE",
"445 137 CURVE SMOOTH",
"445 108 OFFCURVE",
"453 84 OFFCURVE",
"466 63 CURVE",
"437 43 OFFCURVE",
"384 20 OFFCURVE",
"332 20 CURVE SMOOTH"
);
},
{
closed = 1;
nodes = (
"287 416 OFFCURVE",
"303 427 OFFCURVE",
"303 446 CURVE SMOOTH",
"303 468 OFFCURVE",
"275 493 OFFCURVE",
"240 493 CURVE SMOOTH",
"220 493 OFFCURVE",
"205 485 OFFCURVE",
"202 472 CURVE",
"200 468 OFFCURVE",
"200 466 OFFCURVE",
"200 463 CURVE SMOOTH",
"200 441 OFFCURVE",
"228 416 OFFCURVE",
"265 416 CURVE SMOOTH"
);
},
{
closed = 1;
nodes = (
"662 0 OFFCURVE",
"475 23 OFFCURVE",
"475 137 CURVE SMOOTH",
"475 227 OFFCURVE",
"631 265 OFFCURVE",
"631 338 CURVE SMOOTH",
"631 386 OFFCURVE",
"601 410 OFFCURVE",
"540 410 CURVE SMOOTH",
"525 410 OFFCURVE",
"505 407 OFFCURVE",
"484 402 CURVE",
"262 640 LINE",
"327 708 OFFCURVE",
"407 770 OFFCURVE",
"529 770 CURVE SMOOTH",
"739 770 OFFCURVE",
"844 617 OFFCURVE",
"844 510 CURVE SMOOTH",
"844 467 OFFCURVE",
"826 380 OFFCURVE",
"797 352 CURVE",
"823 221 OFFCURVE",
"886 202 OFFCURVE",
"886 131 CURVE SMOOTH",
"886 75 OFFCURVE",
"863 0 OFFCURVE",
"704 0 CURVE SMOOTH"
);
}
);
width = 966;
}
);
unicode = 14409;
},
{
glyphname = u1440A;
lastChange = "2017-06-15 15:44:51 +0000";
layers = (
{
layerId = UUID0;
paths = (
{
closed = 1;
nodes = (
"812 -30 OFFCURVE",
"916 11 OFFCURVE",
"916 129 CURVE SMOOTH",
"916 221 OFFCURVE",
"854 222 OFFCURVE",
"828 348 CURVE",
"854 390 OFFCURVE",
"874 452 OFFCURVE",
"874 507 CURVE SMOOTH",
"874 637 OFFCURVE",
"752 800 OFFCURVE",
"527 800 CURVE SMOOTH",
"405 800 OFFCURVE",
"279 726 OFFCURVE",
"226 622 CURVE SMOOTH",
"161 494 OFFCURVE",
"50 399 OFFCURVE",
"50 336 CURVE SMOOTH",
"50 301 OFFCURVE",
"75 300 OFFCURVE",
"150 300 CURVE",
"188 185 OFFCURVE",
"142 -10 OFFCURVE",
"326 -10 CURVE SMOOTH",
"372 -10 OFFCURVE",
"456 1 OFFCURVE",
"501 25 CURVE",
"553 -14 OFFCURVE",
"635 -30 OFFCURVE",
"708 -30 CURVE SMOOTH"
);
},
{
closed = 1;
nodes = (
"494 191 OFFCURVE",
"477 208 OFFCURVE",
"477 228 CURVE SMOOTH",
"477 250 OFFCURVE",
"494 267 OFFCURVE",
"514 267 CURVE SMOOTH",
"536 267 OFFCURVE",
"553 250 OFFCURVE",
"553 228 CURVE SMOOTH",
"553 208 OFFCURVE",
"536 191 OFFCURVE",
"514 191 CURVE SMOOTH"
);
},
{
closed = 1;
nodes = (
"338 411 OFFCURVE",
"321 428 OFFCURVE",
"321 448 CURVE SMOOTH",
"321 470 OFFCURVE",
"338 487 OFFCURVE",
"360 487 CURVE SMOOTH",
"380 487 OFFCURVE",
"397 470 OFFCURVE",
"397 448 CURVE SMOOTH",
"397 428 OFFCURVE",
"380 411 OFFCURVE",
"360 411 CURVE SMOOTH"
);
},
{
closed = 1;
nodes = (
"672 0 OFFCURVE",
"572 3 OFFCURVE",
"518 58 CURVE",
"496 59 LINE",
"469 39 OFFCURVE",
"393 20 OFFCURVE",
"332 20 CURVE SMOOTH",
"200 20 OFFCURVE",
"212 117 OFFCURVE",
"196 217 CURVE SMOOTH",
"190 252 OFFCURVE",
"193 283 OFFCURVE",
"183 304 CURVE SMOOTH",
"164 344 OFFCURVE",
"114 325 OFFCURVE",
"83 339 CURVE",
"94 402 OFFCURVE",
"194 495 OFFCURVE",
"243 589 CURVE SMOOTH",
"297 693 OFFCURVE",
"399 770 OFFCURVE",
"529 770 CURVE SMOOTH",
"739 770 OFFCURVE",
"844 617 OFFCURVE",
"844 510 CURVE SMOOTH",
"844 467 OFFCURVE",
"826 380 OFFCURVE",
"797 352 CURVE",
"823 221 OFFCURVE",
"886 202 OFFCURVE",
"886 131 CURVE SMOOTH",
"886 75 OFFCURVE",
"863 0 OFFCURVE",
"704 0 CURVE SMOOTH"
);
},
{
closed = 1;
nodes = (
"551 163 OFFCURVE",
"580 192 OFFCURVE",
"580 228 CURVE SMOOTH",
"580 259 OFFCURVE",
"559 285 OFFCURVE",
"530 292 CURVE",
"530 644 LINE",
"656 512 LINE",
"627 506 OFFCURVE",
"606 480 OFFCURVE",
"606 448 CURVE SMOOTH",
"606 412 OFFCURVE",
"635 383 OFFCURVE",
"671 383 CURVE SMOOTH",
"708 383 OFFCURVE",
"737 412 OFFCURVE",
"737 448 CURVE SMOOTH",
"737 473 OFFCURVE",
"724 494 OFFCURVE",
"704 506 CURVE",
"535 680 LINE",
"496 680 LINE",
"327 506 LINE",
"307 494 OFFCURVE",
"294 473 OFFCURVE",
"294 448 CURVE SMOOTH",
"294 412 OFFCURVE",
"323 383 OFFCURVE",
"360 383 CURVE SMOOTH",
"396 383 OFFCURVE",
"425 412 OFFCURVE",
"425 448 CURVE SMOOTH",
"425 480 OFFCURVE",
"404 506 OFFCURVE",
"375 512 CURVE",
"500 643 LINE",
"500 292 LINE",
"471 286 OFFCURVE",
"449 260 OFFCURVE",
"449 228 CURVE SMOOTH",
"449 192 OFFCURVE",
"478 163 OFFCURVE",
"514 163 CURVE SMOOTH"
);
},
{
closed = 1;
nodes = (
"651 411 OFFCURVE",
"634 428 OFFCURVE",
"634 448 CURVE SMOOTH",
"634 470 OFFCURVE",
"651 487 OFFCURVE",
"671 487 CURVE SMOOTH",
"693 487 OFFCURVE",
"710 470 OFFCURVE",
"710 448 CURVE SMOOTH",
"710 428 OFFCURVE",
"693 411 OFFCURVE",
"671 411 CURVE SMOOTH"
);
}
);
width = 966;
}
);
unicode = 1440A;
},
{
glyphname = u1440B;
lastChange = "2017-06-15 15:44:51 +0000";
layers = (
{
layerId = UUID0;
paths = (
{
closed = 1;
nodes = (
"397 5 LINE",
"300 133 OFFCURVE",
"184 51 OFFCURVE",
"184 111 CURVE SMOOTH",
"184 135 OFFCURVE",
"198 153 OFFCURVE",
"198 201 CURVE SMOOTH",
"198 226 OFFCURVE",
"193 240 OFFCURVE",
"183 274 CURVE SMOOTH",
"170 317 OFFCURVE",
"116 296 OFFCURVE",
"84 309 CURVE",
"100 373 OFFCURVE",
"173 489 OFFCURVE",
"207 559 CURVE",
"584 547 LINE",
"583 450 OFFCURVE",
"611 355 OFFCURVE",
"611 261 CURVE SMOOTH",
"611 199 OFFCURVE",
"584 91 OFFCURVE",
"584 -12 CURVE",
"611 -10 LINE",
"616 130 OFFCURVE",
"637 164 OFFCURVE",
"637 259 CURVE SMOOTH",
"637 354 OFFCURVE",
"614 451 OFFCURVE",
"614 546 CURVE",
"645 545 OFFCURVE",
"655 560 OFFCURVE",
"655 581 CURVE SMOOTH",
"655 612 OFFCURVE",
"639 651 OFFCURVE",
"635 664 CURVE SMOOTH",
"607 751 OFFCURVE",
"614 849 OFFCURVE",
"590 939 CURVE SMOOTH",
"584 960 OFFCURVE",
"568 960 OFFCURVE",
"553 960 CURVE SMOOTH",
"315 960 LINE SMOOTH",
"257 960 OFFCURVE",
"198 957 OFFCURVE",
"194 902 CURVE SMOOTH",
"189 836 OFFCURVE",
"180 760 OFFCURVE",
"156 676 CURVE SMOOTH",
"151 660 OFFCURVE",
"138 628 OFFCURVE",
"138 602 CURVE SMOOTH",
"138 583 OFFCURVE",
"145 565 OFFCURVE",
"174 561 CURVE",
"109 441 OFFCURVE",
"50 354 OFFCURVE",
"50 306 CURVE SMOOTH",
"50 271 OFFCURVE",
"75 270 OFFCURVE",
"150 270 CURVE",
"159 230 OFFCURVE",
"168 218 OFFCURVE",
"168 197 CURVE SMOOTH",
"168 161 OFFCURVE",
"154 156 OFFCURVE",
"154 112 CURVE SMOOTH",
"154 66 OFFCURVE",
"170 51 OFFCURVE",
"263 51 CURVE SMOOTH",
"316 51 OFFCURVE",
"351 25 OFFCURVE",
"374 -13 CURVE"
);
},
{
closed = 1;
nodes = (
"296 396 OFFCURVE",
"314 408 OFFCURVE",
"314 428 CURVE SMOOTH",
"314 452 OFFCURVE",
"283 479 OFFCURVE",
"245 479 CURVE SMOOTH",
"223 479 OFFCURVE",
"207 470 OFFCURVE",
"203 456 CURVE",
"201 452 OFFCURVE",
"201 450 OFFCURVE",
"201 447 CURVE SMOOTH",
"201 423 OFFCURVE",
"232 396 OFFCURVE",
"272 396 CURVE SMOOTH"
);
},
{
closed = 1;
nodes = (
"480 326 OFFCURVE",
"497 360 OFFCURVE",
"497 405 CURVE SMOOTH",
"497 454 OFFCURVE",
"480 478 OFFCURVE",
"446 499 CURVE",
"427 471 LINE",
"456 453 OFFCURVE",
"467 434 OFFCURVE",
"467 407 CURVE SMOOTH",
"467 383 OFFCURVE",
"460 356 OFFCURVE",
"429 333 CURVE",
"441 301 LINE"
);
},
{
closed = 1;
nodes = (
"189 588 LINE SMOOTH",
"173 589 OFFCURVE",
"168 597 OFFCURVE",
"168 610 CURVE SMOOTH",
"168 626 OFFCURVE",
"178 647 OFFCURVE",
"184 668 CURVE SMOOTH",
"207 750 OFFCURVE",
"215 802 OFFCURVE",
"227 897 CURVE SMOOTH",
"231 927 OFFCURVE",
"253 930 OFFCURVE",
"279 930 CURVE SMOOTH",
"564 930 LINE",
"585 858 OFFCURVE",
"590 765 OFFCURVE",
"599 690 CURVE SMOOTH",
"603 655 OFFCURVE",
"624 626 OFFCURVE",
"624 592 CURVE SMOOTH",
"624 585 OFFCURVE",
"624 574 OFFCURVE",
"603 575 CURVE SMOOTH"
);
}
);
width = 705;
}
);
unicode = 1440B;
},
{
glyphname = u1440C;
lastChange = "2017-06-15 15:44:51 +0000";
layers = (
{
layerId = UUID0;
paths = (
{
closed = 1;
nodes = (
"483 508 OFFCURVE",
"534 538 OFFCURVE",
"534 603 CURVE SMOOTH",
"534 668 OFFCURVE",
"495 654 OFFCURVE",
"481 723 CURVE",
"495 746 OFFCURVE",
"506 780 OFFCURVE",
"506 810 CURVE SMOOTH",
"506 881 OFFCURVE",
"444 970 OFFCURVE",
"314 970 CURVE SMOOTH",
"246 970 OFFCURVE",
"178 932 OFFCURVE",
"152 878 CURVE",
"156 873 LINE",
"127 834 OFFCURVE",
"50 759 OFFCURVE",
"50 719 CURVE SMOOTH",
"50 700 OFFCURVE",
"65 687 OFFCURVE",
"106 687 CURVE",
"127 624 OFFCURVE",
"91 525 OFFCURVE",
"206 525 CURVE SMOOTH",
"231 525 OFFCURVE",
"275 536 OFFCURVE",
"298 551 CURVE",
"328 521 OFFCURVE",
"378 508 OFFCURVE",
"411 508 CURVE SMOOTH"
);
},
{
closed = 1;
nodes = (
"281 130 LINE",
"281 248 LINE",
"255 244 LINE",
"255 129 LINE"
);
},
{
closed = 1;
nodes = (
"310 -57 LINE",
"382 -27 OFFCURVE",
"456 104 OFFCURVE",
"456 188 CURVE SMOOTH",
"456 233 OFFCURVE",
"422 266 OFFCURVE",
"422 323 CURVE SMOOTH",
"422 370 OFFCURVE",
"479 400 OFFCURVE",
"490 401 CURVE",
"502 431 LINE",
"477 457 OFFCURVE",
"443 463 OFFCURVE",
"410 463 CURVE SMOOTH",
"364 463 OFFCURVE",
"320 447 OFFCURVE",
"298 418 CURVE",
"276 447 OFFCURVE",
"232 463 OFFCURVE",
"186 463 CURVE SMOOTH",
"153 463 OFFCURVE",
"119 457 OFFCURVE",
"94 431 CURVE",
"106 401 LINE",
"117 400 OFFCURVE",
"174 370 OFFCURVE",
"174 323 CURVE SMOOTH",
"174 266 OFFCURVE",
"140 233 OFFCURVE",
"140 188 CURVE SMOOTH",
"140 104 OFFCURVE",
"214 -27 OFFCURVE",
"286 -57 CURVE"
);
},
{
closed = 1;
nodes = (
"232 8 OFFCURVE",
"170 102 OFFCURVE",
"170 189 CURVE SMOOTH",
"170 223 OFFCURVE",
"204 270 OFFCURVE",
"204 320 CURVE SMOOTH",
"204 363 OFFCURVE",
"169 406 OFFCURVE",
"128 422 CURVE",
"144 430 OFFCURVE",
"163 433 OFFCURVE",
"185 433 CURVE SMOOTH",
"228 433 OFFCURVE",
"281 416 OFFCURVE",
"282 380 CURVE",
"298 381 LINE",
"314 380 LINE",
"315 416 OFFCURVE",
"368 433 OFFCURVE",
"411 433 CURVE SMOOTH",
"433 433 OFFCURVE",
"452 430 OFFCURVE",
"468 422 CURVE",
"427 406 OFFCURVE",
"392 363 OFFCURVE",
"392 320 CURVE SMOOTH",
"392 270 OFFCURVE",
"426 223 OFFCURVE",
"426 189 CURVE SMOOTH",
"426 102 OFFCURVE",
"364 8 OFFCURVE",
"310 -33 CURVE",
"286 -33 LINE"
);
},
{
closed = 1;
nodes = (
"341 244 LINE",
"315 248 LINE",
"315 130 LINE",
"341 129 LINE"
);
},
{
closed = 1;
nodes = (
"152 556 OFFCURVE",
"147 580 OFFCURVE",
"144 618 CURVE",
"190 625 LINE",
"191 652 LINE",
"141 644 LINE",
"137 659 OFFCURVE",
"140 687 OFFCURVE",
"133 702 CURVE SMOOTH",
"123 724 OFFCURVE",
"93 714 OFFCURVE",
"76 721 CURVE",
"83 756 OFFCURVE",
"145 812 OFFCURVE",
"175 853 CURVE",
"283 733 LINE",
"292 735 OFFCURVE",
"306 740 OFFCURVE",
"318 740 CURVE SMOOTH",
"332 740 OFFCURVE",
"343 734 OFFCURVE",
"343 712 CURVE SMOOTH",
"343 685 OFFCURVE",
"270 668 OFFCURVE",
"270 617 CURVE SMOOTH",
"270 602 OFFCURVE",
"273 588 OFFCURVE",
"279 577 CURVE",
"260 566 OFFCURVE",
"225 556 OFFCURVE",
"209 556 CURVE SMOOTH"
);
},
{
closed = 1;
nodes = (
"190 744 OFFCURVE",
"200 751 OFFCURVE",
"200 762 CURVE SMOOTH",
"200 775 OFFCURVE",
"183 790 OFFCURVE",
"162 790 CURVE SMOOTH",
"150 790 OFFCURVE",
"140 784 OFFCURVE",
"139 777 CURVE",
"138 775 OFFCURVE",
"138 774 OFFCURVE",
"138 772 CURVE SMOOTH",
"138 759 OFFCURVE",
"155 744 OFFCURVE",
"177 744 CURVE SMOOTH"
);
},
{
closed = 1;
nodes = (
"391 538 OFFCURVE",
"300 552 OFFCURVE",
"300 612 CURVE SMOOTH",
"300 659 OFFCURVE",
"374 672 OFFCURVE",
"374 710 CURVE SMOOTH",
"374 747 OFFCURVE",
"355 766 OFFCURVE",
"324 766 CURVE SMOOTH",
"316 766 OFFCURVE",
"306 765 OFFCURVE",
"296 762 CURVE",
"279 796 OFFCURVE",
"193 867 OFFCURVE",
"190 882 CURVE",
"223 918 OFFCURVE",
"271 940 OFFCURVE",
"314 940 CURVE SMOOTH",
"420 940 OFFCURVE",
"474 865 OFFCURVE",
"474 809 CURVE SMOOTH",
"474 786 OFFCURVE",
"464 737 OFFCURVE",
"450 722 CURVE",
"453 665 OFFCURVE",
"500 651 OFFCURVE",
"500 609 CURVE SMOOTH",
"500 579 OFFCURVE",
"492 538 OFFCURVE",
"412 538 CURVE SMOOTH"
);
}
);
width = 584;
}
);
unicode = 1440C;
},
{
glyphname = u1440D;
lastChange = "2017-06-15 15:44:51 +0000";
layers = (
{
layerId = UUID0;
paths = (
{
closed = 1;
nodes = (
"846 -5 OFFCURVE",
"776 33 OFFCURVE",
"890 87 CURVE SMOOTH",
"934 108 OFFCURVE",
"997 129 OFFCURVE",
"1038 169 CURVE SMOOTH",
"1095 224 OFFCURVE",
"1113 302 OFFCURVE",
"1113 375 CURVE SMOOTH",
"1113 575 OFFCURVE",
"1021 720 OFFCURVE",
"819 720 CURVE SMOOTH",
"695 720 OFFCURVE",
"664 641 OFFCURVE",
"536 597 CURVE SMOOTH",
"427 560 LINE SMOOTH",
"369 540 OFFCURVE",
"257 528 OFFCURVE",
"257 452 CURVE SMOOTH",
"257 344 OFFCURVE",
"353 426 OFFCURVE",
"353 301 CURVE SMOOTH",
"353 267 LINE SMOOTH",
"353 258 OFFCURVE",
"354 249 OFFCURVE",
"356 241 CURVE",
"323 235 OFFCURVE",
"292 232 OFFCURVE",
"276 232 CURVE SMOOTH",
"230 232 OFFCURVE",
"180 252 OFFCURVE",
"133 252 CURVE SMOOTH",
"95 252 OFFCURVE",
"50 238 OFFCURVE",
"50 193 CURVE SMOOTH",
"50 128 OFFCURVE",
"145 119 OFFCURVE",
"235 119 CURVE SMOOTH",
"264 119 OFFCURVE",
"319 129 OFFCURVE",
"374 143 CURVE",
"367 130 OFFCURVE",
"360 116 OFFCURVE",
"360 97 CURVE SMOOTH",
"360 5 OFFCURVE",
"590 -5 OFFCURVE",
"712 -5 CURVE SMOOTH"
);
},
{
closed = 1;
nodes = (
"209 148 OFFCURVE",
"80 153 OFFCURVE",
"80 193 CURVE SMOOTH",
"80 219 OFFCURVE",
"118 224 OFFCURVE",
"140 224 CURVE SMOOTH",
"190 224 OFFCURVE",
"227 202 OFFCURVE",
"276 202 CURVE SMOOTH",
"302 202 OFFCURVE",
"336 207 OFFCURVE",
"369 214 CURVE",
"377 204 OFFCURVE",
"388 198 OFFCURVE",
"401 196 CURVE",
"400 190 OFFCURVE",
"398 185 OFFCURVE",
"396 180 CURVE",
"342 162 OFFCURVE",
"276 148 OFFCURVE",
"233 148 CURVE SMOOTH"
);
},
{
closed = 1;
nodes = (
"540 25 OFFCURVE",
"387 46 OFFCURVE",
"387 96 CURVE SMOOTH",
"387 128 OFFCURVE",
"432 168 OFFCURVE",
"432 198 CURVE SMOOTH",
"432 222 OFFCURVE",
"402 224 OFFCURVE",
"388 233 CURVE",
"384 249 OFFCURVE",
"383 266 OFFCURVE",
"383 283 CURVE SMOOTH",
"383 302 LINE SMOOTH",
"383 331 OFFCURVE",
"380 358 OFFCURVE",
"359 379 CURVE SMOOTH",
"330 408 OFFCURVE",
"284 398 OFFCURVE",
"284 448 CURVE SMOOTH",
"284 515 OFFCURVE",
"388 516 OFFCURVE",
"435 532 CURVE SMOOTH",
"548 570 LINE SMOOTH",
"692 618 OFFCURVE",
"696 690 OFFCURVE",
"822 690 CURVE SMOOTH",
"986 690 OFFCURVE",
"1083 562 OFFCURVE",
"1083 373 CURVE SMOOTH",
"1083 292 OFFCURVE",
"1063 240 OFFCURVE",
"1017 190 CURVE SMOOTH",
"973 142 OFFCURVE",
"903 128 OFFCURVE",
"846 100 CURVE SMOOTH",
"759 57 OFFCURVE",
"828 25 OFFCURVE",
"716 25 CURVE SMOOTH"
);
},
{
closed = 1;
nodes = (
"980 292 OFFCURVE",
"983 398 OFFCURVE",
"983 446 CURVE SMOOTH",
"983 494 OFFCURVE",
"961 534 OFFCURVE",
"915 534 CURVE SMOOTH",
"879 534 OFFCURVE",
"850 505 OFFCURVE",
"850 468 CURVE SMOOTH",
"850 432 OFFCURVE",
"879 403 OFFCURVE",
"915 403 CURVE SMOOTH",
"930 403 OFFCURVE",
"943 407 OFFCURVE",
"954 415 CURVE",
"953 361 OFFCURVE",
"928 305 OFFCURVE",
"883 286 CURVE",
"886 277 OFFCURVE",
"889 267 OFFCURVE",
"891 258 CURVE"
);
},
{
closed = 1;
nodes = (
"895 431 OFFCURVE",
"878 448 OFFCURVE",
"878 468 CURVE SMOOTH",
"878 490 OFFCURVE",
"895 507 OFFCURVE",
"915 507 CURVE SMOOTH",
"937 507 OFFCURVE",
"954 490 OFFCURVE",
"954 468 CURVE SMOOTH",
"954 448 OFFCURVE",
"937 431 OFFCURVE",
"915 431 CURVE SMOOTH"
);
}
);
width = 1163;
}
);
unicode = 1440D;
},
{
glyphname = u1440E;
lastChange = "2017-06-15 15:44:51 +0000";
layers = (
{
layerId = UUID0;
paths = (
{
closed = 1;
nodes = (
"662 -5 OFFCURVE",
"712 50 OFFCURVE",
"712 101 CURVE SMOOTH",
"712 179 OFFCURVE",
"620 168 OFFCURVE",
"563 204 CURVE",
"546 303 OFFCURVE",
"536 412 OFFCURVE",
"528 513 CURVE",
"542 509 OFFCURVE",
"556 508 OFFCURVE",
"567 508 CURVE SMOOTH",
"639 508 OFFCURVE",
"690 538 OFFCURVE",
"690 603 CURVE SMOOTH",
"690 668 OFFCURVE",
"651 654 OFFCURVE",
"637 723 CURVE",
"651 746 OFFCURVE",
"662 780 OFFCURVE",
"662 810 CURVE SMOOTH",
"662 881 OFFCURVE",
"600 970 OFFCURVE",
"470 970 CURVE SMOOTH",
"402 970 OFFCURVE",
"334 932 OFFCURVE",
"308 878 CURVE",
"312 873 LINE",
"283 834 OFFCURVE",
"206 759 OFFCURVE",
"206 719 CURVE SMOOTH",
"206 700 OFFCURVE",
"221 687 OFFCURVE",
"262 687 CURVE",
"265 678 OFFCURVE",
"267 669 OFFCURVE",
"268 659 CURVE",
"254 657 OFFCURVE",
"238 656 OFFCURVE",
"228 656 CURVE SMOOTH",
"177 656 OFFCURVE",
"138 685 OFFCURVE",
"89 685 CURVE SMOOTH",
"64 685 OFFCURVE",
"50 669 OFFCURVE",
"50 642 CURVE SMOOTH",
"50 586 OFFCURVE",
"135 563 OFFCURVE",
"192 563 CURVE SMOOTH",
"219 563 OFFCURVE",
"253 572 OFFCURVE",
"277 582 CURVE",
"285 550 OFFCURVE",
"304 526 OFFCURVE",
"360 525 CURVE",
"362 451 OFFCURVE",
"374 374 OFFCURVE",
"374 290 CURVE SMOOTH",
"374 217 OFFCURVE",
"352 157 OFFCURVE",
"352 95 CURVE SMOOTH",
"352 43 OFFCURVE",
"398 49 OFFCURVE",
"460 28 CURVE SMOOTH",
"499 15 OFFCURVE",
"572 -5 OFFCURVE",
"618 -5 CURVE SMOOTH"
);
},
{
closed = 1;
nodes = (
"143 593 OFFCURVE",
"80 608 OFFCURVE",
"80 643 CURVE SMOOTH",
"80 648 OFFCURVE",
"82 655 OFFCURVE",
"91 655 CURVE SMOOTH",
"140 655 OFFCURVE",
"169 626 OFFCURVE",
"221 626 CURVE SMOOTH",
"237 626 OFFCURVE",
"256 628 OFFCURVE",
"271 630 CURVE",
"271 623 OFFCURVE",
"272 616 OFFCURVE",
"272 609 CURVE",
"252 601 OFFCURVE",
"224 593 OFFCURVE",
"194 593 CURVE SMOOTH"
);
},
{
closed = 1;
nodes = (
"574 25 OFFCURVE",
"414 62 OFFCURVE",
"384 86 CURVE",
"384 141 OFFCURVE",
"404 198 OFFCURVE",
"404 292 CURVE SMOOTH",
"404 372 OFFCURVE",
"393 454 OFFCURVE",
"390 528 CURVE",
"412 532 OFFCURVE",
"438 541 OFFCURVE",
"454 551 CURVE",
"465 540 OFFCURVE",
"479 531 OFFCURVE",
"494 524 CURVE",
"532 181 LINE",
"576 134 OFFCURVE",
"681 162 OFFCURVE",
"681 95 CURVE SMOOTH",
"681 62 OFFCURVE",
"644 25 OFFCURVE",
"615 25 CURVE SMOOTH"
);
},
{
closed = 1;
nodes = (
"308 556 OFFCURVE",
"303 580 OFFCURVE",
"299 618 CURVE",
"344 625 LINE",
"345 652 LINE",
"297 644 LINE",
"293 659 OFFCURVE",
"297 685 OFFCURVE",
"289 702 CURVE SMOOTH",
"279 723 OFFCURVE",
"249 715 OFFCURVE",
"232 721 CURVE",
"239 756 OFFCURVE",
"301 812 OFFCURVE",
"331 853 CURVE",
"439 733 LINE",
"448 735 OFFCURVE",
"462 740 OFFCURVE",
"474 740 CURVE SMOOTH",
"488 740 OFFCURVE",
"499 734 OFFCURVE",
"499 712 CURVE SMOOTH",
"499 685 OFFCURVE",
"426 668 OFFCURVE",
"426 617 CURVE SMOOTH",
"426 602 OFFCURVE",
"429 588 OFFCURVE",
"435 577 CURVE",
"416 566 OFFCURVE",
"381 556 OFFCURVE",
"365 556 CURVE SMOOTH"
);
},
{
closed = 1;
nodes = (
"346 744 OFFCURVE",
"356 751 OFFCURVE",
"356 762 CURVE SMOOTH",
"356 775 OFFCURVE",
"339 790 OFFCURVE",
"318 790 CURVE SMOOTH",
"306 790 OFFCURVE",
"297 785 OFFCURVE",
"295 777 CURVE",
"294 775 OFFCURVE",
"294 774 OFFCURVE",
"294 772 CURVE SMOOTH",
"294 759 OFFCURVE",
"311 744 OFFCURVE",
"333 744 CURVE SMOOTH"
);
},
{
closed = 1;
nodes = (
"547 538 OFFCURVE",
"456 552 OFFCURVE",
"456 612 CURVE SMOOTH",
"456 659 OFFCURVE",
"530 672 OFFCURVE",
"530 710 CURVE SMOOTH",
"530 747 OFFCURVE",
"511 766 OFFCURVE",
"480 766 CURVE SMOOTH",
"472 766 OFFCURVE",
"462 765 OFFCURVE",
"452 762 CURVE",
"435 796 OFFCURVE",
"349 867 OFFCURVE",
"346 882 CURVE",
"379 918 OFFCURVE",
"427 940 OFFCURVE",
"470 940 CURVE SMOOTH",
"576 940 OFFCURVE",
"630 865 OFFCURVE",
"630 809 CURVE SMOOTH",
"630 786 OFFCURVE",
"620 737 OFFCURVE",
"606 722 CURVE",
"609 665 OFFCURVE",
"656 651 OFFCURVE",
"656 609 CURVE SMOOTH",
"656 579 OFFCURVE",
"648 538 OFFCURVE",
"568 538 CURVE SMOOTH"
);
}
);
width = 762;
}
);
unicode = 1440E;
},
{
glyphname = u1440F;
lastChange = "2017-06-15 15:44:51 +0000";
layers = (
{
layerId = UUID0;
paths = (
{
closed = 1;
nodes = (
"354 -30 OFFCURVE",
"473 19 OFFCURVE",
"529 57 CURVE",
"572 9 OFFCURVE",
"621 -30 OFFCURVE",
"659 -30 CURVE SMOOTH",
"788 -30 OFFCURVE",
"832 159 OFFCURVE",
"832 271 CURVE SMOOTH",
"832 306 OFFCURVE",
"827 335 OFFCURVE",
"819 352 CURVE",
"500 429 OFFCURVE",
"529 860 OFFCURVE",
"407 860 CURVE SMOOTH",
"348 860 OFFCURVE",
"255 665 OFFCURVE",
"199 571 CURVE",
"200 570 LINE",
"135 463 OFFCURVE",
"50 405 OFFCURVE",
"50 346 CURVE SMOOTH",
"50 316 OFFCURVE",
"75 310 OFFCURVE",
"150 310 CURVE",
"159 300 OFFCURVE",
"160 277 OFFCURVE",
"160 255 CURVE SMOOTH",
"160 233 OFFCURVE",
"150 182 OFFCURVE",
"150 138 CURVE SMOOTH",
"150 117 OFFCURVE",
"154 91 OFFCURVE",
"171 87 CURVE SMOOTH",
"281 61 OFFCURVE",
"277 25 OFFCURVE",
"294 -33 CURVE"
);
},
{
closed = 1;
nodes = (
"301 72 OFFCURVE",
"270 91 OFFCURVE",
"193 111 CURVE",
"183 114 OFFCURVE",
"180 129 OFFCURVE",
"180 141 CURVE SMOOTH",
"180 155 OFFCURVE",
"182 171 OFFCURVE",
"184 188 CURVE",
"209 188 OFFCURVE",
"234 189 OFFCURVE",
"259 189 CURVE",
"261 219 LINE",
"237 219 OFFCURVE",
"212 218 OFFCURVE",
"187 218 CURVE",
"189 234 OFFCURVE",
"190 251 OFFCURVE",
"190 266 CURVE SMOOTH",
"190 284 OFFCURVE",
"189 301 OFFCURVE",
"183 314 CURVE SMOOTH",
"164 355 OFFCURVE",
"114 335 OFFCURVE",
"83 350 CURVE",
"93 410 OFFCURVE",
"178 472 OFFCURVE",
"227 558 CURVE",
"396 482 LINE SMOOTH",
"421 471 OFFCURVE",
"425 450 OFFCURVE",
"425 411 CURVE SMOOTH",
"425 358 LINE",
"450 358 OFFCURVE",
"508 356 OFFCURVE",
"508 316 CURVE SMOOTH",
"508 267 OFFCURVE",
"425 265 OFFCURVE",
"425 215 CURVE SMOOTH",
"425 197 OFFCURVE",
"461 137 OFFCURVE",
"508 80 CURVE",
"462 50 OFFCURVE",
"369 4 OFFCURVE",
"315 4 CURVE"
);
},
{
closed = 1;
nodes = (
"285 421 OFFCURVE",
"301 430 OFFCURVE",
"301 445 CURVE SMOOTH",
"301 463 OFFCURVE",
"274 483 OFFCURVE",
"239 483 CURVE SMOOTH",
"220 483 OFFCURVE",
"205 477 OFFCURVE",
"202 466 CURVE",
"200 463 OFFCURVE",
"200 462 OFFCURVE",
"200 459 CURVE SMOOTH",
"200 441 OFFCURVE",
"227 421 OFFCURVE",
"264 421 CURVE SMOOTH"
);
},
{
closed = 1;
nodes = (
"607 0 OFFCURVE",
"455 173 OFFCURVE",
"455 215 CURVE SMOOTH",
"455 248 OFFCURVE",
"538 243 OFFCURVE",
"538 316 CURVE SMOOTH",
"538 355 OFFCURVE",
"505 384 OFFCURVE",
"455 384 CURVE",
"455 443 LINE SMOOTH",
"455 467 OFFCURVE",
"447 492 OFFCURVE",
"418 505 CURVE SMOOTH",
"238 584 LINE",
"290 666 OFFCURVE",
"369 830 OFFCURVE",
"410 830 CURVE SMOOTH",
"490 830 OFFCURVE",
"481 426 OFFCURVE",
"796 328 CURVE",
"800 313 OFFCURVE",
"802 294 OFFCURVE",
"802 274 CURVE SMOOTH",
"802 171 OFFCURVE",
"753 0 OFFCURVE",
"659 0 CURVE SMOOTH"
);
}
);
width = 882;
}
);
unicode = 1440F;
},
{
glyphname = u14410;
lastChange = "2017-06-15 15:44:51 +0000";
layers = (
{
layerId = UUID0;
paths = (
{
closed = 1;
nodes = (
"374 -30 OFFCURVE",
"493 19 OFFCURVE",
"549 57 CURVE",
"592 9 OFFCURVE",
"641 -30 OFFCURVE",
"679 -30 CURVE SMOOTH",
"808 -30 OFFCURVE",
"852 159 OFFCURVE",
"852 271 CURVE SMOOTH",
"852 306 OFFCURVE",
"847 335 OFFCURVE",
"839 352 CURVE",
"520 429 OFFCURVE",
"549 860 OFFCURVE",
"427 860 CURVE SMOOTH",
"368 860 OFFCURVE",
"275 665 OFFCURVE",
"219 571 CURVE",
"220 570 LINE",
"155 463 OFFCURVE",
"70 405 OFFCURVE",
"70 346 CURVE SMOOTH",
"70 316 OFFCURVE",
"95 310 OFFCURVE",
"170 310 CURVE",
"179 300 OFFCURVE",
"180 277 OFFCURVE",
"180 255 CURVE SMOOTH",
"180 233 OFFCURVE",
"170 182 OFFCURVE",
"170 138 CURVE SMOOTH",
"170 117 OFFCURVE",
"174 91 OFFCURVE",
"191 87 CURVE SMOOTH",
"301 61 OFFCURVE",
"297 25 OFFCURVE",
"314 -33 CURVE"
);
},
{
closed = 1;
nodes = (
"321 72 OFFCURVE",
"289 88 OFFCURVE",
"213 111 CURVE SMOOTH",
"203 114 OFFCURVE",
"200 129 OFFCURVE",
"200 141 CURVE SMOOTH",
"200 155 OFFCURVE",
"202 171 OFFCURVE",
"204 188 CURVE",
"229 188 OFFCURVE",
"254 189 OFFCURVE",
"279 189 CURVE",
"281 219 LINE",
"257 219 OFFCURVE",
"232 218 OFFCURVE",
"207 218 CURVE",
"209 234 OFFCURVE",
"210 251 OFFCURVE",
"210 266 CURVE SMOOTH",
"210 284 OFFCURVE",
"209 301 OFFCURVE",
"203 314 CURVE SMOOTH",
"184 355 OFFCURVE",
"134 335 OFFCURVE",
"103 350 CURVE",
"113 410 OFFCURVE",
"198 472 OFFCURVE",
"247 558 CURVE",
"415 483 LINE SMOOTH",
"440 472 OFFCURVE",
"445 450 OFFCURVE",
"445 411 CURVE SMOOTH",
"445 358 LINE",
"470 358 OFFCURVE",
"528 356 OFFCURVE",
"528 316 CURVE SMOOTH",
"528 267 OFFCURVE",
"445 265 OFFCURVE",
"445 215 CURVE SMOOTH",
"445 197 OFFCURVE",
"481 137 OFFCURVE",
"528 80 CURVE",
"482 50 OFFCURVE",
"389 4 OFFCURVE",
"335 4 CURVE"
);
},
{
closed = 1;
nodes = (
"305 421 OFFCURVE",
"321 430 OFFCURVE",
"321 445 CURVE SMOOTH",
"321 463 OFFCURVE",
"294 483 OFFCURVE",
"259 483 CURVE SMOOTH",
"240 483 OFFCURVE",
"225 477 OFFCURVE",
"222 466 CURVE",
"220 463 OFFCURVE",
"220 462 OFFCURVE",
"220 459 CURVE SMOOTH",
"220 441 OFFCURVE",
"247 421 OFFCURVE",
"284 421 CURVE SMOOTH"
);
},
{
closed = 1;
nodes = (
"627 0 OFFCURVE",
"475 173 OFFCURVE",
"475 215 CURVE SMOOTH",
"475 248 OFFCURVE",
"558 243 OFFCURVE",
"558 316 CURVE SMOOTH",
"558 355 OFFCURVE",
"525 384 OFFCURVE",
"475 384 CURVE",
"475 443 LINE SMOOTH",
"475 467 OFFCURVE",
"467 492 OFFCURVE",
"438 505 CURVE SMOOTH",
"258 584 LINE",
"310 666 OFFCURVE",
"389 830 OFFCURVE",
"430 830 CURVE SMOOTH",
"510 830 OFFCURVE",
"501 426 OFFCURVE",
"816 328 CURVE",
"820 313 OFFCURVE",
"822 294 OFFCURVE",
"822 274 CURVE SMOOTH",
"822 171 OFFCURVE",
"773 0 OFFCURVE",
"679 0 CURVE SMOOTH"
);
},
{
closed = 1;
nodes = (
"236 678 OFFCURVE",
"274 724 OFFCURVE",
"274 770 CURVE SMOOTH",
"274 821 OFFCURVE",
"242 840 OFFCURVE",
"216 840 CURVE SMOOTH",
"208 840 OFFCURVE",
"201 838 OFFCURVE",
"194 835 CURVE",
"228 881 OFFCURVE",
"331 894 OFFCURVE",
"386 894 CURVE SMOOTH",
"444 894 LINE SMOOTH",
"499 894 OFFCURVE",
"602 881 OFFCURVE",
"636 835 CURVE",
"629 838 OFFCURVE",
"622 840 OFFCURVE",
"614 840 CURVE SMOOTH",
"588 840 OFFCURVE",
"556 821 OFFCURVE",
"556 770 CURVE SMOOTH",
"556 724 OFFCURVE",
"594 678 OFFCURVE",
"668 678 CURVE SMOOTH",
"725 678 OFFCURVE",
"777 720 OFFCURVE",
"777 794 CURVE SMOOTH",
"777 936 OFFCURVE",
"608 1013 OFFCURVE",
"442 1013 CURVE SMOOTH",
"388 1013 LINE SMOOTH",
"222 1013 OFFCURVE",
"53 936 OFFCURVE",
"53 794 CURVE SMOOTH",
"53 720 OFFCURVE",
"105 678 OFFCURVE",
"162 678 CURVE SMOOTH"
);
},
{
closed = 1;
nodes = (
"126 708 OFFCURVE",
"83 733 OFFCURVE",
"83 792 CURVE SMOOTH",
"83 913 OFFCURVE",
"230 983 OFFCURVE",
"388 983 CURVE SMOOTH",
"442 983 LINE SMOOTH",
"600 983 OFFCURVE",
"747 913 OFFCURVE",
"747 792 CURVE SMOOTH",
"747 733 OFFCURVE",
"704 708 OFFCURVE",
"667 708 CURVE SMOOTH",
"629 708 OFFCURVE",
"587 727 OFFCURVE",
"587 772 CURVE SMOOTH",
"587 793 OFFCURVE",
"596 810 OFFCURVE",
"617 810 CURVE SMOOTH",
"634 810 OFFCURVE",
"646 803 OFFCURVE",
"646 776 CURVE",
"671 776 LINE",
"674 784 OFFCURVE",
"675 791 OFFCURVE",
"675 799 CURVE SMOOTH",
"675 874 OFFCURVE",
"579 924 OFFCURVE",
"439 924 CURVE SMOOTH",
"391 924 LINE SMOOTH",
"251 924 OFFCURVE",
"155 874 OFFCURVE",
"155 799 CURVE SMOOTH",
"155 791 OFFCURVE",
"156 784 OFFCURVE",
"159 776 CURVE",
"184 776 LINE",
"184 803 OFFCURVE",
"196 810 OFFCURVE",
"213 810 CURVE SMOOTH",
"234 810 OFFCURVE",
"243 793 OFFCURVE",
"243 772 CURVE SMOOTH",
"243 727 OFFCURVE",
"201 708 OFFCURVE",
"163 708 CURVE SMOOTH"
);
}
);
width = 902;
}
);
unicode = 14410;
},
{
glyphname = u14411;
lastChange = "2017-06-15 15:44:51 +0000";
layers = (
{
layerId = UUID0;
paths = (
{
closed = 1;
nodes = (
"490 0 LINE",
"490 31 LINE",
"290 800 LINE",
"251 800 LINE",
"50 31 LINE",
"50 0 LINE"
);
},
{
closed = 1;
nodes = (
"134 220 LINE",
"255 220 LINE",
"255 30 LINE",
"83 30 LINE"
);
},
{
closed = 1;
nodes = (
"285 220 LINE",
"406 220 LINE",
"457 30 LINE",
"285 30 LINE"
);
},
{
closed = 1;
nodes = (
"255 670 LINE",
"255 250 LINE",
"142 250 LINE"
);
},
{
closed = 1;
nodes = (
"285 673 LINE",
"398 250 LINE",
"285 250 LINE"
);
}
);
width = 540;
}
);
unicode = 14411;
},
{
glyphname = u14412;
lastChange = "2017-06-15 15:44:51 +0000";
layers = (
{
layerId = UUID0;
paths = (
{
closed = 1;
nodes = (
"635 0 LINE",
"635 31 LINE",
"435 800 LINE",
"396 800 LINE",
"195 31 LINE",
"195 0 LINE"
);
},
{
closed = 1;
nodes = (
"279 220 LINE",
"400 220 LINE",
"400 30 LINE",
"228 30 LINE"
);
},
{
closed = 1;
nodes = (
"430 220 LINE",
"551 220 LINE",
"602 30 LINE",
"430 30 LINE"
);
},
{
closed = 1;
nodes = (
"400 670 LINE",
"400 250 LINE",
"287 250 LINE"
);
},
{
closed = 1;
nodes = (
"430 673 LINE",
"543 250 LINE",
"430 250 LINE"
);
},
{
closed = 1;
nodes = (
"233 678 OFFCURVE",
"271 724 OFFCURVE",
"271 770 CURVE SMOOTH",
"271 821 OFFCURVE",
"239 840 OFFCURVE",
"213 840 CURVE SMOOTH",
"205 840 OFFCURVE",
"198 838 OFFCURVE",
"191 835 CURVE",
"225 881 OFFCURVE",
"328 894 OFFCURVE",
"383 894 CURVE SMOOTH",
"441 894 LINE SMOOTH",
"496 894 OFFCURVE",
"599 881 OFFCURVE",
"633 835 CURVE",
"626 838 OFFCURVE",
"619 840 OFFCURVE",
"611 840 CURVE SMOOTH",
"585 840 OFFCURVE",
"553 821 OFFCURVE",
"553 770 CURVE SMOOTH",
"553 724 OFFCURVE",
"591 678 OFFCURVE",
"665 678 CURVE SMOOTH",
"722 678 OFFCURVE",
"774 720 OFFCURVE",
"774 794 CURVE SMOOTH",
"774 936 OFFCURVE",
"605 1013 OFFCURVE",
"439 1013 CURVE SMOOTH",
"385 1013 LINE SMOOTH",
"219 1013 OFFCURVE",
"50 936 OFFCURVE",
"50 794 CURVE SMOOTH",
"50 720 OFFCURVE",
"102 678 OFFCURVE",
"159 678 CURVE SMOOTH"
);
},
{
closed = 1;
nodes = (
"123 708 OFFCURVE",
"80 733 OFFCURVE",
"80 792 CURVE SMOOTH",
"80 913 OFFCURVE",
"227 983 OFFCURVE",
"385 983 CURVE SMOOTH",
"439 983 LINE SMOOTH",
"597 983 OFFCURVE",
"744 913 OFFCURVE",
"744 792 CURVE SMOOTH",
"744 733 OFFCURVE",
"701 708 OFFCURVE",
"664 708 CURVE SMOOTH",
"626 708 OFFCURVE",
"584 727 OFFCURVE",
"584 772 CURVE SMOOTH",
"584 793 OFFCURVE",
"593 810 OFFCURVE",
"614 810 CURVE SMOOTH",
"631 810 OFFCURVE",
"643 803 OFFCURVE",
"643 776 CURVE",
"668 776 LINE",
"671 784 OFFCURVE",
"672 791 OFFCURVE",
"672 799 CURVE SMOOTH",
"672 874 OFFCURVE",
"576 924 OFFCURVE",
"436 924 CURVE SMOOTH",
"388 924 LINE SMOOTH",
"248 924 OFFCURVE",
"152 874 OFFCURVE",
"152 799 CURVE SMOOTH",
"152 791 OFFCURVE",
"153 784 OFFCURVE",
"156 776 CURVE",
"181 776 LINE",
"181 803 OFFCURVE",
"193 810 OFFCURVE",
"210 810 CURVE SMOOTH",
"231 810 OFFCURVE",
"240 793 OFFCURVE",
"240 772 CURVE SMOOTH",
"240 727 OFFCURVE",
"198 708 OFFCURVE",
"160 708 CURVE SMOOTH"
);
}
);
width = 824;
}
);
unicode = 14412;
},
{
glyphname = u14413;
lastChange = "2017-06-15 15:44:51 +0000";
layers = (
{
layerId = UUID0;
paths = (
{
closed = 1;
nodes = (
"261 33 OFFCURVE",
"283 110 OFFCURVE",
"283 187 CURVE SMOOTH",
"283 259 OFFCURVE",
"178 252 OFFCURVE",
"178 294 CURVE SMOOTH",
"178 338 OFFCURVE",
"184 333 OFFCURVE",
"220 371 CURVE",
"220 404 OFFCURVE",
"168 402 OFFCURVE",
"168 430 CURVE SMOOTH",
"168 443 OFFCURVE",
"173 472 OFFCURVE",
"173 484 CURVE SMOOTH",
"173 530 OFFCURVE",
"80 504 OFFCURVE",
"80 540 CURVE SMOOTH",
"80 559 OFFCURVE",
"92 570 OFFCURVE",
"97 574 CURVE",
"202 676 LINE SMOOTH",
"235 708 OFFCURVE",
"292 783 OFFCURVE",
"332 812 CURVE",
"319 837 LINE",
"252 789 OFFCURVE",
"222 735 OFFCURVE",
"162 678 CURVE SMOOTH",
"85 604 LINE SMOOTH",
"59 579 OFFCURVE",
"50 557 OFFCURVE",
"50 537 CURVE SMOOTH",
"50 484 OFFCURVE",
"144 499 OFFCURVE",
"144 479 CURVE SMOOTH",
"144 460 OFFCURVE",
"140 425 OFFCURVE",
"140 413 CURVE SMOOTH",
"140 394 OFFCURVE",
"171 381 OFFCURVE",
"189 375 CURVE",
"150 350 OFFCURVE",
"149 329 OFFCURVE",
"149 296 CURVE SMOOTH",
"149 236 OFFCURVE",
"252 240 OFFCURVE",
"252 181 CURVE SMOOTH",
"252 96 OFFCURVE",
"222 34 OFFCURVE",
"189 -7 CURVE",
"213 -25 LINE"
);
}
);
width = 432;
}
);
unicode = 14413;
},
{
glyphname = u14414;
lastChange = "2017-06-15 15:44:51 +0000";
layers = (
{
layerId = UUID0;
paths = (
{
closed = 1;
nodes = (
"261 33 OFFCURVE",
"283 110 OFFCURVE",
"283 187 CURVE SMOOTH",
"283 259 OFFCURVE",
"178 252 OFFCURVE",
"178 294 CURVE SMOOTH",
"178 312 OFFCURVE",
"179 323 OFFCURVE",
"184 332 CURVE SMOOTH",
"193 348 OFFCURVE",
"206 354 OFFCURVE",
"220 371 CURVE",
"220 404 OFFCURVE",
"168 402 OFFCURVE",
"168 430 CURVE SMOOTH",
"168 443 OFFCURVE",
"173 472 OFFCURVE",
"173 484 CURVE SMOOTH",
"173 530 OFFCURVE",
"80 504 OFFCURVE",
"80 540 CURVE SMOOTH",
"80 559 OFFCURVE",
"92 570 OFFCURVE",
"97 574 CURVE",
"202 676 LINE SMOOTH",
"235 708 OFFCURVE",
"292 783 OFFCURVE",
"332 812 CURVE",
"319 837 LINE",
"264 797 OFFCURVE",
"234 754 OFFCURVE",
"191 708 CURVE",
"191 1032 LINE SMOOTH",
"191 1078 OFFCURVE",
"211 1090 OFFCURVE",
"230 1090 CURVE SMOOTH",
"249 1090 OFFCURVE",
"267 1079 OFFCURVE",
"267 1030 CURVE SMOOTH",
"267 984 LINE",
"297 984 LINE",
"297 1030 LINE SMOOTH",
"297 1102 OFFCURVE",
"267 1120 OFFCURVE",
"232 1120 CURVE SMOOTH",
"199 1120 OFFCURVE",
"161 1104 OFFCURVE",
"161 1032 CURVE SMOOTH",
"161 677 LINE",
"85 604 LINE SMOOTH",
"59 579 OFFCURVE",
"50 557 OFFCURVE",
"50 537 CURVE SMOOTH",
"50 484 OFFCURVE",
"144 499 OFFCURVE",
"144 479 CURVE SMOOTH",
"144 460 OFFCURVE",
"140 425 OFFCURVE",
"140 413 CURVE SMOOTH",
"140 394 OFFCURVE",
"171 381 OFFCURVE",
"189 375 CURVE",
"150 350 OFFCURVE",
"149 329 OFFCURVE",
"149 296 CURVE SMOOTH",
"149 236 OFFCURVE",
"252 240 OFFCURVE",
"252 181 CURVE SMOOTH",
"252 96 OFFCURVE",
"222 34 OFFCURVE",
"189 -7 CURVE",
"213 -25 LINE"
);
},
{
closed = 1;
nodes = (
"293 597 OFFCURVE",
"308 605 OFFCURVE",
"308 618 CURVE SMOOTH",
"308 634 OFFCURVE",
"283 652 OFFCURVE",
"252 652 CURVE SMOOTH",
"235 652 OFFCURVE",
"222 646 OFFCURVE",
"219 637 CURVE",
"217 634 OFFCURVE",
"217 633 OFFCURVE",
"217 631 CURVE SMOOTH",
"217 615 OFFCURVE",
"242 597 OFFCURVE",
"274 597 CURVE SMOOTH"
);
},
{
closed = 1;
nodes = (
"375 660 LINE",
"354 688 OFFCURVE",
"314 701 OFFCURVE",
"261 705 CURVE",
"259 675 LINE",
"300 673 OFFCURVE",
"333 661 OFFCURVE",
"360 637 CURVE"
);
}
);
width = 475;
}
);
unicode = 14414;
},
{
glyphname = u14415;
lastChange = "2017-06-15 15:44:51 +0000";
layers = (
{
layerId = UUID0;
paths = (
{
closed = 1;
nodes = (
"302 -48 OFFCURVE",
"357 -42 OFFCURVE",
"392 -25 CURVE",
"438 54 OFFCURVE",
"457 140 OFFCURVE",
"457 230 CURVE SMOOTH",
"457 303 OFFCURVE",
"423 373 OFFCURVE",
"423 434 CURVE SMOOTH",
"423 510 OFFCURVE",
"491 559 OFFCURVE",
"491 626 CURVE SMOOTH",
"491 670 OFFCURVE",
"431 702 OFFCURVE",
"424 747 CURVE SMOOTH",
"414 808 LINE SMOOTH",
"411 825 OFFCURVE",
"403 855 OFFCURVE",
"365 855 CURVE SMOOTH",
"305 855 OFFCURVE",
"202 716 OFFCURVE",
"162 678 CURVE SMOOTH",
"85 604 LINE SMOOTH",
"59 579 OFFCURVE",
"50 557 OFFCURVE",
"50 537 CURVE SMOOTH",
"50 484 OFFCURVE",
"144 499 OFFCURVE",
"144 479 CURVE SMOOTH",
"144 460 OFFCURVE",
"140 425 OFFCURVE",
"140 413 CURVE SMOOTH",
"140 394 OFFCURVE",
"171 381 OFFCURVE",
"189 375 CURVE",
"150 350 OFFCURVE",
"149 329 OFFCURVE",
"149 296 CURVE SMOOTH",
"149 236 OFFCURVE",
"252 240 OFFCURVE",
"252 181 CURVE SMOOTH",
"252 96 OFFCURVE",
"222 34 OFFCURVE",
"189 -7 CURVE",
"191 -44 LINE",
"208 -46 OFFCURVE",
"230 -48 OFFCURVE",
"255 -48 CURVE SMOOTH"
);
},
{
closed = 1;
nodes = (
"241 -18 OFFCURVE",
"228 -17 OFFCURVE",
"217 -16 CURVE",
"262 41 OFFCURVE",
"283 112 OFFCURVE",
"283 187 CURVE SMOOTH",
"283 259 OFFCURVE",
"178 252 OFFCURVE",
"178 294 CURVE SMOOTH",
"178 338 OFFCURVE",
"184 333 OFFCURVE",
"220 371 CURVE",
"220 404 OFFCURVE",
"168 402 OFFCURVE",
"168 430 CURVE SMOOTH",
"168 443 OFFCURVE",
"173 472 OFFCURVE",
"173 484 CURVE SMOOTH",
"173 530 OFFCURVE",
"80 504 OFFCURVE",
"80 540 CURVE SMOOTH",
"80 559 OFFCURVE",
"92 570 OFFCURVE",
"97 574 CURVE",
"202 676 LINE SMOOTH",
"238 711 OFFCURVE",
"316 826 OFFCURVE",
"364 826 CURVE SMOOTH",
"378 826 OFFCURVE",
"383 819 OFFCURVE",
"384 810 CURVE SMOOTH",
"394 738 LINE SMOOTH",
"400 692 OFFCURVE",
"463 670 OFFCURVE",
"463 622 CURVE SMOOTH",
"463 558 OFFCURVE",
"395 514 OFFCURVE",
"395 445 CURVE SMOOTH",
"395 373 OFFCURVE",
"427 304 OFFCURVE",
"427 229 CURVE SMOOTH",
"427 161 OFFCURVE",
"418 97 OFFCURVE",
"375 3 CURVE",
"341 -14 OFFCURVE",
"294 -18 OFFCURVE",
"256 -18 CURVE SMOOTH"
);
},
{
closed = 1;
nodes = (
"293 597 OFFCURVE",
"308 605 OFFCURVE",
"308 618 CURVE SMOOTH",
"308 634 OFFCURVE",
"283 652 OFFCURVE",
"252 652 CURVE SMOOTH",
"235 652 OFFCURVE",
"222 646 OFFCURVE",
"219 637 CURVE",
"217 634 OFFCURVE",
"217 633 OFFCURVE",
"217 631 CURVE SMOOTH",
"217 615 OFFCURVE",
"242 597 OFFCURVE",
"274 597 CURVE SMOOTH"
);
},
{
closed = 1;
nodes = (
"375 660 LINE",
"354 688 OFFCURVE",
"314 701 OFFCURVE",
"261 705 CURVE",
"259 675 LINE",
"300 673 OFFCURVE",
"333 661 OFFCURVE",
"360 637 CURVE"
);
},
{
closed = 1;
nodes = (
"692 344 LINE",
"692 462 LINE",
"666 458 LINE",
"666 343 LINE"
);
},
{
closed = 1;
nodes = (
"721 107 LINE",
"793 137 OFFCURVE",
"867 368 OFFCURVE",
"867 452 CURVE SMOOTH",
"867 497 OFFCURVE",
"833 530 OFFCURVE",
"833 587 CURVE SMOOTH",
"833 634 OFFCURVE",
"890 664 OFFCURVE",
"901 665 CURVE",
"913 695 LINE",
"888 721 OFFCURVE",
"854 727 OFFCURVE",
"821 727 CURVE SMOOTH",
"775 727 OFFCURVE",
"731 711 OFFCURVE",
"709 682 CURVE",
"687 711 OFFCURVE",
"643 727 OFFCURVE",
"597 727 CURVE SMOOTH",
"564 727 OFFCURVE",
"530 721 OFFCURVE",
"505 695 CURVE",
"517 665 LINE",
"528 664 OFFCURVE",
"585 634 OFFCURVE",
"585 587 CURVE SMOOTH",
"585 530 OFFCURVE",
"551 497 OFFCURVE",
"551 452 CURVE SMOOTH",
"551 368 OFFCURVE",
"625 137 OFFCURVE",
"697 107 CURVE"
);
},
{
closed = 1;
nodes = (
"643 172 OFFCURVE",
"581 366 OFFCURVE",
"581 453 CURVE SMOOTH",
"581 487 OFFCURVE",
"615 534 OFFCURVE",
"615 584 CURVE SMOOTH",
"615 627 OFFCURVE",
"580 670 OFFCURVE",
"539 686 CURVE",
"555 694 OFFCURVE",
"574 697 OFFCURVE",
"596 697 CURVE SMOOTH",
"639 697 OFFCURVE",
"692 680 OFFCURVE",
"693 644 CURVE",
"709 645 LINE",
"725 644 LINE",
"726 680 OFFCURVE",
"779 697 OFFCURVE",
"822 697 CURVE SMOOTH",
"844 697 OFFCURVE",
"863 694 OFFCURVE",
"879 686 CURVE",
"838 670 OFFCURVE",
"803 627 OFFCURVE",
"803 584 CURVE SMOOTH",
"803 534 OFFCURVE",
"837 487 OFFCURVE",
"837 453 CURVE SMOOTH",
"837 366 OFFCURVE",
"775 172 OFFCURVE",
"721 131 CURVE",
"697 131 LINE"
);
},
{
closed = 1;
nodes = (
"752 458 LINE",
"726 462 LINE",
"726 344 LINE",
"752 343 LINE"
);
}
);
width = 963;
}
);
unicode = 14415;
},
{
glyphname = u14416;
lastChange = "2017-06-15 15:44:51 +0000";
layers = (
{
layerId = UUID0;
paths = (
{
closed = 1;
nodes = (
"410 -48 OFFCURVE",
"465 -42 OFFCURVE",
"500 -25 CURVE",
"546 54 OFFCURVE",
"565 140 OFFCURVE",
"565 230 CURVE SMOOTH",
"565 303 OFFCURVE",
"531 373 OFFCURVE",
"531 434 CURVE SMOOTH",
"531 510 OFFCURVE",
"599 559 OFFCURVE",
"599 626 CURVE SMOOTH",
"599 670 OFFCURVE",
"539 702 OFFCURVE",
"532 747 CURVE SMOOTH",
"522 808 LINE SMOOTH",
"519 825 OFFCURVE",
"511 855 OFFCURVE",
"473 855 CURVE SMOOTH",
"413 855 OFFCURVE",
"310 716 OFFCURVE",
"270 678 CURVE SMOOTH",
"193 604 LINE SMOOTH",
"167 579 OFFCURVE",
"158 557 OFFCURVE",
"158 537 CURVE SMOOTH",
"158 484 OFFCURVE",
"252 499 OFFCURVE",
"252 479 CURVE SMOOTH",
"252 462 OFFCURVE",
"249 431 OFFCURVE",
"248 416 CURVE",
"161 408 OFFCURVE",
"50 383 OFFCURVE",
"50 316 CURVE SMOOTH",
"50 281 OFFCURVE",
"82 270 OFFCURVE",
"100 270 CURVE SMOOTH",
"136 270 OFFCURVE",
"180 313 OFFCURVE",
"213 323 CURVE SMOOTH",
"229 328 OFFCURVE",
"246 333 OFFCURVE",
"262 337 CURVE",
"257 325 OFFCURVE",
"257 312 OFFCURVE",
"257 296 CURVE SMOOTH",
"257 236 OFFCURVE",
"360 240 OFFCURVE",
"360 181 CURVE SMOOTH",
"360 96 OFFCURVE",
"330 34 OFFCURVE",
"297 -7 CURVE",
"299 -44 LINE",
"316 -46 OFFCURVE",
"338 -48 OFFCURVE",
"363 -48 CURVE SMOOTH"
);
},
{
closed = 1;
nodes = (
"85 300 OFFCURVE",
"78 307 OFFCURVE",
"78 318 CURVE SMOOTH",
"78 367 OFFCURVE",
"182 387 OFFCURVE",
"258 395 CURVE",
"269 385 OFFCURVE",
"286 379 OFFCURVE",
"297 375 CURVE",
"292 372 OFFCURVE",
"288 369 OFFCURVE",
"284 366 CURVE",
"259 363 OFFCURVE",
"234 357 OFFCURVE",
"210 349 CURVE SMOOTH",
"176 338 OFFCURVE",
"134 300 OFFCURVE",
"105 300 CURVE SMOOTH"
);
},
{
closed = 1;
nodes = (
"349 -18 OFFCURVE",
"336 -17 OFFCURVE",
"325 -16 CURVE",
"370 41 OFFCURVE",
"391 112 OFFCURVE",
"391 187 CURVE SMOOTH",
"391 259 OFFCURVE",
"286 252 OFFCURVE",
"286 294 CURVE SMOOTH",
"286 338 OFFCURVE",
"295 338 OFFCURVE",
"328 371 CURVE",
"328 404 OFFCURVE",
"276 402 OFFCURVE",
"276 430 CURVE SMOOTH",
"276 443 OFFCURVE",
"281 472 OFFCURVE",
"281 484 CURVE SMOOTH",
"281 530 OFFCURVE",
"188 504 OFFCURVE",
"188 540 CURVE SMOOTH",
"188 559 OFFCURVE",
"200 570 OFFCURVE",
"205 574 CURVE",
"310 676 LINE SMOOTH",
"346 711 OFFCURVE",
"424 826 OFFCURVE",
"472 826 CURVE SMOOTH",
"486 826 OFFCURVE",
"491 819 OFFCURVE",
"492 810 CURVE SMOOTH",
"502 738 LINE SMOOTH",
"508 692 OFFCURVE",
"571 670 OFFCURVE",
"571 622 CURVE SMOOTH",
"571 558 OFFCURVE",
"503 514 OFFCURVE",
"503 445 CURVE SMOOTH",
"503 373 OFFCURVE",
"535 304 OFFCURVE",
"535 229 CURVE SMOOTH",
"535 161 OFFCURVE",
"526 97 OFFCURVE",
"483 3 CURVE",
"449 -14 OFFCURVE",
"402 -18 OFFCURVE",
"364 -18 CURVE SMOOTH"
);
},
{
closed = 1;
nodes = (
"401 597 OFFCURVE",
"416 605 OFFCURVE",
"416 618 CURVE SMOOTH",
"416 634 OFFCURVE",
"391 652 OFFCURVE",
"360 652 CURVE SMOOTH",
"343 652 OFFCURVE",
"330 646 OFFCURVE",
"327 637 CURVE",
"325 634 OFFCURVE",
"325 633 OFFCURVE",
"325 631 CURVE SMOOTH",
"325 615 OFFCURVE",
"350 597 OFFCURVE",
"382 597 CURVE SMOOTH"
);
},
{
closed = 1;
nodes = (
"483 660 LINE",
"462 688 OFFCURVE",
"422 701 OFFCURVE",
"369 705 CURVE",
"367 675 LINE",
"408 673 OFFCURVE",
"441 661 OFFCURVE",
"468 637 CURVE"
);
}
);
width = 649;
}
);
unicode = 14416;
},
{
glyphname = u14417;
lastChange = "2017-06-15 15:44:51 +0000";
layers = (
{
layerId = UUID0;
paths = (
{
closed = 1;
nodes = (
"1038 -48 OFFCURVE",
"1093 -42 OFFCURVE",
"1128 -25 CURVE",
"1174 54 OFFCURVE",
"1193 140 OFFCURVE",
"1193 230 CURVE SMOOTH",
"1193 303 OFFCURVE",
"1159 373 OFFCURVE",
"1159 434 CURVE SMOOTH",
"1159 510 OFFCURVE",
"1227 559 OFFCURVE",
"1227 626 CURVE SMOOTH",
"1227 670 OFFCURVE",
"1167 702 OFFCURVE",
"1160 747 CURVE SMOOTH",
"1150 808 LINE SMOOTH",
"1147 825 OFFCURVE",
"1139 855 OFFCURVE",
"1101 855 CURVE SMOOTH",
"1041 855 OFFCURVE",
"938 716 OFFCURVE",
"898 678 CURVE SMOOTH",
"821 604 LINE SMOOTH",
"795 579 OFFCURVE",
"786 557 OFFCURVE",
"786 537 CURVE SMOOTH",
"786 484 OFFCURVE",
"880 499 OFFCURVE",
"880 479 CURVE SMOOTH",
"880 460 OFFCURVE",
"876 425 OFFCURVE",
"876 413 CURVE SMOOTH",
"876 394 OFFCURVE",
"907 381 OFFCURVE",
"925 375 CURVE",
"886 350 OFFCURVE",
"885 329 OFFCURVE",
"885 296 CURVE SMOOTH",
"885 236 OFFCURVE",
"988 240 OFFCURVE",
"988 181 CURVE SMOOTH",
"988 96 OFFCURVE",
"958 34 OFFCURVE",
"925 -7 CURVE",
"927 -44 LINE",
"944 -46 OFFCURVE",
"966 -48 OFFCURVE",
"991 -48 CURVE SMOOTH"
);
},
{
closed = 1;
nodes = (
"547 -130 LINE",
"547 250 LINE",
"451 250 LINE",
"451 -130 LINE"
);
},
{
closed = 1;
nodes = (
"481 220 LINE",
"517 220 LINE",
"517 -100 LINE",
"481 -100 LINE"
);
},
{
closed = 1;
nodes = (
"311 -48 OFFCURVE",
"333 -46 OFFCURVE",
"350 -44 CURVE",
"352 -7 LINE",
"319 34 OFFCURVE",
"289 96 OFFCURVE",
"289 181 CURVE SMOOTH",
"289 240 OFFCURVE",
"392 236 OFFCURVE",
"392 296 CURVE SMOOTH",
"392 329 OFFCURVE",
"391 350 OFFCURVE",
"352 375 CURVE",
"370 381 OFFCURVE",
"401 394 OFFCURVE",
"401 413 CURVE SMOOTH",
"401 425 OFFCURVE",
"397 460 OFFCURVE",
"397 479 CURVE SMOOTH",
"397 499 OFFCURVE",
"491 484 OFFCURVE",
"491 537 CURVE SMOOTH",
"491 557 OFFCURVE",
"482 579 OFFCURVE",
"456 604 CURVE SMOOTH",
"379 678 LINE SMOOTH",
"339 716 OFFCURVE",
"236 855 OFFCURVE",
"176 855 CURVE SMOOTH",
"138 855 OFFCURVE",
"130 825 OFFCURVE",
"127 808 CURVE SMOOTH",
"117 747 LINE SMOOTH",
"110 702 OFFCURVE",
"50 670 OFFCURVE",
"50 626 CURVE SMOOTH",
"50 559 OFFCURVE",
"118 510 OFFCURVE",
"118 434 CURVE SMOOTH",
"118 373 OFFCURVE",
"84 303 OFFCURVE",
"84 230 CURVE SMOOTH",
"84 140 OFFCURVE",
"103 54 OFFCURVE",
"149 -25 CURVE",
"184 -42 OFFCURVE",
"239 -48 OFFCURVE",
"286 -48 CURVE SMOOTH"
);
},
{
closed = 1;
nodes = (
"247 -18 OFFCURVE",
"200 -14 OFFCURVE",
"166 3 CURVE",
"123 97 OFFCURVE",
"114 161 OFFCURVE",
"114 229 CURVE SMOOTH",
"114 304 OFFCURVE",
"146 373 OFFCURVE",
"146 445 CURVE SMOOTH",
"146 514 OFFCURVE",
"78 558 OFFCURVE",
"78 622 CURVE SMOOTH",
"78 670 OFFCURVE",
"141 692 OFFCURVE",
"147 738 CURVE SMOOTH",
"157 810 LINE SMOOTH",
"158 819 OFFCURVE",
"163 826 OFFCURVE",
"177 826 CURVE SMOOTH",
"225 826 OFFCURVE",
"303 711 OFFCURVE",
"339 676 CURVE SMOOTH",
"444 574 LINE",
"449 570 OFFCURVE",
"461 559 OFFCURVE",
"461 540 CURVE SMOOTH",
"461 504 OFFCURVE",
"368 530 OFFCURVE",
"368 484 CURVE SMOOTH",
"368 472 OFFCURVE",
"373 443 OFFCURVE",
"373 430 CURVE SMOOTH",
"373 402 OFFCURVE",
"321 404 OFFCURVE",
"321 371 CURVE",
"357 333 OFFCURVE",
"363 338 OFFCURVE",
"363 294 CURVE SMOOTH",
"363 252 OFFCURVE",
"258 259 OFFCURVE",
"258 187 CURVE SMOOTH",
"258 112 OFFCURVE",
"279 41 OFFCURVE",
"324 -16 CURVE",
"313 -17 OFFCURVE",
"300 -18 OFFCURVE",
"285 -18 CURVE SMOOTH"
);
},
{
closed = 1;
nodes = (
"687 -130 LINE",
"687 250 LINE",
"591 250 LINE",
"591 -130 LINE"
);
},
{
closed = 1;
nodes = (
"621 220 LINE",
"657 220 LINE",
"657 -100 LINE",
"621 -100 LINE"
);
},
{
closed = 1;
nodes = (
"827 -130 LINE",
"827 250 LINE",
"731 250 LINE",
"731 -130 LINE"
);
},
{
closed = 1;
nodes = (
"761 220 LINE",
"797 220 LINE",
"797 -100 LINE",
"761 -100 LINE"
);
},
{
closed = 1;
nodes = (
"208 661 OFFCURVE",
"241 673 OFFCURVE",
"282 675 CURVE",
"280 705 LINE",
"227 701 OFFCURVE",
"187 688 OFFCURVE",
"166 660 CURVE",
"181 637 LINE"
);
},
{
closed = 1;
nodes = (
"299 597 OFFCURVE",
"324 615 OFFCURVE",
"324 631 CURVE SMOOTH",
"324 633 OFFCURVE",
"324 634 OFFCURVE",
"322 637 CURVE",
"319 646 OFFCURVE",
"306 652 OFFCURVE",
"289 652 CURVE SMOOTH",
"258 652 OFFCURVE",
"233 634 OFFCURVE",
"233 618 CURVE SMOOTH",
"233 605 OFFCURVE",
"248 597 OFFCURVE",
"267 597 CURVE SMOOTH"
);
},
{
closed = 1;
nodes = (
"697 435 OFFCURVE",
"745 483 OFFCURVE",
"745 541 CURVE SMOOTH",
"745 600 OFFCURVE",
"697 648 OFFCURVE",
"638 648 CURVE SMOOTH",
"580 648 OFFCURVE",
"532 600 OFFCURVE",
"532 541 CURVE SMOOTH",
"532 483 OFFCURVE",
"580 435 OFFCURVE",
"638 435 CURVE SMOOTH"
);
},
{
closed = 1;
nodes = (
"594 465 OFFCURVE",
"562 497 OFFCURVE",
"562 541 CURVE SMOOTH",
"562 585 OFFCURVE",
"594 618 OFFCURVE",
"638 618 CURVE SMOOTH",
"682 618 OFFCURVE",
"715 585 OFFCURVE",
"715 541 CURVE SMOOTH",
"715 497 OFFCURVE",
"682 465 OFFCURVE",
"638 465 CURVE SMOOTH"
);
},
{
closed = 1;
nodes = (
"977 -18 OFFCURVE",
"964 -17 OFFCURVE",
"953 -16 CURVE",
"998 41 OFFCURVE",
"1019 112 OFFCURVE",
"1019 187 CURVE SMOOTH",
"1019 259 OFFCURVE",
"914 252 OFFCURVE",
"914 294 CURVE SMOOTH",
"914 338 OFFCURVE",
"920 333 OFFCURVE",
"956 371 CURVE",
"956 404 OFFCURVE",
"904 402 OFFCURVE",
"904 430 CURVE SMOOTH",
"904 443 OFFCURVE",
"909 472 OFFCURVE",
"909 484 CURVE SMOOTH",
"909 530 OFFCURVE",
"816 504 OFFCURVE",
"816 540 CURVE SMOOTH",
"816 559 OFFCURVE",
"828 570 OFFCURVE",
"833 574 CURVE",
"938 676 LINE SMOOTH",
"974 711 OFFCURVE",
"1052 826 OFFCURVE",
"1100 826 CURVE SMOOTH",
"1114 826 OFFCURVE",
"1119 819 OFFCURVE",
"1120 810 CURVE SMOOTH",
"1130 738 LINE SMOOTH",
"1136 692 OFFCURVE",
"1199 670 OFFCURVE",
"1199 622 CURVE SMOOTH",
"1199 558 OFFCURVE",
"1131 514 OFFCURVE",
"1131 445 CURVE SMOOTH",
"1131 373 OFFCURVE",
"1163 304 OFFCURVE",
"1163 229 CURVE SMOOTH",
"1163 161 OFFCURVE",
"1154 97 OFFCURVE",
"1111 3 CURVE",
"1077 -14 OFFCURVE",
"1030 -18 OFFCURVE",
"992 -18 CURVE SMOOTH"
);
},
{
closed = 1;
nodes = (
"1029 597 OFFCURVE",
"1044 605 OFFCURVE",
"1044 618 CURVE SMOOTH",
"1044 634 OFFCURVE",
"1019 652 OFFCURVE",
"988 652 CURVE SMOOTH",
"971 652 OFFCURVE",
"958 646 OFFCURVE",
"955 637 CURVE",
"953 634 OFFCURVE",
"953 633 OFFCURVE",
"953 631 CURVE SMOOTH",
"953 615 OFFCURVE",
"978 597 OFFCURVE",
"1010 597 CURVE SMOOTH"
);
},
{
closed = 1;
nodes = (
"1111 660 LINE",
"1090 688 OFFCURVE",
"1050 701 OFFCURVE",
"997 705 CURVE",
"995 675 LINE",
"1036 673 OFFCURVE",
"1069 661 OFFCURVE",
"1096 637 CURVE"
);
}
);
width = 1277;
}
);
unicode = 14417;
},
{
glyphname = u14418;
lastChange = "2017-06-15 15:44:51 +0000";
layers = (
{
layerId = UUID0;
paths = (
{
closed = 1;
nodes = (
"1028 -48 OFFCURVE",
"1083 -42 OFFCURVE",
"1118 -25 CURVE",
"1164 54 OFFCURVE",
"1183 140 OFFCURVE",
"1183 230 CURVE SMOOTH",
"1183 303 OFFCURVE",
"1149 373 OFFCURVE",
"1149 434 CURVE SMOOTH",
"1149 510 OFFCURVE",
"1217 559 OFFCURVE",
"1217 626 CURVE SMOOTH",
"1217 670 OFFCURVE",
"1157 702 OFFCURVE",
"1150 747 CURVE SMOOTH",
"1140 808 LINE SMOOTH",
"1137 825 OFFCURVE",
"1129 855 OFFCURVE",
"1091 855 CURVE SMOOTH",
"1031 855 OFFCURVE",
"928 716 OFFCURVE",
"888 678 CURVE SMOOTH",
"811 604 LINE SMOOTH",
"785 579 OFFCURVE",
"776 557 OFFCURVE",
"776 537 CURVE SMOOTH",
"776 484 OFFCURVE",
"870 499 OFFCURVE",
"870 479 CURVE SMOOTH",
"870 460 OFFCURVE",
"866 425 OFFCURVE",
"866 413 CURVE SMOOTH",
"866 394 OFFCURVE",
"897 381 OFFCURVE",
"915 375 CURVE",
"876 350 OFFCURVE",
"875 329 OFFCURVE",
"875 296 CURVE SMOOTH",
"875 236 OFFCURVE",
"978 240 OFFCURVE",
"978 181 CURVE SMOOTH",
"978 96 OFFCURVE",
"948 34 OFFCURVE",
"915 -7 CURVE",
"917 -44 LINE",
"934 -46 OFFCURVE",
"956 -48 OFFCURVE",
"981 -48 CURVE SMOOTH"
);
},
{
closed = 1;
nodes = (
"311 -48 OFFCURVE",
"333 -46 OFFCURVE",
"350 -44 CURVE",
"352 -7 LINE",
"319 34 OFFCURVE",
"289 96 OFFCURVE",
"289 181 CURVE SMOOTH",
"289 240 OFFCURVE",
"392 236 OFFCURVE",
"392 296 CURVE SMOOTH",
"392 329 OFFCURVE",
"391 350 OFFCURVE",
"352 375 CURVE",
"370 381 OFFCURVE",
"401 394 OFFCURVE",
"401 413 CURVE SMOOTH",
"401 425 OFFCURVE",
"397 460 OFFCURVE",
"397 479 CURVE SMOOTH",
"397 499 OFFCURVE",
"491 484 OFFCURVE",
"491 537 CURVE SMOOTH",
"491 557 OFFCURVE",
"482 579 OFFCURVE",
"456 604 CURVE SMOOTH",
"379 678 LINE SMOOTH",
"339 716 OFFCURVE",
"236 855 OFFCURVE",
"176 855 CURVE SMOOTH",
"138 855 OFFCURVE",
"130 825 OFFCURVE",
"127 808 CURVE SMOOTH",
"117 747 LINE SMOOTH",
"110 702 OFFCURVE",
"50 670 OFFCURVE",
"50 626 CURVE SMOOTH",
"50 559 OFFCURVE",
"118 510 OFFCURVE",
"118 434 CURVE SMOOTH",
"118 373 OFFCURVE",
"84 303 OFFCURVE",
"84 230 CURVE SMOOTH",
"84 140 OFFCURVE",
"103 54 OFFCURVE",
"149 -25 CURVE",
"184 -42 OFFCURVE",
"239 -48 OFFCURVE",
"286 -48 CURVE SMOOTH"
);
},
{
closed = 1;
nodes = (
"247 -18 OFFCURVE",
"200 -14 OFFCURVE",
"166 3 CURVE",
"123 97 OFFCURVE",
"114 161 OFFCURVE",
"114 229 CURVE SMOOTH",
"114 304 OFFCURVE",
"146 373 OFFCURVE",
"146 445 CURVE SMOOTH",
"146 514 OFFCURVE",
"78 558 OFFCURVE",
"78 622 CURVE SMOOTH",
"78 670 OFFCURVE",
"141 692 OFFCURVE",
"147 738 CURVE SMOOTH",
"157 810 LINE SMOOTH",
"158 819 OFFCURVE",
"163 826 OFFCURVE",
"177 826 CURVE SMOOTH",
"225 826 OFFCURVE",
"303 711 OFFCURVE",
"339 676 CURVE SMOOTH",
"444 574 LINE",
"449 570 OFFCURVE",
"461 559 OFFCURVE",
"461 540 CURVE SMOOTH",
"461 504 OFFCURVE",
"368 530 OFFCURVE",
"368 484 CURVE SMOOTH",
"368 472 OFFCURVE",
"373 443 OFFCURVE",
"373 430 CURVE SMOOTH",
"373 402 OFFCURVE",
"321 404 OFFCURVE",
"321 371 CURVE",
"357 333 OFFCURVE",
"363 338 OFFCURVE",
"363 294 CURVE SMOOTH",
"363 252 OFFCURVE",
"258 259 OFFCURVE",
"258 187 CURVE SMOOTH",
"258 112 OFFCURVE",
"279 41 OFFCURVE",
"324 -16 CURVE",
"313 -17 OFFCURVE",
"300 -18 OFFCURVE",
"285 -18 CURVE SMOOTH"
);
},
{
closed = 1;
nodes = (
"506 139 OFFCURVE",
"501 163 OFFCURVE",
"501 200 CURVE SMOOTH",
"501 207 OFFCURVE",
"501 213 OFFCURVE",
"502 220 CURVE",
"765 220 LINE",
"766 213 OFFCURVE",
"766 207 OFFCURVE",
"766 200 CURVE SMOOTH",
"766 163 OFFCURVE",
"761 139 OFFCURVE",
"756 130 CURVE",
"511 130 LINE"
);
},
{
closed = 1;
nodes = (
"208 661 OFFCURVE",
"241 673 OFFCURVE",
"282 675 CURVE",
"280 705 LINE",
"227 701 OFFCURVE",
"187 688 OFFCURVE",
"166 660 CURVE",
"181 637 LINE"
);
},
{
closed = 1;
nodes = (
"299 597 OFFCURVE",
"324 615 OFFCURVE",
"324 631 CURVE SMOOTH",
"324 633 OFFCURVE",
"324 634 OFFCURVE",
"322 637 CURVE",
"319 646 OFFCURVE",
"306 652 OFFCURVE",
"289 652 CURVE SMOOTH",
"258 652 OFFCURVE",
"233 634 OFFCURVE",
"233 618 CURVE SMOOTH",
"233 605 OFFCURVE",
"248 597 OFFCURVE",
"267 597 CURVE SMOOTH"
);
},
{
closed = 1;
nodes = (
"775 100 LINE",
"789 116 OFFCURVE",
"796 154 OFFCURVE",
"796 198 CURVE SMOOTH",
"796 353 OFFCURVE",
"695 393 OFFCURVE",
"695 491 CURVE SMOOTH",
"695 533 OFFCURVE",
"756 598 OFFCURVE",
"756 630 CURVE SMOOTH",
"756 655 OFFCURVE",
"740 670 OFFCURVE",
"691 670 CURVE SMOOTH",
"576 670 LINE SMOOTH",
"527 670 OFFCURVE",
"511 655 OFFCURVE",
"511 630 CURVE SMOOTH",
"511 598 OFFCURVE",
"572 533 OFFCURVE",
"572 491 CURVE SMOOTH",
"572 393 OFFCURVE",
"471 353 OFFCURVE",
"471 198 CURVE SMOOTH",
"471 154 OFFCURVE",
"478 116 OFFCURVE",
"492 100 CURVE"
);
},
{
closed = 1;
nodes = (
"527 351 OFFCURVE",
"604 412 OFFCURVE",
"604 487 CURVE SMOOTH",
"604 538 OFFCURVE",
"541 599 OFFCURVE",
"541 629 CURVE SMOOTH",
"541 638 OFFCURVE",
"567 640 OFFCURVE",
"583 640 CURVE SMOOTH",
"684 640 LINE SMOOTH",
"700 640 OFFCURVE",
"726 638 OFFCURVE",
"726 629 CURVE SMOOTH",
"726 599 OFFCURVE",
"663 538 OFFCURVE",
"663 487 CURVE SMOOTH",
"663 412 OFFCURVE",
"740 351 OFFCURVE",
"761 250 CURVE",
"506 250 LINE"
);
},
{
closed = 1;
nodes = (
"967 -18 OFFCURVE",
"954 -17 OFFCURVE",
"943 -16 CURVE",
"988 41 OFFCURVE",
"1009 112 OFFCURVE",
"1009 187 CURVE SMOOTH",
"1009 259 OFFCURVE",
"904 252 OFFCURVE",
"904 294 CURVE SMOOTH",
"904 338 OFFCURVE",
"910 333 OFFCURVE",
"946 371 CURVE",
"946 404 OFFCURVE",
"894 402 OFFCURVE",
"894 430 CURVE SMOOTH",
"894 443 OFFCURVE",
"899 472 OFFCURVE",
"899 484 CURVE SMOOTH",
"899 530 OFFCURVE",
"806 504 OFFCURVE",
"806 540 CURVE SMOOTH",
"806 559 OFFCURVE",
"818 570 OFFCURVE",
"823 574 CURVE",
"928 676 LINE SMOOTH",
"964 711 OFFCURVE",
"1042 826 OFFCURVE",
"1090 826 CURVE SMOOTH",
"1104 826 OFFCURVE",
"1109 819 OFFCURVE",
"1110 810 CURVE SMOOTH",
"1120 738 LINE SMOOTH",
"1126 692 OFFCURVE",
"1189 670 OFFCURVE",
"1189 622 CURVE SMOOTH",
"1189 558 OFFCURVE",
"1121 514 OFFCURVE",
"1121 445 CURVE SMOOTH",
"1121 373 OFFCURVE",
"1153 304 OFFCURVE",
"1153 229 CURVE SMOOTH",
"1153 161 OFFCURVE",
"1144 97 OFFCURVE",
"1101 3 CURVE",
"1067 -14 OFFCURVE",
"1020 -18 OFFCURVE",
"982 -18 CURVE SMOOTH"
);
},
{
closed = 1;
nodes = (
"1019 597 OFFCURVE",
"1034 605 OFFCURVE",
"1034 618 CURVE SMOOTH",
"1034 634 OFFCURVE",
"1009 652 OFFCURVE",
"978 652 CURVE SMOOTH",
"961 652 OFFCURVE",
"948 646 OFFCURVE",
"945 637 CURVE",
"943 634 OFFCURVE",
"943 633 OFFCURVE",
"943 631 CURVE SMOOTH",
"943 615 OFFCURVE",
"968 597 OFFCURVE",
"1000 597 CURVE SMOOTH"
);
},
{
closed = 1;
nodes = (
"1101 660 LINE",
"1080 688 OFFCURVE",
"1040 701 OFFCURVE",
"987 705 CURVE",
"985 675 LINE",
"1026 673 OFFCURVE",
"1059 661 OFFCURVE",
"1086 637 CURVE"
);
}
);
width = 1267;
}
);
unicode = 14418;
},
{
glyphname = u14419;
lastChange = "2017-06-15 15:44:51 +0000";
layers = (
{
layerId = UUID0;
paths = (
{
closed = 1;
nodes = (
"840 0 OFFCURVE",
"988 136 OFFCURVE",
"1058 256 CURVE",
"995 354 OFFCURVE",
"840 522 OFFCURVE",
"554 522 CURVE SMOOTH",
"272 522 OFFCURVE",
"116 360 OFFCURVE",
"50 256 CURVE",
"118 137 OFFCURVE",
"272 0 OFFCURVE",
"554 0 CURVE SMOOTH"
);
},
{
closed = 1;
nodes = (
"309 30 OFFCURVE",
"151 153 OFFCURVE",
"92 256 CURVE",
"149 347 OFFCURVE",
"309 492 OFFCURVE",
"554 492 CURVE SMOOTH",
"803 492 OFFCURVE",
"962 342 OFFCURVE",
"1016 256 CURVE",
"955 153 OFFCURVE",
"803 30 OFFCURVE",
"554 30 CURVE SMOOTH"
);
},
{
closed = 1;
nodes = (
"721 125 OFFCURVE",
"823 196 OFFCURVE",
"864 259 CURVE",
"828 311 OFFCURVE",
"721 398 OFFCURVE",
"554 398 CURVE SMOOTH",
"390 398 OFFCURVE",
"282 314 OFFCURVE",
"244 259 CURVE",
"284 196 OFFCURVE",
"390 125 OFFCURVE",
"554 125 CURVE SMOOTH"
);
},
{
closed = 1;
nodes = (
"414 155 OFFCURVE",
"324 208 OFFCURVE",
"290 259 CURVE",
"322 303 OFFCURVE",
"414 368 OFFCURVE",
"554 368 CURVE SMOOTH",
"698 368 OFFCURVE",
"789 301 OFFCURVE",
"819 259 CURVE",
"784 208 OFFCURVE",
"698 155 OFFCURVE",
"554 155 CURVE SMOOTH"
);
}
);
width = 1108;
}
);
unicode = 14419;
},
{
glyphname = u1441A;
lastChange = "2017-06-15 15:44:51 +0000";
layers = (
{
layerId = UUID0;
paths = (
{
closed = 1;
nodes = (
"327 -10 OFFCURVE",
"383 31 OFFCURVE",
"383 105 CURVE SMOOTH",
"383 156 OFFCURVE",
"324 188 OFFCURVE",
"324 213 CURVE SMOOTH",
"324 236 OFFCURVE",
"389 300 OFFCURVE",
"401 300 CURVE SMOOTH",
"409 300 OFFCURVE",
"453 280 OFFCURVE",
"504 280 CURVE SMOOTH",
"623 280 OFFCURVE",
"642 358 OFFCURVE",
"642 442 CURVE SMOOTH",
"642 523 LINE SMOOTH",
"642 592 OFFCURVE",
"647 611 OFFCURVE",
"698 649 CURVE SMOOTH",
"745 684 OFFCURVE",
"795 707 OFFCURVE",
"795 750 CURVE SMOOTH",
"795 794 OFFCURVE",
"771 800 OFFCURVE",
"740 800 CURVE SMOOTH",
"715 800 OFFCURVE",
"687 793 OFFCURVE",
"663 782 CURVE SMOOTH",
"456 685 OFFCURVE",
"223 412 OFFCURVE",
"110 223 CURVE SMOOTH",
"74 163 OFFCURVE",
"50 106 OFFCURVE",
"50 57 CURVE SMOOTH",
"50 -4 OFFCURVE",
"170 -10 OFFCURVE",
"209 -10 CURVE SMOOTH"
);
},
{
closed = 1;
nodes = (
"149 20 OFFCURVE",
"80 31 OFFCURVE",
"80 63 CURVE SMOOTH",
"80 106 OFFCURVE",
"112 168 OFFCURVE",
"137 210 CURVE SMOOTH",
"262 416 OFFCURVE",
"504 686 OFFCURVE",
"690 764 CURVE SMOOTH",
"703 769 OFFCURVE",
"717 772 OFFCURVE",
"731 772 CURVE SMOOTH",
"753 772 OFFCURVE",
"765 769 OFFCURVE",
"765 750 CURVE SMOOTH",
"765 730 OFFCURVE",
"722 706 OFFCURVE",
"682 675 CURVE SMOOTH",
"616 623 OFFCURVE",
"612 599 OFFCURVE",
"612 524 CURVE SMOOTH",
"612 441 LINE SMOOTH",
"612 386 OFFCURVE",
"605 310 OFFCURVE",
"506 310 CURVE SMOOTH",
"442 310 OFFCURVE",
"424 330 OFFCURVE",
"396 330 CURVE SMOOTH",
"377 330 OFFCURVE",
"294 245 OFFCURVE",
"294 207 CURVE SMOOTH",
"294 183 OFFCURVE",
"353 145 OFFCURVE",
"353 108 CURVE SMOOTH",
"353 44 OFFCURVE",
"281 20 OFFCURVE",
"212 20 CURVE SMOOTH"
);
},
{
closed = 1;
nodes = (
"535 378 OFFCURVE",
"571 394 OFFCURVE",
"571 428 CURVE SMOOTH",
"571 475 OFFCURVE",
"519 511 OFFCURVE",
"481 511 CURVE SMOOTH",
"448 511 OFFCURVE",
"411 492 OFFCURVE",
"411 457 CURVE SMOOTH",
"411 410 OFFCURVE",
"457 378 OFFCURVE",
"499 378 CURVE SMOOTH"
);
},
{
closed = 1;
nodes = (
"477 405 OFFCURVE",
"439 422 OFFCURVE",
"439 456 CURVE SMOOTH",
"439 478 OFFCURVE",
"466 484 OFFCURVE",
"481 484 CURVE SMOOTH",
"502 484 OFFCURVE",
"544 462 OFFCURVE",
"544 429 CURVE SMOOTH",
"544 412 OFFCURVE",
"523 405 OFFCURVE",
"502 405 CURVE SMOOTH"
);
}
);
width = 845;
}
);
unicode = 1441A;
},
{
glyphname = u1441B;
lastChange = "2017-06-15 15:44:51 +0000";
layers = (
{
layerId = UUID0;
paths = (
{
closed = 1;
nodes = (
"258 190 OFFCURVE",
"299 221 OFFCURVE",
"299 278 CURVE SMOOTH",
"299 315 OFFCURVE",
"255 340 OFFCURVE",
"255 359 CURVE SMOOTH",
"255 376 OFFCURVE",
"305 424 OFFCURVE",
"313 424 CURVE SMOOTH",
"320 424 OFFCURVE",
"353 409 OFFCURVE",
"392 409 CURVE SMOOTH",
"481 409 OFFCURVE",
"495 467 OFFCURVE",
"495 531 CURVE SMOOTH",
"495 592 LINE SMOOTH",
"495 643 OFFCURVE",
"503 655 OFFCURVE",
"541 683 CURVE SMOOTH",
"576 709 OFFCURVE",
"610 725 OFFCURVE",
"610 762 CURVE SMOOTH",
"610 788 OFFCURVE",
"592 800 OFFCURVE",
"569 800 CURVE SMOOTH",
"550 800 OFFCURVE",
"529 794 OFFCURVE",
"510 786 CURVE SMOOTH",
"430 752 OFFCURVE",
"343 677 OFFCURVE",
"267 593 CURVE SMOOTH",
"198 517 OFFCURVE",
"136 434 OFFCURVE",
"95 366 CURVE SMOOTH",
"68 321 OFFCURVE",
"50 279 OFFCURVE",
"50 242 CURVE SMOOTH",
"50 196 OFFCURVE",
"140 190 OFFCURVE",
"170 190 CURVE SMOOTH"
);
},
{
closed = 1;
nodes = (
"124 220 OFFCURVE",
"80 221 OFFCURVE",
"80 246 CURVE SMOOTH",
"80 279 OFFCURVE",
"107 325 OFFCURVE",
"125 356 CURVE SMOOTH",
"167 428 OFFCURVE",
"226 502 OFFCURVE",
"288 569 CURVE SMOOTH",
"364 651 OFFCURVE",
"446 720 OFFCURVE",
"521 757 CURVE SMOOTH",
"531 762 OFFCURVE",
"551 770 OFFCURVE",
"557 770 CURVE SMOOTH",
"568 770 OFFCURVE",
"578 768 OFFCURVE",
"578 753 CURVE SMOOTH",
"578 738 OFFCURVE",
"555 729 OFFCURVE",
"525 706 CURVE SMOOTH",
"475 667 OFFCURVE",
"465 649 OFFCURVE",
"465 593 CURVE SMOOTH",
"465 530 LINE SMOOTH",
"465 489 OFFCURVE",
"459 439 OFFCURVE",
"385 439 CURVE SMOOTH",
"337 439 OFFCURVE",
"331 454 OFFCURVE",
"310 454 CURVE SMOOTH",
"296 454 OFFCURVE",
"225 383 OFFCURVE",
"225 354 CURVE SMOOTH",
"225 336 OFFCURVE",
"269 307 OFFCURVE",
"269 279 CURVE SMOOTH",
"269 232 OFFCURVE",
"224 220 OFFCURVE",
"171 220 CURVE SMOOTH"
);
},
{
closed = 1;
nodes = (
"703 0 LINE SMOOTH",
"754 0 OFFCURVE",
"761 18 OFFCURVE",
"761 41 CURVE SMOOTH",
"761 97 OFFCURVE",
"700 131 OFFCURVE",
"700 198 CURVE SMOOTH",
"700 266 OFFCURVE",
"783 337 OFFCURVE",
"783 399 CURVE SMOOTH",
"783 433 OFFCURVE",
"763 467 OFFCURVE",
"713 467 CURVE SMOOTH",
"668 467 OFFCURVE",
"648 433 OFFCURVE",
"648 403 CURVE SMOOTH",
"648 391 OFFCURVE",
"653 380 OFFCURVE",
"666 372 CURVE",
"683 390 LINE",
"680 394 OFFCURVE",
"679 398 OFFCURVE",
"679 402 CURVE SMOOTH",
"679 420 OFFCURVE",
"686 438 OFFCURVE",
"714 438 CURVE SMOOTH",
"733 438 OFFCURVE",
"751 426 OFFCURVE",
"751 394 CURVE SMOOTH",
"751 346 OFFCURVE",
"670 273 OFFCURVE",
"670 197 CURVE SMOOTH",
"670 126 OFFCURVE",
"730 97 OFFCURVE",
"730 45 CURVE SMOOTH",
"730 34 OFFCURVE",
"717 30 OFFCURVE",
"702 30 CURVE SMOOTH",
"568 30 LINE SMOOTH",
"553 30 OFFCURVE",
"540 34 OFFCURVE",
"540 45 CURVE SMOOTH",
"540 97 OFFCURVE",
"600 126 OFFCURVE",
"600 197 CURVE SMOOTH",
"600 273 OFFCURVE",
"519 346 OFFCURVE",
"519 394 CURVE SMOOTH",
"519 426 OFFCURVE",
"537 438 OFFCURVE",
"556 438 CURVE SMOOTH",
"584 438 OFFCURVE",
"591 420 OFFCURVE",
"591 402 CURVE SMOOTH",
"591 398 OFFCURVE",
"590 394 OFFCURVE",
"587 390 CURVE",
"604 372 LINE",
"617 380 OFFCURVE",
"622 391 OFFCURVE",
"622 403 CURVE SMOOTH",
"622 433 OFFCURVE",
"602 467 OFFCURVE",
"557 467 CURVE SMOOTH",
"507 467 OFFCURVE",
"487 433 OFFCURVE",
"487 399 CURVE SMOOTH",
"487 337 OFFCURVE",
"570 266 OFFCURVE",
"570 198 CURVE SMOOTH",
"570 131 OFFCURVE",
"509 97 OFFCURVE",
"509 41 CURVE SMOOTH",
"509 18 OFFCURVE",
"516 0 OFFCURVE",
"567 0 CURVE SMOOTH"
);
},
{
closed = 1;
nodes = (
"415 483 OFFCURVE",
"441 495 OFFCURVE",
"441 520 CURVE SMOOTH",
"441 556 OFFCURVE",
"403 583 OFFCURVE",
"374 583 CURVE SMOOTH",
"349 583 OFFCURVE",
"322 569 OFFCURVE",
"322 542 CURVE SMOOTH",
"322 507 OFFCURVE",
"356 483 OFFCURVE",
"387 483 CURVE SMOOTH"
);
},
{
closed = 1;
nodes = (
"371 506 OFFCURVE",
"345 517 OFFCURVE",
"345 540 CURVE SMOOTH",
"345 555 OFFCURVE",
"364 559 OFFCURVE",
"374 559 CURVE SMOOTH",
"389 559 OFFCURVE",
"417 545 OFFCURVE",
"417 522 CURVE SMOOTH",
"417 511 OFFCURVE",
"403 506 OFFCURVE",
"389 506 CURVE SMOOTH"
);
}
);
width = 833;
}
);
unicode = 1441B;
},
{
glyphname = u1441C;
lastChange = "2017-06-15 15:44:51 +0000";
layers = (
{
layerId = UUID0;
paths = (
{
closed = 1;
nodes = (
"441 -18 OFFCURVE",
"482 8 OFFCURVE",
"526 39 CURVE SMOOTH",
"661 133 LINE SMOOTH",
"758 201 OFFCURVE",
"826 376 OFFCURVE",
"826 451 CURVE SMOOTH",
"826 570 OFFCURVE",
"761 613 OFFCURVE",
"705 613 CURVE SMOOTH",
"650 613 OFFCURVE",
"593 593 OFFCURVE",
"539 510 CURVE SMOOTH",
"453 378 LINE",
"407 399 OFFCURVE",
"391 408 OFFCURVE",
"391 432 CURVE SMOOTH",
"391 463 OFFCURVE",
"438 490 OFFCURVE",
"438 538 CURVE SMOOTH",
"438 561 OFFCURVE",
"427 573 OFFCURVE",
"412 578 CURVE",
"468 620 OFFCURVE",
"489 691 OFFCURVE",
"500 726 CURVE",
"493 732 OFFCURVE",
"485 737 OFFCURVE",
"478 742 CURVE",
"447 718 OFFCURVE",
"354 713 OFFCURVE",
"321 713 CURVE SMOOTH",
"268 713 OFFCURVE",
"169 724 OFFCURVE",
"119 742 CURVE",
"115 731 OFFCURVE",
"112 724 OFFCURVE",
"109 719 CURVE",
"111 710 OFFCURVE",
"113 700 OFFCURVE",
"116 691 CURVE",
"109 694 OFFCURVE",
"101 696 OFFCURVE",
"93 696 CURVE SMOOTH",
"53 696 OFFCURVE",
"50 650 OFFCURVE",
"50 627 CURVE SMOOTH",
"50 474 OFFCURVE",
"175 436 OFFCURVE",
"222 400 CURVE",
"262 195 OFFCURVE",
"285 -18 OFFCURVE",
"392 -18 CURVE SMOOTH"
);
},
{
closed = 1;
nodes = (
"303 13 OFFCURVE",
"295 208 OFFCURVE",
"249 408 CURVE",
"229 460 OFFCURVE",
"80 450 OFFCURVE",
"80 629 CURVE SMOOTH",
"80 649 OFFCURVE",
"83 664 OFFCURVE",
"101 664 CURVE SMOOTH",
"154 664 OFFCURVE",
"147 541 OFFCURVE",
"301 541 CURVE SMOOTH",
"339 541 OFFCURVE",
"371 551 OFFCURVE",
"384 551 CURVE SMOOTH",
"392 551 OFFCURVE",
"410 550 OFFCURVE",
"410 530 CURVE SMOOTH",
"410 501 OFFCURVE",
"361 462 OFFCURVE",
"361 426 CURVE SMOOTH",
"361 397 OFFCURVE",
"382 377 OFFCURVE",
"437 353 CURVE",
"424 331 OFFCURVE",
"411 306 OFFCURVE",
"411 288 CURVE SMOOTH",
"411 239 OFFCURVE",
"440 221 OFFCURVE",
"447 173 CURVE",
"478 176 LINE",
"475 206 OFFCURVE",
"441 244 OFFCURVE",
"441 286 CURVE SMOOTH",
"441 297 OFFCURVE",
"444 309 OFFCURVE",
"451 322 CURVE",
"533 277 OFFCURVE",
"602 231 OFFCURVE",
"666 177 CURVE",
"657 167 OFFCURVE",
"648 158 OFFCURVE",
"640 153 CURVE",
"517 68 LINE SMOOTH",
"484 45 OFFCURVE",
"430 13 OFFCURVE",
"395 13 CURVE SMOOTH"
);
},
{
closed = 1;
nodes = (
"617 256 OFFCURVE",
"543 299 OFFCURVE",
"463 341 CURVE",
"489 381 LINE",
"573 336 OFFCURVE",
"644 288 OFFCURVE",
"710 233 CURVE",
"701 219 OFFCURVE",
"692 207 OFFCURVE",
"683 196 CURVE"
);
},
{
closed = 1;
nodes = (
"244 572 OFFCURVE",
"171 601 OFFCURVE",
"144 705 CURVE",
"201 691 OFFCURVE",
"278 683 OFFCURVE",
"319 683 CURVE SMOOTH",
"371 683 OFFCURVE",
"422 688 OFFCURVE",
"463 703 CURVE",
"443 638 OFFCURVE",
"398 572 OFFCURVE",
"300 572 CURVE SMOOTH"
);
},
{
closed = 1;
nodes = (
"657 315 OFFCURVE",
"583 359 OFFCURVE",
"502 401 CURVE",
"568 505 LINE SMOOTH",
"607 566 OFFCURVE",
"664 583 OFFCURVE",
"705 583 CURVE SMOOTH",
"755 583 OFFCURVE",
"793 540 OFFCURVE",
"793 454 CURVE SMOOTH",
"793 391 OFFCURVE",
"761 315 OFFCURVE",
"724 254 CURVE"
);
}
);
width = 876;
}
);
unicode = 1441C;
},
{
glyphname = u1441D;
lastChange = "2017-06-15 15:44:51 +0000";
layers = (
{
layerId = UUID0;
paths = (
{
closed = 1;
nodes = (
"93 -49 OFFCURVE",
"178 -31 OFFCURVE",
"202 0 CURVE SMOOTH",
"230 37 OFFCURVE",
"231 89 OFFCURVE",
"260 174 CURVE",
"393 375 LINE",
"412 361 OFFCURVE",
"425 339 OFFCURVE",
"429 305 CURVE SMOOTH",
"443 189 OFFCURVE",
"443 -18 OFFCURVE",
"550 -18 CURVE SMOOTH",
"599 -18 OFFCURVE",
"640 8 OFFCURVE",
"684 39 CURVE SMOOTH",
"819 133 LINE SMOOTH",
"916 201 OFFCURVE",
"984 376 OFFCURVE",
"984 451 CURVE SMOOTH",
"984 570 OFFCURVE",
"919 613 OFFCURVE",
"863 613 CURVE SMOOTH",
"808 613 OFFCURVE",
"754 597 OFFCURVE",
"692 502 CURVE SMOOTH",
"613 382 LINE",
"607 372 OFFCURVE",
"594 352 OFFCURVE",
"588 340 CURVE",
"575 406 OFFCURVE",
"542 475 OFFCURVE",
"496 529 CURVE",
"573 645 LINE SMOOTH",
"580 656 OFFCURVE",
"583 665 OFFCURVE",
"583 674 CURVE SMOOTH",
"583 698 OFFCURVE",
"560 717 OFFCURVE",
"539 717 CURVE SMOOTH",
"526 717 OFFCURVE",
"513 710 OFFCURVE",
"501 693 CURVE SMOOTH",
"432 589 LINE",
"390 621 OFFCURVE",
"341 640 OFFCURVE",
"291 640 CURVE SMOOTH",
"262 640 OFFCURVE",
"242 624 OFFCURVE",
"242 603 CURVE SMOOTH",
"242 581 OFFCURVE",
"269 560 OFFCURVE",
"269 548 CURVE SMOOTH",
"269 524 OFFCURVE",
"224 502 OFFCURVE",
"224 472 CURVE SMOOTH",
"224 421 OFFCURVE",
"264 413 OFFCURVE",
"309 404 CURVE",
"187 222 LINE SMOOTH",
"140 151 OFFCURVE",
"50 133 OFFCURVE",
"50 38 CURVE SMOOTH",
"50 -15 OFFCURVE",
"57 -45 OFFCURVE",
"57 -87 CURVE",
"80 -91 LINE"
);
},
{
closed = 1;
nodes = (
"78 -12 OFFCURVE",
"78 7 OFFCURVE",
"78 38 CURVE SMOOTH",
"78 123 OFFCURVE",
"178 139 OFFCURVE",
"207 206 CURVE",
"235 187 LINE",
"204 100 OFFCURVE",
"205 39 OFFCURVE",
"168 8 CURVE SMOOTH",
"142 -14 OFFCURVE",
"109 -22 OFFCURVE",
"80 -43 CURVE"
);
},
{
closed = 1;
nodes = (
"222 226 LINE",
"337 398 LINE",
"349 396 OFFCURVE",
"360 392 OFFCURVE",
"371 388 CURVE",
"251 208 LINE"
);
},
{
closed = 1;
nodes = (
"461 13 OFFCURVE",
"486 264 OFFCURVE",
"437 370 CURVE SMOOTH",
"393 465 OFFCURVE",
"257 405 OFFCURVE",
"257 477 CURVE SMOOTH",
"257 490 OFFCURVE",
"299 503 OFFCURVE",
"299 547 CURVE SMOOTH",
"299 575 OFFCURVE",
"273 594 OFFCURVE",
"273 601 CURVE SMOOTH",
"273 604 OFFCURVE",
"283 608 OFFCURVE",
"289 608 CURVE SMOOTH",
"455 608 OFFCURVE",
"540 430 OFFCURVE",
"571 295 CURVE",
"571 252 OFFCURVE",
"600 216 OFFCURVE",
"605 173 CURVE",
"636 176 LINE",
"633 206 OFFCURVE",
"601 244 OFFCURVE",
"601 286 CURVE SMOOTH",
"601 300 OFFCURVE",
"602 318 OFFCURVE",
"612 333 CURVE SMOOTH",
"726 507 LINE SMOOTH",
"766 568 OFFCURVE",
"810 583 OFFCURVE",
"853 583 CURVE SMOOTH",
"913 583 OFFCURVE",
"951 549 OFFCURVE",
"951 454 CURVE SMOOTH",
"951 343 OFFCURVE",
"850 189 OFFCURVE",
"798 153 CURVE SMOOTH",
"675 68 LINE SMOOTH",
"643 46 OFFCURVE",
"588 13 OFFCURVE",
"553 13 CURVE SMOOTH"
);
},
{
closed = 1;
nodes = (
"470 557 OFFCURVE",
"462 565 OFFCURVE",
"453 573 CURVE",
"522 676 LINE SMOOTH",
"529 687 OFFCURVE",
"535 690 OFFCURVE",
"541 690 CURVE SMOOTH",
"549 690 OFFCURVE",
"556 683 OFFCURVE",
"556 674 CURVE SMOOTH",
"556 669 OFFCURVE",
"554 664 OFFCURVE",
"550 657 CURVE",
"478 549 LINE"
);
}
);
width = 1034;
}
);
unicode = 1441D;
},
{
glyphname = u1441E;
lastChange = "2017-06-15 15:44:51 +0000";
layers = (
{
layerId = UUID0;
paths = (
{
closed = 1;
nodes = (
"468 -182 LINE",
"562 -97 OFFCURVE",
"597 63 OFFCURVE",
"605 185 CURVE",
"658 191 OFFCURVE",
"719 198 OFFCURVE",
"735 198 CURVE SMOOTH",
"1030 198 OFFCURVE",
"1113 49 OFFCURVE",
"1143 -15 CURVE",
"1168 3 LINE",
"1131 67 OFFCURVE",
"1046 228 OFFCURVE",
"747 228 CURVE SMOOTH",
"701 228 OFFCURVE",
"541 207 OFFCURVE",
"516 207 CURVE SMOOTH",
"352 207 LINE SMOOTH",
"303 207 OFFCURVE",
"200 209 OFFCURVE",
"200 262 CURVE SMOOTH",
"200 280 OFFCURVE",
"212 294 OFFCURVE",
"212 311 CURVE SMOOTH",
"212 333 OFFCURVE",
"191 349 OFFCURVE",
"191 373 CURVE SMOOTH",
"191 384 OFFCURVE",
"193 393 OFFCURVE",
"193 401 CURVE SMOOTH",
"193 425 OFFCURVE",
"172 431 OFFCURVE",
"172 450 CURVE SMOOTH",
"172 459 OFFCURVE",
"175 469 OFFCURVE",
"177 477 CURVE",
"223 468 OFFCURVE",
"282 461 OFFCURVE",
"352 453 CURVE",
"356 408 OFFCURVE",
"394 311 OFFCURVE",
"441 254 CURVE",
"469 265 LINE",
"411 336 OFFCURVE",
"382 443 OFFCURVE",
"375 479 CURVE",
"285 493 OFFCURVE",
"77 507 OFFCURVE",
"77 564 CURVE SMOOTH",
"77 582 OFFCURVE",
"112 590 OFFCURVE",
"130 590 CURVE SMOOTH",
"169 590 OFFCURVE",
"226 567 OFFCURVE",
"282 567 CURVE SMOOTH",
"381 567 OFFCURVE",
"389 576 OFFCURVE",
"449 576 CURVE SMOOTH",
"579 576 OFFCURVE",
"550 430 OFFCURVE",
"670 430 CURVE SMOOTH",
"961 430 LINE SMOOTH",
"1041 430 OFFCURVE",
"1105 440 OFFCURVE",
"1152 448 CURVE",
"1151 478 LINE",
"1107 469 OFFCURVE",
"1018 460 OFFCURVE",
"952 460 CURVE SMOOTH",
"673 460 LINE SMOOTH",
"581 460 OFFCURVE",
"593 608 OFFCURVE",
"456 608 CURVE SMOOTH",
"404 608 OFFCURVE",
"366 597 OFFCURVE",
"273 597 CURVE SMOOTH",
"242 597 OFFCURVE",
"169 620 OFFCURVE",
"122 620 CURVE SMOOTH",
"90 620 OFFCURVE",
"50 602 OFFCURVE",
"50 562 CURVE SMOOTH",
"50 521 OFFCURVE",
"84 499 OFFCURVE",
"149 483 CURVE",
"146 471 OFFCURVE",
"143 462 OFFCURVE",
"143 452 CURVE SMOOTH",
"143 439 OFFCURVE",
"144 422 OFFCURVE",
"165 401 CURVE",
"166 397 OFFCURVE",
"166 393 OFFCURVE",
"166 389 CURVE SMOOTH",
"166 378 OFFCURVE",
"164 369 OFFCURVE",
"164 359 CURVE SMOOTH",
"164 338 OFFCURVE",
"182 321 OFFCURVE",
"182 309 CURVE SMOOTH",
"182 291 OFFCURVE",
"170 278 OFFCURVE",
"170 258 CURVE SMOOTH",
"170 194 OFFCURVE",
"260 181 OFFCURVE",
"316 178 CURVE",
"326 57 OFFCURVE",
"360 -99 OFFCURVE",
"453 -182 CURVE"
);
},
{
closed = 1;
nodes = (
"403 -91 OFFCURVE",
"353 60 OFFCURVE",
"346 177 CURVE",
"522 177 LINE SMOOTH",
"531 177 OFFCURVE",
"551 179 OFFCURVE",
"575 181 CURVE",
"569 64 OFFCURVE",
"517 -90 OFFCURVE",
"460 -139 CURVE"
);
}
);
width = 1218;
}
);
unicode = 1441E;
},
{
glyphname = u1441F;
lastChange = "2017-06-15 15:44:51 +0000";
layers = (
{
layerId = UUID0;
paths = (
{
closed = 1;
nodes = (
"1208 0 LINE SMOOTH",
"1287 0 OFFCURVE",
"1301 46 OFFCURVE",
"1301 111 CURVE SMOOTH",
"1301 144 OFFCURVE",
"1300 183 OFFCURVE",
"1297 223 CURVE SMOOTH",
"1274 509 LINE",
"1302 619 OFFCURVE",
"1432 565 OFFCURVE",
"1432 711 CURVE SMOOTH",
"1432 776 OFFCURVE",
"1421 804 OFFCURVE",
"1421 897 CURVE SMOOTH",
"1421 928 OFFCURVE",
"1452 1001 OFFCURVE",
"1452 1048 CURVE SMOOTH",
"1452 1080 OFFCURVE",
"1446 1120 OFFCURVE",
"1400 1120 CURVE SMOOTH",
"1380 1120 OFFCURVE",
"1360 1107 OFFCURVE",
"1345 1080 CURVE",
"1332 1096 OFFCURVE",
"1316 1102 OFFCURVE",
"1306 1102 CURVE SMOOTH",
"1289 1102 OFFCURVE",
"1276 1097 OFFCURVE",
"1266 1087 CURVE",
"1253 1101 OFFCURVE",
"1238 1107 OFFCURVE",
"1229 1107 CURVE SMOOTH",
"1202 1107 OFFCURVE",
"1185 1093 OFFCURVE",
"1174 1070 CURVE",
"1164 1080 OFFCURVE",
"1152 1087 OFFCURVE",
"1137 1087 CURVE SMOOTH",
"1121 1087 OFFCURVE",
"1110 1075 OFFCURVE",
"1102 1057 CURVE",
"1092 1063 OFFCURVE",
"1081 1065 OFFCURVE",
"1071 1065 CURVE SMOOTH",
"1044 1065 OFFCURVE",
"1030 1043 OFFCURVE",
"1024 1009 CURVE",
"759 930 LINE",
"759 900 LINE",
"1004 829 LINE",
"1004 747 OFFCURVE",
"1036 652 OFFCURVE",
"1036 552 CURVE SMOOTH",
"1036 199 OFFCURVE",
"980 148 OFFCURVE",
"980 63 CURVE SMOOTH",
"980 4 OFFCURVE",
"1007 0 OFFCURVE",
"1055 0 CURVE SMOOTH"
);
},
{
closed = 1;
nodes = (
"245 30 OFFCURVE",
"231 55 OFFCURVE",
"231 109 CURVE SMOOTH",
"231 133 OFFCURVE",
"233 185 OFFCURVE",
"235 214 CURVE SMOOTH",
"250 398 LINE",
"440 398 LINE",
"452 177 OFFCURVE",
"491 140 OFFCURVE",
"491 65 CURVE SMOOTH",
"491 34 OFFCURVE",
"467 30 OFFCURVE",
"436 30 CURVE SMOOTH",
"308 30 LINE SMOOTH"
);
},
{
closed = 1;
nodes = (
"257 489 LINE",
"437 489 LINE",
"437 467 OFFCURVE",
"438 447 OFFCURVE",
"438 428 CURVE",
"252 428 LINE"
);
},
{
closed = 1;
nodes = (
"447 0 LINE SMOOTH",
"495 0 OFFCURVE",
"522 4 OFFCURVE",
"522 63 CURVE SMOOTH",
"522 148 OFFCURVE",
"466 199 OFFCURVE",
"466 552 CURVE SMOOTH",
"466 653 OFFCURVE",
"498 748 OFFCURVE",
"498 830 CURVE",
"739 900 LINE",
"739 930 LINE",
"478 1008 LINE",
"472 1042 OFFCURVE",
"458 1065 OFFCURVE",
"431 1065 CURVE SMOOTH",
"421 1065 OFFCURVE",
"410 1063 OFFCURVE",
"400 1057 CURVE",
"392 1075 OFFCURVE",
"381 1087 OFFCURVE",
"365 1087 CURVE SMOOTH",
"350 1087 OFFCURVE",
"338 1080 OFFCURVE",
"328 1070 CURVE",
"317 1093 OFFCURVE",
"300 1107 OFFCURVE",
"273 1107 CURVE SMOOTH",
"264 1107 OFFCURVE",
"249 1101 OFFCURVE",
"236 1087 CURVE",
"226 1097 OFFCURVE",
"213 1102 OFFCURVE",
"196 1102 CURVE SMOOTH",
"186 1102 OFFCURVE",
"170 1096 OFFCURVE",
"157 1080 CURVE",
"142 1107 OFFCURVE",
"122 1120 OFFCURVE",
"102 1120 CURVE SMOOTH",
"56 1120 OFFCURVE",
"50 1080 OFFCURVE",
"50 1048 CURVE SMOOTH",
"50 1001 OFFCURVE",
"81 928 OFFCURVE",
"81 897 CURVE SMOOTH",
"81 804 OFFCURVE",
"70 776 OFFCURVE",
"70 711 CURVE SMOOTH",
"70 565 OFFCURVE",
"200 619 OFFCURVE",
"228 509 CURVE",
"205 223 LINE SMOOTH",
"202 183 OFFCURVE",
"201 144 OFFCURVE",
"201 111 CURVE SMOOTH",
"201 46 OFFCURVE",
"215 0 OFFCURVE",
"294 0 CURVE SMOOTH"
);
},
{
closed = 1;
nodes = (
"236 622 OFFCURVE",
"102 611 OFFCURVE",
"102 697 CURVE SMOOTH",
"102 765 OFFCURVE",
"111 789 OFFCURVE",
"111 888 CURVE SMOOTH",
"111 944 OFFCURVE",
"80 1001 OFFCURVE",
"80 1040 CURVE SMOOTH",
"80 1058 OFFCURVE",
"81 1093 OFFCURVE",
"100 1093 CURVE SMOOTH",
"160 1093 OFFCURVE",
"177 885 OFFCURVE",
"182 757 CURVE",
"220 764 OFFCURVE",
"247 766 OFFCURVE",
"279 766 CURVE SMOOTH",
"326 766 OFFCURVE",
"381 758 OFFCURVE",
"418 728 CURVE",
"438 749 LINE",
"399 780 OFFCURVE",
"346 794 OFFCURVE",
"301 794 CURVE SMOOTH",
"271 794 OFFCURVE",
"239 792 OFFCURVE",
"208 791 CURVE",
"207 805 OFFCURVE",
"205 822 OFFCURVE",
"203 840 CURVE",
"210 838 OFFCURVE",
"218 837 OFFCURVE",
"225 837 CURVE SMOOTH",
"243 837 OFFCURVE",
"255 842 OFFCURVE",
"262 854 CURVE",
"273 847 OFFCURVE",
"288 842 OFFCURVE",
"302 842 CURVE SMOOTH",
"314 842 OFFCURVE",
"323 844 OFFCURVE",
"330 849 CURVE",
"339 843 OFFCURVE",
"358 834 OFFCURVE",
"367 834 CURVE SMOOTH",
"373 834 OFFCURVE",
"378 835 OFFCURVE",
"383 837 CURVE",
"390 821 OFFCURVE",
"401 816 OFFCURVE",
"413 816 CURVE SMOOTH",
"441 816 OFFCURVE",
"457 826 OFFCURVE",
"467 845 CURVE",
"468 841 OFFCURVE",
"468 836 OFFCURVE",
"468 831 CURVE SMOOTH",
"468 760 OFFCURVE",
"436 654 OFFCURVE",
"436 549 CURVE SMOOTH",
"436 519 LINE",
"256 519 LINE"
);
},
{
closed = 1;
nodes = (
"216 863 OFFCURVE",
"208 865 OFFCURVE",
"199 870 CURVE",
"188 950 OFFCURVE",
"179 1006 OFFCURVE",
"167 1055 CURVE",
"175 1069 OFFCURVE",
"187 1073 OFFCURVE",
"199 1073 CURVE SMOOTH",
"237 1073 OFFCURVE",
"240 958 OFFCURVE",
"240 910 CURVE SMOOTH",
"240 888 OFFCURVE",
"236 863 OFFCURVE",
"220 863 CURVE SMOOTH"
);
},
{
closed = 1;
nodes = (
"710 30 OFFCURVE",
"708 51 OFFCURVE",
"708 53 CURVE",
"705 84 OFFCURVE",
"700 130 OFFCURVE",
"700 168 CURVE SMOOTH",
"700 252 OFFCURVE",
"744 304 OFFCURVE",
"744 386 CURVE SMOOTH",
"744 471 OFFCURVE",
"676 533 OFFCURVE",
"676 592 CURVE SMOOTH",
"676 646 OFFCURVE",
"739 727 OFFCURVE",
"761 819 CURVE",
"776 795 OFFCURVE",
"783 778 OFFCURVE",
"783 763 CURVE SMOOTH",
"783 714 OFFCURVE",
"751 669 OFFCURVE",
"751 614 CURVE SMOOTH",
"751 542 OFFCURVE",
"820 483 OFFCURVE",
"820 409 CURVE SMOOTH",
"820 348 OFFCURVE",
"785 286 OFFCURVE",
"785 198 CURVE SMOOTH",
"785 187 OFFCURVE",
"786 177 OFFCURVE",
"786 166 CURVE",
"787 141 OFFCURVE",
"794 70 OFFCURVE",
"794 60 CURVE SMOOTH",
"794 47 OFFCURVE",
"790 30 OFFCURVE",
"768 30 CURVE SMOOTH",
"724 30 LINE SMOOTH"
);
},
{
closed = 1;
nodes = (
"782 0 LINE SMOOTH",
"819 0 OFFCURVE",
"824 26 OFFCURVE",
"824 54 CURVE SMOOTH",
"824 89 OFFCURVE",
"817 146 OFFCURVE",
"816 170 CURVE",
"816 182 OFFCURVE",
"815 193 OFFCURVE",
"815 205 CURVE SMOOTH",
"815 287 OFFCURVE",
"849 347 OFFCURVE",
"849 413 CURVE SMOOTH",
"849 498 OFFCURVE",
"781 560 OFFCURVE",
"781 619 CURVE SMOOTH",
"781 665 OFFCURVE",
"812 712 OFFCURVE",
"812 765 CURVE SMOOTH",
"812 792 OFFCURVE",
"788 831 OFFCURVE",
"759 869 CURVE",
"745 862 LINE",
"718 743 OFFCURVE",
"646 667 OFFCURVE",
"646 587 CURVE SMOOTH",
"646 515 OFFCURVE",
"715 456 OFFCURVE",
"715 382 CURVE SMOOTH",
"715 309 OFFCURVE",
"670 255 OFFCURVE",
"670 176 CURVE SMOOTH",
"670 132 OFFCURVE",
"675 89 OFFCURVE",
"678 45 CURVE SMOOTH",
"680 14 OFFCURVE",
"687 0 OFFCURVE",
"719 0 CURVE SMOOTH"
);
},
{
closed = 1;
nodes = (
"292 868 OFFCURVE",
"282 869 OFFCURVE",
"269 880 CURVE",
"271 889 OFFCURVE",
"271 899 OFFCURVE",
"271 910 CURVE SMOOTH",
"271 977 OFFCURVE",
"268 1034 OFFCURVE",
"250 1068 CURVE",
"257 1076 OFFCURVE",
"266 1078 OFFCURVE",
"276 1078 CURVE SMOOTH",
"314 1078 OFFCURVE",
"317 963 OFFCURVE",
"317 915 CURVE SMOOTH",
"317 893 OFFCURVE",
"313 868 OFFCURVE",
"297 868 CURVE SMOOTH"
);
},
{
closed = 1;
nodes = (
"359 863 OFFCURVE",
"352 865 OFFCURVE",
"344 871 CURVE",
"347 882 OFFCURVE",
"348 897 OFFCURVE",
"348 915 CURVE SMOOTH",
"348 961 OFFCURVE",
"346 1002 OFFCURVE",
"340 1034 CURVE",
"345 1045 OFFCURVE",
"353 1056 OFFCURVE",
"360 1056 CURVE SMOOTH",
"388 1056 OFFCURVE",
"391 951 OFFCURVE",
"391 925 CURVE SMOOTH",
"391 885 OFFCURVE",
"386 863 OFFCURVE",
"364 863 CURVE SMOOTH"
);
},
{
closed = 1;
nodes = (
"1035 30 OFFCURVE",
"1011 34 OFFCURVE",
"1011 65 CURVE SMOOTH",
"1011 140 OFFCURVE",
"1050 177 OFFCURVE",
"1062 398 CURVE",
"1252 398 LINE",
"1267 214 LINE SMOOTH",
"1269 185 OFFCURVE",
"1271 133 OFFCURVE",
"1271 109 CURVE SMOOTH",
"1271 55 OFFCURVE",
"1257 30 OFFCURVE",
"1194 30 CURVE SMOOTH",
"1066 30 LINE SMOOTH"
);
},
{
closed = 1;
nodes = (
"411 847 OFFCURVE",
"407 850 OFFCURVE",
"404 854 CURVE",
"415 872 OFFCURVE",
"418 898 OFFCURVE",
"418 921 CURVE SMOOTH",
"418 943 OFFCURVE",
"418 988 OFFCURVE",
"410 1025 CURVE",
"415 1030 OFFCURVE",
"420 1032 OFFCURVE",
"424 1032 CURVE SMOOTH",
"449 1032 OFFCURVE",
"450 987 OFFCURVE",
"450 945 CURVE SMOOTH",
"450 883 OFFCURVE",
"444 847 OFFCURVE",
"417 847 CURVE SMOOTH"
);
},
{
closed = 1;
nodes = (
"494 877 OFFCURVE",
"489 894 OFFCURVE",
"481 911 CURVE",
"482 924 OFFCURVE",
"482 939 OFFCURVE",
"482 956 CURVE SMOOTH",
"482 963 OFFCURVE",
"482 970 OFFCURVE",
"481 977 CURVE",
"697 915 LINE",
"496 859 LINE"
);
},
{
closed = 1;
nodes = (
"1064 447 OFFCURVE",
"1065 467 OFFCURVE",
"1065 489 CURVE",
"1245 489 LINE",
"1250 428 LINE",
"1064 428 LINE"
);
},
{
closed = 1;
nodes = (
"801 915 LINE",
"1021 979 LINE",
"1020 971 OFFCURVE",
"1020 964 OFFCURVE",
"1020 956 CURVE SMOOTH",
"1020 939 OFFCURVE",
"1020 924 OFFCURVE",
"1021 911 CURVE",
"1012 894 OFFCURVE",
"1008 876 OFFCURVE",
"1006 858 CURVE"
);
},
{
closed = 1;
nodes = (
"1058 847 OFFCURVE",
"1052 883 OFFCURVE",
"1052 945 CURVE SMOOTH",
"1052 987 OFFCURVE",
"1053 1032 OFFCURVE",
"1078 1032 CURVE SMOOTH",
"1082 1032 OFFCURVE",
"1087 1030 OFFCURVE",
"1092 1025 CURVE",
"1084 988 OFFCURVE",
"1084 943 OFFCURVE",
"1084 921 CURVE SMOOTH",
"1084 898 OFFCURVE",
"1087 872 OFFCURVE",
"1098 854 CURVE",
"1095 850 OFFCURVE",
"1091 847 OFFCURVE",
"1085 847 CURVE SMOOTH"
);
},
{
closed = 1;
nodes = (
"1066 549 LINE SMOOTH",
"1066 654 OFFCURVE",
"1034 760 OFFCURVE",
"1034 831 CURVE SMOOTH",
"1034 836 OFFCURVE",
"1034 841 OFFCURVE",
"1035 845 CURVE",
"1045 826 OFFCURVE",
"1061 816 OFFCURVE",
"1089 816 CURVE SMOOTH",
"1101 816 OFFCURVE",
"1112 821 OFFCURVE",
"1119 837 CURVE",
"1124 835 OFFCURVE",
"1129 834 OFFCURVE",
"1135 834 CURVE SMOOTH",
"1144 834 OFFCURVE",
"1163 843 OFFCURVE",
"1172 849 CURVE",
"1179 844 OFFCURVE",
"1188 842 OFFCURVE",
"1200 842 CURVE SMOOTH",
"1214 842 OFFCURVE",
"1229 847 OFFCURVE",
"1240 854 CURVE",
"1247 842 OFFCURVE",
"1259 837 OFFCURVE",
"1277 837 CURVE SMOOTH",
"1284 837 OFFCURVE",
"1292 838 OFFCURVE",
"1299 840 CURVE",
"1297 822 OFFCURVE",
"1295 805 OFFCURVE",
"1294 791 CURVE",
"1263 792 OFFCURVE",
"1231 794 OFFCURVE",
"1201 794 CURVE SMOOTH",
"1156 794 OFFCURVE",
"1103 780 OFFCURVE",
"1064 749 CURVE",
"1084 728 LINE",
"1121 758 OFFCURVE",
"1176 766 OFFCURVE",
"1223 766 CURVE SMOOTH",
"1255 766 OFFCURVE",
"1282 764 OFFCURVE",
"1320 757 CURVE",
"1325 885 OFFCURVE",
"1342 1093 OFFCURVE",
"1402 1093 CURVE SMOOTH",
"1421 1093 OFFCURVE",
"1422 1058 OFFCURVE",
"1422 1040 CURVE SMOOTH",
"1422 1001 OFFCURVE",
"1391 944 OFFCURVE",
"1391 888 CURVE SMOOTH",
"1391 789 OFFCURVE",
"1400 765 OFFCURVE",
"1400 697 CURVE SMOOTH",
"1400 611 OFFCURVE",
"1266 622 OFFCURVE",
"1246 519 CURVE",
"1066 519 LINE"
);
},
{
closed = 1;
nodes = (
"1116 863 OFFCURVE",
"1111 885 OFFCURVE",
"1111 925 CURVE SMOOTH",
"1111 951 OFFCURVE",
"1114 1056 OFFCURVE",
"1142 1056 CURVE SMOOTH",
"1149 1056 OFFCURVE",
"1157 1045 OFFCURVE",
"1162 1034 CURVE",
"1156 1002 OFFCURVE",
"1154 961 OFFCURVE",
"1154 915 CURVE SMOOTH",
"1154 897 OFFCURVE",
"1155 882 OFFCURVE",
"1158 871 CURVE",
"1150 865 OFFCURVE",
"1143 863 OFFCURVE",
"1138 863 CURVE SMOOTH"
);
},
{
closed = 1;
nodes = (
"1189 868 OFFCURVE",
"1185 893 OFFCURVE",
"1185 915 CURVE SMOOTH",
"1185 963 OFFCURVE",
"1188 1078 OFFCURVE",
"1226 1078 CURVE SMOOTH",
"1236 1078 OFFCURVE",
"1245 1076 OFFCURVE",
"1252 1068 CURVE",
"1234 1034 OFFCURVE",
"1231 977 OFFCURVE",
"1231 910 CURVE SMOOTH",
"1231 899 OFFCURVE",
"1231 889 OFFCURVE",
"1233 880 CURVE",
"1220 869 OFFCURVE",
"1210 868 OFFCURVE",
"1205 868 CURVE SMOOTH"
);
},
{
closed = 1;
nodes = (
"1266 863 OFFCURVE",
"1262 888 OFFCURVE",
"1262 910 CURVE SMOOTH",
"1262 958 OFFCURVE",
"1265 1073 OFFCURVE",
"1303 1073 CURVE SMOOTH",
"1315 1073 OFFCURVE",
"1327 1069 OFFCURVE",
"1335 1055 CURVE",
"1329 1031 LINE SMOOTH",
"1321 998 OFFCURVE",
"1311 930 OFFCURVE",
"1303 870 CURVE",
"1294 865 OFFCURVE",
"1286 863 OFFCURVE",
"1282 863 CURVE SMOOTH"
);
}
);
width = 1502;
}
);
unicode = 1441F;
},
{
glyphname = u14420;
lastChange = "2017-06-15 15:44:51 +0000";
layers = (
{
layerId = UUID0;
paths = (
{
closed = 1;
nodes = (
"390 -24 OFFCURVE",
"433 84 OFFCURVE",
"616 262 CURVE",
"799 84 OFFCURVE",
"842 -24 OFFCURVE",
"897 -24 CURVE SMOOTH",
"916 -24 OFFCURVE",
"931 -8 OFFCURVE",
"950 16 CURVE SMOOTH",
"1046 135 LINE SMOOTH",
"1064 157 OFFCURVE",
"1072 178 OFFCURVE",
"1072 196 CURVE SMOOTH",
"1072 243 OFFCURVE",
"997 293 OFFCURVE",
"927 344 CURVE SMOOTH",
"809 430 LINE",
"913 505 OFFCURVE",
"1046 527 OFFCURVE",
"1084 613 CURVE",
"1133 642 OFFCURVE",
"1182 689 OFFCURVE",
"1182 723 CURVE SMOOTH",
"1182 740 OFFCURVE",
"1169 757 OFFCURVE",
"1150 766 CURVE",
"1154 774 OFFCURVE",
"1156 783 OFFCURVE",
"1156 792 CURVE SMOOTH",
"1156 818 OFFCURVE",
"1131 829 OFFCURVE",
"1111 830 CURVE",
"1116 841 OFFCURVE",
"1119 853 OFFCURVE",
"1119 865 CURVE SMOOTH",
"1119 881 OFFCURVE",
"1110 911 OFFCURVE",
"1066 913 CURVE",
"1067 916 OFFCURVE",
"1067 919 OFFCURVE",
"1067 922 CURVE SMOOTH",
"1067 940 OFFCURVE",
"1058 969 OFFCURVE",
"1014 970 CURVE",
"1019 983 OFFCURVE",
"1022 995 OFFCURVE",
"1022 1006 CURVE SMOOTH",
"1022 1042 OFFCURVE",
"991 1058 OFFCURVE",
"974 1058 CURVE SMOOTH",
"909 1058 OFFCURVE",
"864 948 OFFCURVE",
"823 915 CURVE SMOOTH",
"715 828 OFFCURVE",
"660 838 OFFCURVE",
"660 761 CURVE SMOOTH",
"660 729 OFFCURVE",
"674 698 OFFCURVE",
"674 665 CURVE SMOOTH",
"674 645 OFFCURVE",
"664 607 OFFCURVE",
"642 591 CURVE SMOOTH",
"616 572 LINE",
"590 591 LINE SMOOTH",
"568 607 OFFCURVE",
"558 645 OFFCURVE",
"558 665 CURVE SMOOTH",
"558 698 OFFCURVE",
"572 729 OFFCURVE",
"572 761 CURVE SMOOTH",
"572 838 OFFCURVE",
"517 828 OFFCURVE",
"409 915 CURVE SMOOTH",
"368 948 OFFCURVE",
"323 1058 OFFCURVE",
"258 1058 CURVE SMOOTH",
"241 1058 OFFCURVE",
"210 1042 OFFCURVE",
"210 1006 CURVE SMOOTH",
"210 995 OFFCURVE",
"213 983 OFFCURVE",
"218 970 CURVE",
"174 969 OFFCURVE",
"165 940 OFFCURVE",
"165 922 CURVE SMOOTH",
"165 919 OFFCURVE",
"165 916 OFFCURVE",
"166 913 CURVE",
"122 911 OFFCURVE",
"113 881 OFFCURVE",
"113 865 CURVE SMOOTH",
"113 853 OFFCURVE",
"116 841 OFFCURVE",
"121 830 CURVE",
"101 829 OFFCURVE",
"76 818 OFFCURVE",
"76 792 CURVE SMOOTH",
"76 783 OFFCURVE",
"78 774 OFFCURVE",
"82 766 CURVE",
"63 757 OFFCURVE",
"50 740 OFFCURVE",
"50 723 CURVE SMOOTH",
"50 689 OFFCURVE",
"99 642 OFFCURVE",
"147 613 CURVE",
"185 527 OFFCURVE",
"319 505 OFFCURVE",
"423 431 CURVE",
"305 344 LINE SMOOTH",
"235 292 OFFCURVE",
"160 243 OFFCURVE",
"160 196 CURVE SMOOTH",
"160 178 OFFCURVE",
"168 157 OFFCURVE",
"186 135 CURVE SMOOTH",
"282 16 LINE SMOOTH",
"301 -8 OFFCURVE",
"316 -24 OFFCURVE",
"335 -24 CURVE SMOOTH"
);
},
{
closed = 1;
nodes = (
"186 617 OFFCURVE",
"85 687 OFFCURVE",
"85 721 CURVE SMOOTH",
"85 727 OFFCURVE",
"88 735 OFFCURVE",
"101 737 CURVE",
"118 717 OFFCURVE",
"140 699 OFFCURVE",
"156 686 CURVE SMOOTH",
"174 671 OFFCURVE",
"206 649 OFFCURVE",
"235 643 CURVE",
"236 640 OFFCURVE",
"237 637 OFFCURVE",
"237 634 CURVE SMOOTH",
"237 624 OFFCURVE",
"229 617 OFFCURVE",
"219 617 CURVE SMOOTH"
);
},
{
closed = 1;
nodes = (
"223 670 OFFCURVE",
"194 690 OFFCURVE",
"169 710 CURVE SMOOTH",
"151 724 OFFCURVE",
"108 762 OFFCURVE",
"108 789 CURVE SMOOTH",
"108 798 OFFCURVE",
"114 801 OFFCURVE",
"124 801 CURVE SMOOTH",
"129 801 OFFCURVE",
"135 800 OFFCURVE",
"140 799 CURVE",
"159 775 OFFCURVE",
"189 751 OFFCURVE",
"224 721 CURVE SMOOTH",
"238 709 OFFCURVE",
"250 701 OFFCURVE",
"261 697 CURVE",
"261 695 LINE SMOOTH",
"261 678 OFFCURVE",
"252 670 OFFCURVE",
"242 670 CURVE SMOOTH"
);
},
{
closed = 1;
nodes = (
"270 726 OFFCURVE",
"256 735 OFFCURVE",
"244 745 CURVE SMOOTH",
"210 773 OFFCURVE",
"142 829 OFFCURVE",
"142 866 CURVE SMOOTH",
"142 879 OFFCURVE",
"158 890 OFFCURVE",
"171 890 CURVE",
"186 855 OFFCURVE",
"223 820 OFFCURVE",
"276 778 CURVE SMOOTH",
"285 771 OFFCURVE",
"293 765 OFFCURVE",
"301 760 CURVE",
"301 755 LINE SMOOTH",
"301 730 OFFCURVE",
"288 726 OFFCURVE",
"282 726 CURVE SMOOTH"
);
},
{
closed = 1;
nodes = (
"886 13 OFFCURVE",
"879 16 OFFCURVE",
"872 22 CURVE",
"820 63 OFFCURVE",
"773 150 OFFCURVE",
"638 284 CURVE",
"679 323 OFFCURVE",
"728 366 OFFCURVE",
"785 412 CURVE",
"915 315 LINE SMOOTH",
"976 269 OFFCURVE",
"1038 228 OFFCURVE",
"1038 196 CURVE SMOOTH",
"1038 180 OFFCURVE",
"1030 164 OFFCURVE",
"1013 143 CURVE SMOOTH",
"934 43 LINE SMOOTH",
"921 26 OFFCURVE",
"907 14 OFFCURVE",
"893 13 CURVE"
);
},
{
closed = 1;
nodes = (
"325 14 OFFCURVE",
"311 26 OFFCURVE",
"298 43 CURVE SMOOTH",
"219 143 LINE SMOOTH",
"202 164 OFFCURVE",
"194 180 OFFCURVE",
"194 196 CURVE SMOOTH",
"194 228 OFFCURVE",
"256 270 OFFCURVE",
"317 315 CURVE SMOOTH",
"664 572 LINE SMOOTH",
"698 597 OFFCURVE",
"704 631 OFFCURVE",
"704 662 CURVE SMOOTH",
"704 696 OFFCURVE",
"694 729 OFFCURVE",
"694 758 CURVE SMOOTH",
"694 828 OFFCURVE",
"748 817 OFFCURVE",
"835 886 CURVE SMOOTH",
"902 939 OFFCURVE",
"923 1028 OFFCURVE",
"977 1028 CURVE SMOOTH",
"988 1028 OFFCURVE",
"994 1016 OFFCURVE",
"994 1005 CURVE SMOOTH",
"994 946 OFFCURVE",
"864 824 OFFCURVE",
"777 749 CURVE",
"836 698 OFFCURVE",
"902 626 OFFCURVE",
"902 547 CURVE",
"931 544 LINE",
"929 634 OFFCURVE",
"872 688 OFFCURVE",
"820 750 CURVE",
"831 760 OFFCURVE",
"845 773 OFFCURVE",
"859 788 CURVE",
"867 767 OFFCURVE",
"884 750 OFFCURVE",
"901 750 CURVE SMOOTH",
"906 750 LINE",
"909 724 OFFCURVE",
"926 699 OFFCURVE",
"946 694 CURVE",
"947 674 OFFCURVE",
"953 653 OFFCURVE",
"969 645 CURVE",
"965 639 OFFCURVE",
"964 632 OFFCURVE",
"964 627 CURVE SMOOTH",
"964 600 OFFCURVE",
"995 587 OFFCURVE",
"1013 587 CURVE SMOOTH",
"1018 587 OFFCURVE",
"1024 588 OFFCURVE",
"1031 590 CURVE",
"985 541 OFFCURVE",
"865 514 OFFCURVE",
"773 441 CURVE SMOOTH",
"491 218 OFFCURVE",
"430 77 OFFCURVE",
"360 22 CURVE",
"353 16 OFFCURVE",
"346 13 OFFCURVE",
"339 13 CURVE"
);
},
{
closed = 1;
nodes = (
"358 516 OFFCURVE",
"245 543 OFFCURVE",
"201 590 CURVE",
"207 588 OFFCURVE",
"214 587 OFFCURVE",
"219 587 CURVE SMOOTH",
"237 587 OFFCURVE",
"268 600 OFFCURVE",
"268 627 CURVE SMOOTH",
"268 632 OFFCURVE",
"267 639 OFFCURVE",
"263 645 CURVE",
"279 653 OFFCURVE",
"285 674 OFFCURVE",
"286 694 CURVE",
"306 699 OFFCURVE",
"323 724 OFFCURVE",
"326 750 CURVE",
"331 750 LINE SMOOTH",
"348 750 OFFCURVE",
"365 767 OFFCURVE",
"373 788 CURVE",
"387 773 OFFCURVE",
"401 760 OFFCURVE",
"412 750 CURVE",
"360 688 OFFCURVE",
"303 634 OFFCURVE",
"301 544 CURVE",
"330 547 LINE",
"330 626 OFFCURVE",
"396 698 OFFCURVE",
"455 749 CURVE",
"368 824 OFFCURVE",
"238 946 OFFCURVE",
"238 1005 CURVE SMOOTH",
"238 1016 OFFCURVE",
"244 1028 OFFCURVE",
"255 1028 CURVE SMOOTH",
"309 1028 OFFCURVE",
"330 939 OFFCURVE",
"397 886 CURVE SMOOTH",
"484 817 OFFCURVE",
"538 828 OFFCURVE",
"538 758 CURVE SMOOTH",
"538 729 OFFCURVE",
"528 696 OFFCURVE",
"528 662 CURVE SMOOTH",
"528 631 OFFCURVE",
"534 598 OFFCURVE",
"568 572 CURVE SMOOTH",
"592 554 LINE",
"449 449 LINE"
);
},
{
closed = 1;
nodes = (
"322 783 OFFCURVE",
"308 792 OFFCURVE",
"296 802 CURVE SMOOTH",
"262 830 OFFCURVE",
"194 886 OFFCURVE",
"194 923 CURVE SMOOTH",
"194 936 OFFCURVE",
"209 947 OFFCURVE",
"223 947 CURVE SMOOTH",
"226 947 OFFCURVE",
"228 947 OFFCURVE",
"231 946 CURVE",
"236 940 OFFCURVE",
"240 934 OFFCURVE",
"246 927 CURVE SMOOTH",
"267 902 OFFCURVE",
"311 853 OFFCURVE",
"352 810 CURVE",
"350 797 OFFCURVE",
"346 783 OFFCURVE",
"334 783 CURVE SMOOTH"
);
},
{
closed = 1;
nodes = (
"1003 617 OFFCURVE",
"995 624 OFFCURVE",
"995 634 CURVE SMOOTH",
"995 637 OFFCURVE",
"996 640 OFFCURVE",
"997 643 CURVE",
"1026 649 OFFCURVE",
"1058 671 OFFCURVE",
"1076 686 CURVE SMOOTH",
"1092 699 OFFCURVE",
"1114 717 OFFCURVE",
"1131 737 CURVE",
"1144 735 OFFCURVE",
"1147 727 OFFCURVE",
"1147 721 CURVE SMOOTH",
"1147 687 OFFCURVE",
"1046 617 OFFCURVE",
"1013 617 CURVE SMOOTH"
);
},
{
closed = 1;
nodes = (
"980 670 OFFCURVE",
"971 678 OFFCURVE",
"971 695 CURVE SMOOTH",
"971 697 LINE",
"982 701 OFFCURVE",
"994 709 OFFCURVE",
"1008 721 CURVE SMOOTH",
"1044 752 OFFCURVE",
"1073 775 OFFCURVE",
"1092 799 CURVE",
"1097 800 OFFCURVE",
"1103 801 OFFCURVE",
"1108 801 CURVE SMOOTH",
"1118 801 OFFCURVE",
"1124 798 OFFCURVE",
"1124 789 CURVE SMOOTH",
"1124 762 OFFCURVE",
"1081 724 OFFCURVE",
"1063 710 CURVE SMOOTH",
"1038 690 OFFCURVE",
"1009 670 OFFCURVE",
"990 670 CURVE SMOOTH"
);
},
{
closed = 1;
nodes = (
"944 726 OFFCURVE",
"931 730 OFFCURVE",
"931 755 CURVE SMOOTH",
"931 760 LINE",
"939 765 OFFCURVE",
"947 771 OFFCURVE",
"956 778 CURVE SMOOTH",
"1008 819 OFFCURVE",
"1046 855 OFFCURVE",
"1061 890 CURVE",
"1074 890 OFFCURVE",
"1090 879 OFFCURVE",
"1090 866 CURVE SMOOTH",
"1090 829 OFFCURVE",
"1022 773 OFFCURVE",
"988 745 CURVE SMOOTH",
"976 735 OFFCURVE",
"962 726 OFFCURVE",
"950 726 CURVE SMOOTH"
);
},
{
closed = 1;
nodes = (
"886 783 OFFCURVE",
"882 797 OFFCURVE",
"880 810 CURVE",
"921 853 OFFCURVE",
"965 902 OFFCURVE",
"986 927 CURVE SMOOTH",
"992 934 OFFCURVE",
"996 940 OFFCURVE",
"1001 946 CURVE",
"1004 947 OFFCURVE",
"1006 947 OFFCURVE",
"1009 947 CURVE SMOOTH",
"1023 947 OFFCURVE",
"1038 936 OFFCURVE",
"1038 923 CURVE SMOOTH",
"1038 886 OFFCURVE",
"970 830 OFFCURVE",
"936 802 CURVE SMOOTH",
"924 792 OFFCURVE",
"910 783 OFFCURVE",
"898 783 CURVE SMOOTH"
);
}
);
width = 1232;
}
);
unicode = 14420;
},
{
glyphname = u14421;
lastChange = "2017-06-15 15:44:51 +0000";
layers = (
{
layerId = UUID0;
paths = (
{
closed = 1;
nodes = (
"425 -18 OFFCURVE",
"466 8 OFFCURVE",
"510 39 CURVE SMOOTH",
"645 133 LINE SMOOTH",
"742 201 OFFCURVE",
"810 376 OFFCURVE",
"810 451 CURVE SMOOTH",
"810 570 OFFCURVE",
"745 613 OFFCURVE",
"689 613 CURVE SMOOTH",
"634 613 OFFCURVE",
"580 597 OFFCURVE",
"518 502 CURVE SMOOTH",
"439 382 LINE",
"433 372 OFFCURVE",
"420 352 OFFCURVE",
"414 340 CURVE",
"386 485 OFFCURVE",
"260 640 OFFCURVE",
"117 640 CURVE SMOOTH",
"88 640 OFFCURVE",
"68 624 OFFCURVE",
"68 603 CURVE SMOOTH",
"68 581 OFFCURVE",
"95 560 OFFCURVE",
"95 548 CURVE SMOOTH",
"95 524 OFFCURVE",
"50 502 OFFCURVE",
"50 472 CURVE SMOOTH",
"50 362 OFFCURVE",
"237 451 OFFCURVE",
"255 305 CURVE SMOOTH",
"269 189 OFFCURVE",
"269 -18 OFFCURVE",
"376 -18 CURVE SMOOTH"
);
},
{
closed = 1;
nodes = (
"287 13 OFFCURVE",
"312 264 OFFCURVE",
"263 370 CURVE SMOOTH",
"219 465 OFFCURVE",
"83 405 OFFCURVE",
"83 477 CURVE SMOOTH",
"83 490 OFFCURVE",
"125 503 OFFCURVE",
"125 547 CURVE SMOOTH",
"125 575 OFFCURVE",
"99 594 OFFCURVE",
"99 601 CURVE SMOOTH",
"99 604 OFFCURVE",
"109 608 OFFCURVE",
"115 608 CURVE SMOOTH",
"281 608 OFFCURVE",
"366 430 OFFCURVE",
"397 295 CURVE",
"397 252 OFFCURVE",
"426 216 OFFCURVE",
"431 173 CURVE",
"462 176 LINE",
"459 206 OFFCURVE",
"427 244 OFFCURVE",
"427 286 CURVE SMOOTH",
"427 297 OFFCURVE",
"428 310 OFFCURVE",
"433 323 CURVE",
"516 278 OFFCURVE",
"585 231 OFFCURVE",
"650 177 CURVE",
"641 166 OFFCURVE",
"632 158 OFFCURVE",
"624 153 CURVE",
"501 68 LINE SMOOTH",
"469 46 OFFCURVE",
"414 13 OFFCURVE",
"379 13 CURVE SMOOTH"
);
},
{
closed = 1;
nodes = (
"600 256 OFFCURVE",
"526 300 OFFCURVE",
"444 343 CURVE",
"471 383 LINE",
"555 337 OFFCURVE",
"628 288 OFFCURVE",
"694 233 CURVE",
"685 219 OFFCURVE",
"676 207 OFFCURVE",
"667 196 CURVE"
);
},
{
closed = 1;
nodes = (
"640 315 OFFCURVE",
"565 360 OFFCURVE",
"483 402 CURVE",
"552 507 LINE SMOOTH",
"592 568 OFFCURVE",
"636 583 OFFCURVE",
"679 583 CURVE SMOOTH",
"739 583 OFFCURVE",
"777 549 OFFCURVE",
"777 454 CURVE SMOOTH",
"777 392 OFFCURVE",
"745 315 OFFCURVE",
"708 254 CURVE"
);
}
);
width = 860;
}
);
unicode = 14421;
},
{
glyphname = u14422;
lastChange = "2017-06-15 15:44:51 +0000";
layers = (
{
layerId = UUID0;
paths = (
{
closed = 1;
nodes = (
"425 -18 OFFCURVE",
"466 8 OFFCURVE",
"510 39 CURVE SMOOTH",
"645 133 LINE SMOOTH",
"742 201 OFFCURVE",
"810 376 OFFCURVE",
"810 451 CURVE SMOOTH",
"810 570 OFFCURVE",
"745 613 OFFCURVE",
"689 613 CURVE SMOOTH",
"634 613 OFFCURVE",
"580 597 OFFCURVE",
"518 502 CURVE SMOOTH",
"439 382 LINE",
"433 372 OFFCURVE",
"420 352 OFFCURVE",
"414 340 CURVE",
"386 485 OFFCURVE",
"260 640 OFFCURVE",
"117 640 CURVE SMOOTH",
"88 640 OFFCURVE",
"68 624 OFFCURVE",
"68 603 CURVE SMOOTH",
"68 581 OFFCURVE",
"95 560 OFFCURVE",
"95 548 CURVE SMOOTH",
"95 524 OFFCURVE",
"50 502 OFFCURVE",
"50 472 CURVE SMOOTH",
"50 362 OFFCURVE",
"237 451 OFFCURVE",
"255 305 CURVE SMOOTH",
"269 189 OFFCURVE",
"269 -18 OFFCURVE",
"376 -18 CURVE SMOOTH"
);
},
{
closed = 1;
nodes = (
"287 13 OFFCURVE",
"312 264 OFFCURVE",
"263 370 CURVE SMOOTH",
"219 465 OFFCURVE",
"83 405 OFFCURVE",
"83 477 CURVE SMOOTH",
"83 490 OFFCURVE",
"125 503 OFFCURVE",
"125 547 CURVE SMOOTH",
"125 575 OFFCURVE",
"99 594 OFFCURVE",
"99 601 CURVE SMOOTH",
"99 604 OFFCURVE",
"109 608 OFFCURVE",
"115 608 CURVE SMOOTH",
"281 608 OFFCURVE",
"366 430 OFFCURVE",
"397 295 CURVE",
"397 252 OFFCURVE",
"426 216 OFFCURVE",
"431 173 CURVE",
"462 176 LINE",
"459 206 OFFCURVE",
"427 244 OFFCURVE",
"427 286 CURVE SMOOTH",
"427 297 OFFCURVE",
"428 310 OFFCURVE",
"433 323 CURVE",
"516 278 OFFCURVE",
"585 231 OFFCURVE",
"650 177 CURVE",
"641 166 OFFCURVE",
"632 158 OFFCURVE",
"624 153 CURVE",
"501 68 LINE SMOOTH",
"469 46 OFFCURVE",
"414 13 OFFCURVE",
"379 13 CURVE SMOOTH"
);
},
{
closed = 1;
nodes = (
"600 256 OFFCURVE",
"526 300 OFFCURVE",
"444 343 CURVE",
"471 383 LINE",
"555 337 OFFCURVE",
"628 288 OFFCURVE",
"694 233 CURVE",
"685 219 OFFCURVE",
"676 207 OFFCURVE",
"667 196 CURVE"
);
},
{
closed = 1;
nodes = (
"385 817 LINE",
"224 978 LINE",
"64 817 LINE",
"224 660 LINE"
);
},
{
closed = 1;
nodes = (
"102 818 LINE",
"224 941 LINE",
"347 818 LINE",
"224 696 LINE"
);
},
{
closed = 1;
nodes = (
"640 315 OFFCURVE",
"565 360 OFFCURVE",
"483 402 CURVE",
"552 507 LINE SMOOTH",
"592 568 OFFCURVE",
"636 583 OFFCURVE",
"679 583 CURVE SMOOTH",
"739 583 OFFCURVE",
"777 549 OFFCURVE",
"777 454 CURVE SMOOTH",
"777 392 OFFCURVE",
"745 315 OFFCURVE",
"708 254 CURVE"
);
}
);
width = 860;
}
);
unicode = 14422;
},
{
glyphname = u14423;
lastChange = "2017-06-15 15:44:51 +0000";
layers = (
{
layerId = UUID0;
paths = (
{
closed = 1;
nodes = (
"823 -10 OFFCURVE",
"937 33 OFFCURVE",
"937 159 CURVE SMOOTH",
"937 241 OFFCURVE",
"894 302 OFFCURVE",
"894 384 CURVE SMOOTH",
"894 436 OFFCURVE",
"971 460 OFFCURVE",
"971 512 CURVE SMOOTH",
"971 554 OFFCURVE",
"944 571 OFFCURVE",
"908 571 CURVE SMOOTH",
"823 571 OFFCURVE",
"759 505 OFFCURVE",
"759 423 CURVE SMOOTH",
"759 379 OFFCURVE",
"763 327 OFFCURVE",
"764 280 CURVE",
"749 303 OFFCURVE",
"733 324 OFFCURVE",
"723 336 CURVE",
"556 552 LINE",
"635 604 OFFCURVE",
"660 650 OFFCURVE",
"660 696 CURVE SMOOTH",
"660 766 OFFCURVE",
"607 820 OFFCURVE",
"544 820 CURVE SMOOTH",
"490 820 OFFCURVE",
"442 772 OFFCURVE",
"414 734 CURVE",
"395 759 LINE SMOOTH",
"371 790 OFFCURVE",
"348 820 OFFCURVE",
"302 820 CURVE SMOOTH",
"249 820 OFFCURVE",
"210 792 OFFCURVE",
"210 751 CURVE SMOOTH",
"210 745 LINE",
"192 756 OFFCURVE",
"172 763 OFFCURVE",
"152 763 CURVE SMOOTH",
"102 763 OFFCURVE",
"71 722 OFFCURVE",
"71 681 CURVE SMOOTH",
"71 640 OFFCURVE",
"75 624 OFFCURVE",
"122 561 CURVE SMOOTH",
"153 520 LINE",
"75 469 OFFCURVE",
"50 422 OFFCURVE",
"50 377 CURVE SMOOTH",
"50 307 OFFCURVE",
"103 253 OFFCURVE",
"166 253 CURVE SMOOTH",
"219 253 OFFCURVE",
"267 300 OFFCURVE",
"295 337 CURVE",
"400 201 LINE SMOOTH",
"512 56 OFFCURVE",
"579 -10 OFFCURVE",
"731 -10 CURVE SMOOTH"
);
},
{
closed = 1;
nodes = (
"117 283 OFFCURVE",
"80 319 OFFCURVE",
"80 381 CURVE SMOOTH",
"80 433 OFFCURVE",
"130 474 OFFCURVE",
"168 501 CURVE",
"275 362 LINE",
"261 334 OFFCURVE",
"210 283 OFFCURVE",
"168 283 CURVE SMOOTH"
);
},
{
closed = 1;
nodes = (
"569 20 OFFCURVE",
"517 96 OFFCURVE",
"422 220 CURVE SMOOTH",
"133 598 LINE SMOOTH",
"108 630 OFFCURVE",
"101 645 OFFCURVE",
"101 678 CURVE SMOOTH",
"101 702 OFFCURVE",
"114 733 OFFCURVE",
"150 733 CURVE SMOOTH",
"182 733 OFFCURVE",
"206 722 OFFCURVE",
"232 688 CURVE SMOOTH",
"252 662 OFFCURVE",
"271 634 OFFCURVE",
"282 620 CURVE SMOOTH",
"610 197 LINE SMOOTH",
"634 166 OFFCURVE",
"670 134 OFFCURVE",
"703 134 CURVE SMOOTH",
"742 134 OFFCURVE",
"795 163 OFFCURVE",
"795 206 CURVE SMOOTH",
"795 281 OFFCURVE",
"787 403 OFFCURVE",
"787 430 CURVE SMOOTH",
"787 535 OFFCURVE",
"887 541 OFFCURVE",
"910 541 CURVE SMOOTH",
"924 541 OFFCURVE",
"943 534 OFFCURVE",
"943 512 CURVE SMOOTH",
"943 475 OFFCURVE",
"864 436 OFFCURVE",
"864 377 CURVE SMOOTH",
"864 305 OFFCURVE",
"910 230 OFFCURVE",
"910 157 CURVE SMOOTH",
"910 54 OFFCURVE",
"812 20 OFFCURVE",
"732 20 CURVE SMOOTH"
);
},
{
closed = 1;
nodes = (
"683 165 OFFCURVE",
"664 175 OFFCURVE",
"638 209 CURVE SMOOTH",
"297 651 LINE SMOOTH",
"289 662 OFFCURVE",
"270 683 OFFCURVE",
"259 701 CURVE SMOOTH",
"249 717 OFFCURVE",
"242 733 OFFCURVE",
"242 748 CURVE SMOOTH",
"242 773 OFFCURVE",
"271 790 OFFCURVE",
"302 790 CURVE SMOOTH",
"322 790 OFFCURVE",
"341 781 OFFCURVE",
"367 747 CURVE SMOOTH",
"712 299 LINE SMOOTH",
"731 275 OFFCURVE",
"765 241 OFFCURVE",
"765 208 CURVE SMOOTH",
"765 183 OFFCURVE",
"734 165 OFFCURVE",
"703 165 CURVE SMOOTH"
);
},
{
closed = 1;
nodes = (
"434 709 LINE",
"447 737 OFFCURVE",
"499 790 OFFCURVE",
"542 790 CURVE SMOOTH",
"593 790 OFFCURVE",
"630 754 OFFCURVE",
"630 692 CURVE SMOOTH",
"630 640 OFFCURVE",
"579 598 OFFCURVE",
"541 571 CURVE"
);
}
);
width = 1021;
}
);
unicode = 14423;
},
{
glyphname = u14424;
lastChange = "2017-06-15 15:44:51 +0000";
layers = (
{
layerId = UUID0;
paths = (
{
closed = 1;
nodes = (
"692 -9 OFFCURVE",
"758 41 OFFCURVE",
"758 142 CURVE SMOOTH",
"758 226 OFFCURVE",
"663 296 OFFCURVE",
"663 393 CURVE SMOOTH",
"663 409 OFFCURVE",
"676 429 OFFCURVE",
"698 429 CURVE SMOOTH",
"721 429 OFFCURVE",
"739 409 OFFCURVE",
"744 399 CURVE",
"763 412 LINE",
"755 429 OFFCURVE",
"732 459 OFFCURVE",
"698 459 CURVE SMOOTH",
"651 459 OFFCURVE",
"633 421 OFFCURVE",
"633 396 CURVE SMOOTH",
"633 291 OFFCURVE",
"728 221 OFFCURVE",
"728 142 CURVE SMOOTH",
"728 63 OFFCURVE",
"668 20 OFFCURVE",
"596 20 CURVE SMOOTH",
"498 20 OFFCURVE",
"422 142 OFFCURVE",
"391 195 CURVE SMOOTH",
"74 736 LINE",
"50 721 LINE",
"351 201 LINE SMOOTH",
"411 97 OFFCURVE",
"486 -9 OFFCURVE",
"597 -9 CURVE SMOOTH"
);
},
{
closed = 1;
nodes = (
"609 201 LINE",
"252 806 LINE",
"228 791 LINE",
"582 186 LINE"
);
}
);
width = 813;
}
);
unicode = 14424;
},
{
glyphname = u14425;
lastChange = "2017-06-15 15:44:51 +0000";
layers = (
{
layerId = UUID0;
paths = (
{
closed = 1;
nodes = (
"692 -9 OFFCURVE",
"758 41 OFFCURVE",
"758 142 CURVE SMOOTH",
"758 226 OFFCURVE",
"663 296 OFFCURVE",
"663 393 CURVE SMOOTH",
"663 409 OFFCURVE",
"676 429 OFFCURVE",
"698 429 CURVE SMOOTH",
"721 429 OFFCURVE",
"739 409 OFFCURVE",
"744 399 CURVE",
"763 412 LINE",
"755 429 OFFCURVE",
"732 459 OFFCURVE",
"698 459 CURVE SMOOTH",
"651 459 OFFCURVE",
"633 421 OFFCURVE",
"633 396 CURVE SMOOTH",
"633 291 OFFCURVE",
"728 221 OFFCURVE",
"728 142 CURVE SMOOTH",
"728 63 OFFCURVE",
"668 20 OFFCURVE",
"596 20 CURVE SMOOTH",
"498 20 OFFCURVE",
"422 142 OFFCURVE",
"391 195 CURVE SMOOTH",
"74 736 LINE",
"50 721 LINE",
"351 201 LINE SMOOTH",
"411 97 OFFCURVE",
"486 -9 OFFCURVE",
"597 -9 CURVE SMOOTH"
);
},
{
closed = 1;
nodes = (
"609 201 LINE",
"422 518 LINE",
"671 793 LINE SMOOTH",
"689 812 OFFCURVE",
"703 820 OFFCURVE",
"715 820 CURVE SMOOTH",
"733 820 OFFCURVE",
"750 804 OFFCURVE",
"750 786 CURVE SMOOTH",
"750 775 OFFCURVE",
"744 760 OFFCURVE",
"727 741 CURVE SMOOTH",
"696 706 LINE",
"718 686 LINE",
"749 721 LINE SMOOTH",
"773 748 OFFCURVE",
"782 769 OFFCURVE",
"782 787 CURVE SMOOTH",
"782 818 OFFCURVE",
"749 850 OFFCURVE",
"715 850 CURVE SMOOTH",
"696 850 OFFCURVE",
"674 841 OFFCURVE",
"649 813 CURVE SMOOTH",
"408 542 LINE",
"252 806 LINE",
"228 791 LINE",
"582 186 LINE"
);
}
);
width = 832;
}
);
unicode = 14425;
},
{
glyphname = u14426;
lastChange = "2017-06-15 15:44:51 +0000";
layers = (
{
layerId = UUID0;
paths = (
{
closed = 1;
nodes = (
"579 -20 OFFCURVE",
"720 189 OFFCURVE",
"858 269 CURVE SMOOTH",
"908 298 OFFCURVE",
"1079 318 OFFCURVE",
"1079 405 CURVE SMOOTH",
"1079 466 OFFCURVE",
"1036 490 OFFCURVE",
"962 490 CURVE SMOOTH",
"888 490 OFFCURVE",
"815 471 OFFCURVE",
"750 443 CURVE SMOOTH",
"686 416 OFFCURVE",
"610 330 OFFCURVE",
"547 330 CURVE SMOOTH",
"503 330 OFFCURVE",
"470 392 OFFCURVE",
"449 456 CURVE SMOOTH",
"411 573 LINE SMOOTH",
"384 657 OFFCURVE",
"355 700 OFFCURVE",
"304 700 CURVE SMOOTH",
"271 700 OFFCURVE",
"238 679 OFFCURVE",
"238 636 CURVE SMOOTH",
"238 606 OFFCURVE",
"252 567 OFFCURVE",
"264 535 CURVE SMOOTH",
"302 436 LINE SMOOTH",
"314 404 OFFCURVE",
"330 374 OFFCURVE",
"330 345 CURVE SMOOTH",
"330 338 OFFCURVE",
"330 324 OFFCURVE",
"318 324 CURVE SMOOTH",
"241 324 OFFCURVE",
"223 580 OFFCURVE",
"131 580 CURVE SMOOTH",
"95 580 OFFCURVE",
"50 553 OFFCURVE",
"50 495 CURVE SMOOTH",
"50 457 OFFCURVE",
"74 410 OFFCURVE",
"92 379 CURVE SMOOTH",
"161 258 OFFCURVE",
"261 -20 OFFCURVE",
"430 -20 CURVE SMOOTH"
);
},
{
closed = 1;
nodes = (
"283 9 OFFCURVE",
"184 279 OFFCURVE",
"119 390 CURVE SMOOTH",
"108 409 OFFCURVE",
"80 458 OFFCURVE",
"80 496 CURVE SMOOTH",
"80 533 OFFCURVE",
"103 550 OFFCURVE",
"126 550 CURVE SMOOTH",
"204 550 OFFCURVE",
"210 294 OFFCURVE",
"322 294 CURVE SMOOTH",
"353 294 OFFCURVE",
"359 316 OFFCURVE",
"359 339 CURVE SMOOTH",
"359 369 OFFCURVE",
"346 411 OFFCURVE",
"330 450 CURVE SMOOTH",
"284 565 LINE SMOOTH",
"275 588 OFFCURVE",
"270 614 OFFCURVE",
"270 639 CURVE SMOOTH",
"270 662 OFFCURVE",
"286 670 OFFCURVE",
"312 670 CURVE SMOOTH",
"342 670 OFFCURVE",
"368 610 OFFCURVE",
"381 571 CURVE SMOOTH",
"423 444 LINE SMOOTH",
"447 372 OFFCURVE",
"485 300 OFFCURVE",
"533 300 CURVE SMOOTH",
"635 300 OFFCURVE",
"699 388 OFFCURVE",
"763 417 CURVE SMOOTH",
"828 446 OFFCURVE",
"894 460 OFFCURVE",
"962 460 CURVE SMOOTH",
"1008 460 OFFCURVE",
"1049 441 OFFCURVE",
"1049 407 CURVE SMOOTH",
"1049 339 OFFCURVE",
"891 319 OFFCURVE",
"845 296 CURVE SMOOTH",
"737 241 OFFCURVE",
"551 9 OFFCURVE",
"430 9 CURVE SMOOTH"
);
}
);
width = 1129;
}
);
unicode = 14426;
},
{
glyphname = u14427;
lastChange = "2017-06-15 15:44:51 +0000";
layers = (
{
layerId = UUID0;
paths = (
{
closed = 1;
nodes = (
"678 -19 LINE",
"702 39 OFFCURVE",
"769 118 OFFCURVE",
"769 312 CURVE SMOOTH",
"769 419 OFFCURVE",
"718 512 OFFCURVE",
"634 577 CURVE",
"564 673 OFFCURVE",
"478 780 OFFCURVE",
"349 780 CURVE SMOOTH",
"296 780 OFFCURVE",
"266 760 OFFCURVE",
"266 716 CURVE SMOOTH",
"266 621 OFFCURVE",
"515 583 OFFCURVE",
"515 499 CURVE SMOOTH",
"515 473 OFFCURVE",
"498 473 OFFCURVE",
"474 473 CURVE SMOOTH",
"416 473 OFFCURVE",
"334 486 OFFCURVE",
"267 486 CURVE SMOOTH",
"186 486 OFFCURVE",
"50 467 OFFCURVE",
"50 380 CURVE SMOOTH",
"50 297 OFFCURVE",
"148 283 OFFCURVE",
"207 283 CURVE SMOOTH",
"262 283 OFFCURVE",
"319 296 OFFCURVE",
"382 296 CURVE SMOOTH",
"458 296 OFFCURVE",
"554 257 OFFCURVE",
"610 127 CURVE SMOOTH",
"631 78 OFFCURVE",
"631 27 OFFCURVE",
"643 -23 CURVE"
);
},
{
closed = 1;
nodes = (
"662 45 OFFCURVE",
"659 72 OFFCURVE",
"654 95 CURVE SMOOTH",
"631 200 OFFCURVE",
"520 326 OFFCURVE",
"385 326 CURVE SMOOTH",
"327 326 OFFCURVE",
"267 311 OFFCURVE",
"203 311 CURVE SMOOTH",
"144 311 OFFCURVE",
"81 329 OFFCURVE",
"81 375 CURVE SMOOTH",
"81 447 OFFCURVE",
"214 456 OFFCURVE",
"272 456 CURVE SMOOTH",
"347 456 OFFCURVE",
"409 443 OFFCURVE",
"473 443 CURVE SMOOTH",
"529 443 OFFCURVE",
"545 454 OFFCURVE",
"545 502 CURVE SMOOTH",
"545 605 OFFCURVE",
"297 647 OFFCURVE",
"297 716 CURVE SMOOTH",
"297 738 OFFCURVE",
"311 750 OFFCURVE",
"349 750 CURVE SMOOTH",
"457 750 OFFCURVE",
"538 650 OFFCURVE",
"606 559 CURVE",
"689 492 OFFCURVE",
"739 413 OFFCURVE",
"739 306 CURVE SMOOTH",
"739 178 OFFCURVE",
"718 123 OFFCURVE",
"665 22 CURVE"
);
}
);
width = 819;
}
);
unicode = 14427;
},
{
glyphname = u14428;
lastChange = "2017-06-15 15:44:51 +0000";
layers = (
{
layerId = UUID0;
paths = (
{
closed = 1;
nodes = (
"1198 91 OFFCURVE",
"1205 180 OFFCURVE",
"1205 228 CURVE SMOOTH",
"1205 346 LINE SMOOTH",
"1205 486 OFFCURVE",
"1149 490 OFFCURVE",
"1091 490 CURVE SMOOTH",
"1012 490 OFFCURVE",
"923 470 OFFCURVE",
"839 470 CURVE SMOOTH",
"668 470 LINE SMOOTH",
"650 470 OFFCURVE",
"619 501 OFFCURVE",
"605 518 CURVE SMOOTH",
"568 563 OFFCURVE",
"588 608 OFFCURVE",
"476 608 CURVE SMOOTH",
"411 608 OFFCURVE",
"373 597 OFFCURVE",
"280 597 CURVE SMOOTH",
"249 597 OFFCURVE",
"176 620 OFFCURVE",
"129 620 CURVE SMOOTH",
"97 620 OFFCURVE",
"57 602 OFFCURVE",
"57 562 CURVE SMOOTH",
"57 538 OFFCURVE",
"71 516 OFFCURVE",
"100 500 CURVE",
"75 485 OFFCURVE",
"65 464 OFFCURVE",
"65 452 CURVE SMOOTH",
"65 434 OFFCURVE",
"71 421 OFFCURVE",
"81 411 CURVE",
"59 397 OFFCURVE",
"50 376 OFFCURVE",
"50 365 CURVE SMOOTH",
"50 339 OFFCURVE",
"65 318 OFFCURVE",
"90 312 CURVE",
"79 302 OFFCURVE",
"70 289 OFFCURVE",
"70 273 CURVE SMOOTH",
"70 257 OFFCURVE",
"84 246 OFFCURVE",
"106 239 CURVE",
"96 227 OFFCURVE",
"92 213 OFFCURVE",
"92 199 CURVE SMOOTH",
"92 160 OFFCURVE",
"143 148 OFFCURVE",
"205 148 CURVE SMOOTH",
"220 148 LINE",
"229 126 OFFCURVE",
"255 110 OFFCURVE",
"291 110 CURVE SMOOTH",
"382 110 OFFCURVE",
"536 169 OFFCURVE",
"625 169 CURVE SMOOTH",
"1027 169 OFFCURVE",
"997 91 OFFCURVE",
"1139 91 CURVE SMOOTH"
);
},
{
closed = 1;
nodes = (
"190 180 OFFCURVE",
"125 181 OFFCURVE",
"125 206 CURVE SMOOTH",
"125 213 OFFCURVE",
"131 220 OFFCURVE",
"144 229 CURVE",
"192 220 OFFCURVE",
"251 220 OFFCURVE",
"274 220 CURVE SMOOTH",
"293 220 OFFCURVE",
"314 222 OFFCURVE",
"330 229 CURVE",
"339 226 OFFCURVE",
"345 220 OFFCURVE",
"345 212 CURVE SMOOTH",
"345 185 OFFCURVE",
"294 180 OFFCURVE",
"232 180 CURVE SMOOTH"
);
},
{
closed = 1;
nodes = (
"252 247 OFFCURVE",
"181 248 OFFCURVE",
"137 258 CURVE SMOOTH",
"116 263 OFFCURVE",
"101 269 OFFCURVE",
"101 278 CURVE SMOOTH",
"101 287 OFFCURVE",
"120 298 OFFCURVE",
"132 302 CURVE",
"174 294 OFFCURVE",
"229 289 OFFCURVE",
"277 289 CURVE SMOOTH",
"295 289 OFFCURVE",
"310 290 OFFCURVE",
"321 293 CURVE",
"327 285 OFFCURVE",
"329 278 OFFCURVE",
"329 273 CURVE SMOOTH",
"329 250 OFFCURVE",
"307 247 OFFCURVE",
"270 247 CURVE SMOOTH"
);
},
{
closed = 1;
nodes = (
"247 320 OFFCURVE",
"178 322 OFFCURVE",
"130 332 CURVE SMOOTH",
"100 338 OFFCURVE",
"79 348 OFFCURVE",
"79 362 CURVE SMOOTH",
"79 377 OFFCURVE",
"83 390 OFFCURVE",
"107 398 CURVE",
"150 386 OFFCURVE",
"226 376 OFFCURVE",
"292 376 CURVE SMOOTH",
"302 376 LINE",
"323 360 OFFCURVE",
"324 346 OFFCURVE",
"324 340 CURVE SMOOTH",
"324 324 OFFCURVE",
"299 320 OFFCURVE",
"277 320 CURVE SMOOTH"
);
},
{
closed = 1;
nodes = (
"244 407 OFFCURVE",
"94 411 OFFCURVE",
"94 449 CURVE SMOOTH",
"94 466 OFFCURVE",
"100 481 OFFCURVE",
"133 488 CURVE",
"146 485 LINE SMOOTH",
"179 477 OFFCURVE",
"254 467 OFFCURVE",
"319 459 CURVE",
"335 444 OFFCURVE",
"339 433 OFFCURVE",
"339 427 CURVE SMOOTH",
"339 411 OFFCURVE",
"314 407 OFFCURVE",
"292 407 CURVE SMOOTH"
);
},
{
closed = 1;
nodes = (
"273 136 OFFCURVE",
"261 142 OFFCURVE",
"252 149 CURVE",
"321 152 OFFCURVE",
"376 165 OFFCURVE",
"376 216 CURVE SMOOTH",
"376 229 OFFCURVE",
"370 241 OFFCURVE",
"352 247 CURVE",
"356 254 OFFCURVE",
"358 261 OFFCURVE",
"358 270 CURVE SMOOTH",
"358 281 OFFCURVE",
"350 298 OFFCURVE",
"343 307 CURVE",
"348 314 OFFCURVE",
"350 323 OFFCURVE",
"350 335 CURVE SMOOTH",
"350 351 OFFCURVE",
"344 368 OFFCURVE",
"334 380 CURVE",
"356 386 OFFCURVE",
"365 398 OFFCURVE",
"365 422 CURVE SMOOTH",
"365 433 OFFCURVE",
"362 444 OFFCURVE",
"357 454 CURVE",
"375 452 OFFCURVE",
"390 451 OFFCURVE",
"403 450 CURVE",
"402 419 OFFCURVE",
"400 387 OFFCURVE",
"400 357 CURVE SMOOTH",
"400 311 OFFCURVE",
"414 257 OFFCURVE",
"448 217 CURVE",
"471 235 LINE",
"437 272 OFFCURVE",
"428 330 OFFCURVE",
"428 379 CURVE SMOOTH",
"428 411 OFFCURVE",
"430 438 OFFCURVE",
"437 476 CURVE",
"323 492 OFFCURVE",
"84 498 OFFCURVE",
"84 564 CURVE SMOOTH",
"84 582 OFFCURVE",
"119 590 OFFCURVE",
"137 590 CURVE SMOOTH",
"176 590 OFFCURVE",
"233 567 OFFCURVE",
"289 567 CURVE SMOOTH",
"388 567 OFFCURVE",
"412 576 OFFCURVE",
"480 576 CURVE SMOOTH",
"564 576 OFFCURVE",
"524 575 OFFCURVE",
"581 500 CURVE SMOOTH",
"597 479 OFFCURVE",
"610 462 OFFCURVE",
"629 451 CURVE",
"629 199 LINE",
"523 199 OFFCURVE",
"363 136 OFFCURVE",
"292 136 CURVE SMOOTH"
);
},
{
closed = 1;
nodes = (
"707 198 OFFCURVE",
"684 199 OFFCURVE",
"659 199 CURVE",
"659 441 LINE",
"665 440 OFFCURVE",
"671 440 OFFCURVE",
"677 440 CURVE SMOOTH",
"729 440 LINE",
"729 197 LINE"
);
},
{
closed = 1;
nodes = (
"1025 122 OFFCURVE",
"1020 181 OFFCURVE",
"759 196 CURVE",
"759 440 LINE",
"848 440 LINE SMOOTH",
"945 440 OFFCURVE",
"994 460 OFFCURVE",
"1084 460 CURVE SMOOTH",
"1159 460 OFFCURVE",
"1175 419 OFFCURVE",
"1175 324 CURVE SMOOTH",
"1175 227 LINE SMOOTH",
"1175 196 OFFCURVE",
"1175 122 OFFCURVE",
"1129 122 CURVE SMOOTH"
);
}
);
width = 1255;
}
);
unicode = 14428;
},
{
glyphname = u14429;
lastChange = "2017-06-15 15:44:51 +0000";
layers = (
{
layerId = UUID0;
paths = (
{
closed = 1;
nodes = (
"476 -250 LINE",
"476 144 LINE",
"531 157 OFFCURVE",
"585 169 OFFCURVE",
"625 169 CURVE SMOOTH",
"1027 169 OFFCURVE",
"997 91 OFFCURVE",
"1139 91 CURVE SMOOTH",
"1198 91 OFFCURVE",
"1205 180 OFFCURVE",
"1205 228 CURVE SMOOTH",
"1205 346 LINE SMOOTH",
"1205 486 OFFCURVE",
"1149 490 OFFCURVE",
"1091 490 CURVE SMOOTH",
"1012 490 OFFCURVE",
"923 470 OFFCURVE",
"839 470 CURVE SMOOTH",
"668 470 LINE SMOOTH",
"650 470 OFFCURVE",
"619 501 OFFCURVE",
"605 518 CURVE SMOOTH",
"568 563 OFFCURVE",
"588 608 OFFCURVE",
"476 608 CURVE SMOOTH",
"411 608 OFFCURVE",
"373 597 OFFCURVE",
"280 597 CURVE SMOOTH",
"249 597 OFFCURVE",
"176 620 OFFCURVE",
"129 620 CURVE SMOOTH",
"97 620 OFFCURVE",
"57 602 OFFCURVE",
"57 562 CURVE SMOOTH",
"57 538 OFFCURVE",
"71 516 OFFCURVE",
"100 500 CURVE",
"75 485 OFFCURVE",
"65 464 OFFCURVE",
"65 452 CURVE SMOOTH",
"65 434 OFFCURVE",
"71 421 OFFCURVE",
"81 411 CURVE",
"59 397 OFFCURVE",
"50 376 OFFCURVE",
"50 365 CURVE SMOOTH",
"50 339 OFFCURVE",
"65 318 OFFCURVE",
"90 312 CURVE",
"79 302 OFFCURVE",
"70 289 OFFCURVE",
"70 273 CURVE SMOOTH",
"70 257 OFFCURVE",
"84 246 OFFCURVE",
"106 239 CURVE",
"96 227 OFFCURVE",
"92 213 OFFCURVE",
"92 199 CURVE SMOOTH",
"92 160 OFFCURVE",
"143 148 OFFCURVE",
"205 148 CURVE SMOOTH",
"220 148 LINE",
"229 126 OFFCURVE",
"255 110 OFFCURVE",
"291 110 CURVE SMOOTH",
"306 110 OFFCURVE",
"322 112 OFFCURVE",
"340 114 CURVE",
"340 -250 LINE"
);
},
{
closed = 1;
nodes = (
"370 119 LINE",
"394 124 OFFCURVE",
"420 130 OFFCURVE",
"446 136 CURVE",
"446 -220 LINE",
"370 -220 LINE"
);
},
{
closed = 1;
nodes = (
"190 180 OFFCURVE",
"125 181 OFFCURVE",
"125 206 CURVE SMOOTH",
"125 213 OFFCURVE",
"131 220 OFFCURVE",
"144 229 CURVE",
"192 220 OFFCURVE",
"251 220 OFFCURVE",
"274 220 CURVE SMOOTH",
"293 220 OFFCURVE",
"314 222 OFFCURVE",
"330 229 CURVE",
"339 226 OFFCURVE",
"345 220 OFFCURVE",
"345 212 CURVE SMOOTH",
"345 185 OFFCURVE",
"294 180 OFFCURVE",
"232 180 CURVE SMOOTH"
);
},
{
closed = 1;
nodes = (
"252 247 OFFCURVE",
"181 248 OFFCURVE",
"137 258 CURVE SMOOTH",
"116 263 OFFCURVE",
"101 269 OFFCURVE",
"101 278 CURVE SMOOTH",
"101 287 OFFCURVE",
"120 298 OFFCURVE",
"132 302 CURVE",
"174 294 OFFCURVE",
"229 289 OFFCURVE",
"277 289 CURVE SMOOTH",
"295 289 OFFCURVE",
"310 290 OFFCURVE",
"321 293 CURVE",
"327 285 OFFCURVE",
"329 278 OFFCURVE",
"329 273 CURVE SMOOTH",
"329 250 OFFCURVE",
"307 247 OFFCURVE",
"270 247 CURVE SMOOTH"
);
},
{
closed = 1;
nodes = (
"247 320 OFFCURVE",
"178 322 OFFCURVE",
"130 332 CURVE SMOOTH",
"100 338 OFFCURVE",
"79 348 OFFCURVE",
"79 362 CURVE SMOOTH",
"79 377 OFFCURVE",
"83 390 OFFCURVE",
"107 398 CURVE",
"150 386 OFFCURVE",
"226 376 OFFCURVE",
"292 376 CURVE SMOOTH",
"302 376 LINE",
"323 360 OFFCURVE",
"324 346 OFFCURVE",
"324 340 CURVE SMOOTH",
"324 324 OFFCURVE",
"299 320 OFFCURVE",
"277 320 CURVE SMOOTH"
);
},
{
closed = 1;
nodes = (
"244 407 OFFCURVE",
"94 411 OFFCURVE",
"94 449 CURVE SMOOTH",
"94 466 OFFCURVE",
"100 481 OFFCURVE",
"133 488 CURVE",
"146 485 LINE SMOOTH",
"179 477 OFFCURVE",
"254 467 OFFCURVE",
"319 459 CURVE",
"335 444 OFFCURVE",
"339 433 OFFCURVE",
"339 427 CURVE SMOOTH",
"339 411 OFFCURVE",
"314 407 OFFCURVE",
"292 407 CURVE SMOOTH"
);
},
{
closed = 1;
nodes = (
"273 136 OFFCURVE",
"261 142 OFFCURVE",
"252 149 CURVE",
"321 152 OFFCURVE",
"376 165 OFFCURVE",
"376 216 CURVE SMOOTH",
"376 229 OFFCURVE",
"370 241 OFFCURVE",
"352 247 CURVE",
"356 254 OFFCURVE",
"358 261 OFFCURVE",
"358 270 CURVE SMOOTH",
"358 281 OFFCURVE",
"350 298 OFFCURVE",
"343 307 CURVE",
"348 314 OFFCURVE",
"350 323 OFFCURVE",
"350 335 CURVE SMOOTH",
"350 351 OFFCURVE",
"344 368 OFFCURVE",
"334 380 CURVE",
"356 386 OFFCURVE",
"365 398 OFFCURVE",
"365 422 CURVE SMOOTH",
"365 433 OFFCURVE",
"362 444 OFFCURVE",
"357 454 CURVE",
"375 452 OFFCURVE",
"390 451 OFFCURVE",
"403 450 CURVE",
"402 419 OFFCURVE",
"400 387 OFFCURVE",
"400 357 CURVE SMOOTH",
"400 311 OFFCURVE",
"414 257 OFFCURVE",
"448 217 CURVE",
"471 235 LINE",
"437 272 OFFCURVE",
"428 330 OFFCURVE",
"428 379 CURVE SMOOTH",
"428 411 OFFCURVE",
"430 438 OFFCURVE",
"437 476 CURVE",
"323 492 OFFCURVE",
"84 498 OFFCURVE",
"84 564 CURVE SMOOTH",
"84 582 OFFCURVE",
"119 590 OFFCURVE",
"137 590 CURVE SMOOTH",
"176 590 OFFCURVE",
"233 567 OFFCURVE",
"289 567 CURVE SMOOTH",
"388 567 OFFCURVE",
"412 576 OFFCURVE",
"480 576 CURVE SMOOTH",
"564 576 OFFCURVE",
"524 575 OFFCURVE",
"581 500 CURVE SMOOTH",
"597 479 OFFCURVE",
"610 462 OFFCURVE",
"629 451 CURVE",
"629 199 LINE",
"523 199 OFFCURVE",
"363 136 OFFCURVE",
"292 136 CURVE SMOOTH"
);
},
{
closed = 1;
nodes = (
"707 198 OFFCURVE",
"684 199 OFFCURVE",
"659 199 CURVE",
"659 441 LINE",
"665 440 OFFCURVE",
"671 440 OFFCURVE",
"677 440 CURVE SMOOTH",
"729 440 LINE",
"729 197 LINE"
);
},
{
closed = 1;
nodes = (
"1025 122 OFFCURVE",
"1020 181 OFFCURVE",
"759 196 CURVE",
"759 440 LINE",
"848 440 LINE SMOOTH",
"945 440 OFFCURVE",
"994 460 OFFCURVE",
"1084 460 CURVE SMOOTH",
"1159 460 OFFCURVE",
"1175 419 OFFCURVE",
"1175 324 CURVE SMOOTH",
"1175 227 LINE SMOOTH",
"1175 196 OFFCURVE",
"1175 122 OFFCURVE",
"1129 122 CURVE SMOOTH"
);
}
);
width = 1305;
}
);
unicode = 14429;
},
{
glyphname = u1442A;
lastChange = "2017-06-15 15:44:51 +0000";
layers = (
{
layerId = UUID0;
paths = (
{
closed = 1;
nodes = (
"1147 -6 OFFCURVE",
"1175 42 OFFCURVE",
"1175 90 CURVE SMOOTH",
"1175 223 OFFCURVE",
"1022 223 OFFCURVE",
"892 223 CURVE SMOOTH",
"655 223 OFFCURVE",
"530 179 OFFCURVE",
"309 136 CURVE SMOOTH",
"278 130 OFFCURVE",
"243 120 OFFCURVE",
"209 120 CURVE SMOOTH",
"193 120 OFFCURVE",
"176 144 OFFCURVE",
"167 176 CURVE SMOOTH",
"95 438 LINE SMOOTH",
"89 461 OFFCURVE",
"86 484 OFFCURVE",
"82 507 CURVE",
"160 542 OFFCURVE",
"366 554 OFFCURVE",
"367 554 CURVE SMOOTH",
"395 554 OFFCURVE",
"397 366 OFFCURVE",
"447 366 CURVE SMOOTH",
"470 366 OFFCURVE",
"491 366 OFFCURVE",
"513 368 CURVE SMOOTH",
"788 393 OFFCURVE",
"917 437 OFFCURVE",
"1180 462 CURVE",
"1182 492 LINE",
"927 472 OFFCURVE",
"769 412 OFFCURVE",
"522 398 CURVE SMOOTH",
"504 397 OFFCURVE",
"485 396 OFFCURVE",
"464 396 CURVE SMOOTH",
"421 396 OFFCURVE",
"434 584 OFFCURVE",
"373 584 CURVE SMOOTH",
"338 584 OFFCURVE",
"50 555 OFFCURVE",
"50 513 CURVE SMOOTH",
"50 502 OFFCURVE",
"52 480 OFFCURVE",
"60 453 CURVE SMOOTH",
"147 144 LINE SMOOTH",
"155 114 OFFCURVE",
"176 90 OFFCURVE",
"203 90 CURVE SMOOTH",
"230 90 OFFCURVE",
"275 99 OFFCURVE",
"315 108 CURVE SMOOTH",
"549 161 OFFCURVE",
"663 193 OFFCURVE",
"885 193 CURVE SMOOTH",
"1056 193 OFFCURVE",
"1145 184 OFFCURVE",
"1145 91 CURVE SMOOTH",
"1145 52 OFFCURVE",
"1122 10 OFFCURVE",
"1093 -25 CURVE",
"1102 -30 OFFCURVE",
"1110 -36 OFFCURVE",
"1118 -42 CURVE"
);
}
);
width = 1232;
}
);
unicode = 1442A;
},
{
glyphname = u1442B;
lastChange = "2017-06-15 15:44:51 +0000";
layers = (
{
layerId = UUID0;
paths = (
{
closed = 1;
nodes = (
"499 7 OFFCURVE",
"519 25 OFFCURVE",
"523 46 CURVE SMOOTH",
"539 140 LINE SMOOTH",
"546 179 OFFCURVE",
"573 171 OFFCURVE",
"634 224 CURVE SMOOTH",
"668 254 OFFCURVE",
"684 287 OFFCURVE",
"717 287 CURVE SMOOTH",
"803 287 OFFCURVE",
"1002 191 OFFCURVE",
"1071 112 CURVE SMOOTH",
"1094 86 OFFCURVE",
"1144 17 OFFCURVE",
"1190 17 CURVE SMOOTH",
"1207 17 OFFCURVE",
"1231 33 OFFCURVE",
"1241 65 CURVE SMOOTH",
"1292 224 LINE SMOOTH",
"1299 247 OFFCURVE",
"1303 263 OFFCURVE",
"1303 275 CURVE SMOOTH",
"1303 300 OFFCURVE",
"1286 313 OFFCURVE",
"1246 330 CURVE SMOOTH",
"945 456 LINE SMOOTH",
"880 483 OFFCURVE",
"696 594 OFFCURVE",
"566 594 CURVE SMOOTH",
"448 594 OFFCURVE",
"234 455 OFFCURVE",
"146 397 CURVE SMOOTH",
"119 379 OFFCURVE",
"50 344 OFFCURVE",
"50 308 CURVE SMOOTH",
"50 291 OFFCURVE",
"59 278 OFFCURVE",
"73 273 CURVE",
"66 264 OFFCURVE",
"62 255 OFFCURVE",
"62 247 CURVE SMOOTH",
"62 226 OFFCURVE",
"78 210 OFFCURVE",
"100 202 CURVE",
"97 194 OFFCURVE",
"95 185 OFFCURVE",
"95 176 CURVE SMOOTH",
"95 152 OFFCURVE",
"105 135 OFFCURVE",
"133 135 CURVE SMOOTH",
"199 135 OFFCURVE",
"298 253 OFFCURVE",
"408 256 CURVE",
"413 252 LINE",
"407 231 OFFCURVE",
"399 210 OFFCURVE",
"399 165 CURVE SMOOTH",
"399 127 OFFCURVE",
"413 7 OFFCURVE",
"481 7 CURVE SMOOTH"
);
},
{
closed = 1;
nodes = (
"433 37 OFFCURVE",
"430 151 OFFCURVE",
"430 162 CURVE SMOOTH",
"430 208 OFFCURVE",
"443 228 OFFCURVE",
"446 254 CURVE",
"431 279 OFFCURVE",
"419 283 OFFCURVE",
"403 283 CURVE SMOOTH",
"360 283 OFFCURVE",
"295 249 OFFCURVE",
"248 223 CURVE SMOOTH",
"208 201 OFFCURVE",
"155 165 OFFCURVE",
"138 165 CURVE SMOOTH",
"130 165 OFFCURVE",
"126 169 OFFCURVE",
"126 176 CURVE SMOOTH",
"126 213 OFFCURVE",
"172 230 OFFCURVE",
"206 251 CURVE SMOOTH",
"262 286 OFFCURVE",
"329 332 OFFCURVE",
"391 353 CURVE",
"369 374 LINE",
"307 353 OFFCURVE",
"248 313 OFFCURVE",
"193 278 CURVE SMOOTH",
"168 262 OFFCURVE",
"139 247 OFFCURVE",
"119 228 CURVE",
"102 230 OFFCURVE",
"94 237 OFFCURVE",
"94 247 CURVE SMOOTH",
"94 283 OFFCURVE",
"266 365 OFFCURVE",
"339 402 CURVE",
"313 420 LINE",
"268 394 OFFCURVE",
"157 346 OFFCURVE",
"99 299 CURVE",
"89 301 OFFCURVE",
"80 305 OFFCURVE",
"80 313 CURVE SMOOTH",
"80 331 OFFCURVE",
"130 356 OFFCURVE",
"157 372 CURVE SMOOTH",
"282 446 OFFCURVE",
"440 564 OFFCURVE",
"569 564 CURVE SMOOTH",
"647 564 OFFCURVE",
"735 527 OFFCURVE",
"811 490 CURVE",
"755 312 LINE",
"740 315 OFFCURVE",
"726 316 OFFCURVE",
"714 316 CURVE SMOOTH",
"642 316 OFFCURVE",
"654 272 OFFCURVE",
"605 235 CURVE SMOOTH",
"573 211 OFFCURVE",
"518 195 OFFCURVE",
"509 140 CURVE SMOOTH",
"495 50 LINE",
"494 41 OFFCURVE",
"481 37 OFFCURVE",
"479 37 CURVE SMOOTH"
);
},
{
closed = 1;
nodes = (
"817 296 OFFCURVE",
"799 301 OFFCURVE",
"782 306 CURVE",
"837 477 LINE",
"854 468 OFFCURVE",
"871 460 OFFCURVE",
"886 452 CURVE",
"835 289 LINE"
);
},
{
closed = 1;
nodes = (
"1159 47 OFFCURVE",
"1122 100 OFFCURVE",
"1093 131 CURVE SMOOTH",
"1043 184 OFFCURVE",
"949 242 OFFCURVE",
"861 279 CURVE",
"912 439 LINE",
"922 434 OFFCURVE",
"932 430 OFFCURVE",
"941 426 CURVE SMOOTH",
"1246 298 LINE SMOOTH",
"1266 290 OFFCURVE",
"1273 280 OFFCURVE",
"1273 267 CURVE SMOOTH",
"1273 256 OFFCURVE",
"1268 234 OFFCURVE",
"1261 214 CURVE SMOOTH",
"1216 83 LINE SMOOTH",
"1207 57 OFFCURVE",
"1203 47 OFFCURVE",
"1187 47 CURVE SMOOTH"
);
}
);
width = 1353;
}
);
unicode = 1442B;
},
{
glyphname = u1442C;
lastChange = "2017-06-15 15:44:51 +0000";
layers = (
{
layerId = UUID0;
paths = (
{
closed = 1;
nodes = (
"666 -3 LINE",
"649 175 OFFCURVE",
"542 443 OFFCURVE",
"351 443 CURVE SMOOTH",
"304 443 OFFCURVE",
"261 434 OFFCURVE",
"229 408 CURVE",
"210 403 OFFCURVE",
"193 392 OFFCURVE",
"183 382 CURVE",
"203 360 LINE",
"212 372 OFFCURVE",
"230 380 OFFCURVE",
"248 380 CURVE SMOOTH",
"266 380 OFFCURVE",
"319 375 OFFCURVE",
"319 316 CURVE SMOOTH",
"319 245 OFFCURVE",
"245 225 OFFCURVE",
"213 225 CURVE SMOOTH",
"114 225 OFFCURVE",
"80 286 OFFCURVE",
"80 371 CURVE SMOOTH",
"80 460 OFFCURVE",
"176 566 OFFCURVE",
"350 566 CURVE SMOOTH",
"569 566 OFFCURVE",
"826 438 OFFCURVE",
"975 316 CURVE",
"986 344 LINE",
"863 446 OFFCURVE",
"581 596 OFFCURVE",
"349 596 CURVE SMOOTH",
"207 596 OFFCURVE",
"50 518 OFFCURVE",
"50 370 CURVE SMOOTH",
"50 253 OFFCURVE",
"116 195 OFFCURVE",
"210 195 CURVE SMOOTH",
"271 195 OFFCURVE",
"340 228 OFFCURVE",
"348 301 CURVE",
"365 266 OFFCURVE",
"372 225 OFFCURVE",
"372 182 CURVE SMOOTH",
"372 126 OFFCURVE",
"360 66 OFFCURVE",
"344 11 CURVE",
"375 -2 LINE",
"392 56 OFFCURVE",
"403 118 OFFCURVE",
"403 177 CURVE SMOOTH",
"403 252 OFFCURVE",
"386 330 OFFCURVE",
"327 378 CURVE",
"317 390 OFFCURVE",
"302 399 OFFCURVE",
"285 405 CURVE",
"304 411 OFFCURVE",
"326 413 OFFCURVE",
"345 413 CURVE SMOOTH",
"532 413 OFFCURVE",
"615 140 OFFCURVE",
"635 -8 CURVE"
);
}
);
width = 1036;
}
);
unicode = 1442C;
},
{
glyphname = u1442D;
lastChange = "2017-06-15 15:44:51 +0000";
layers = (
{
layerId = UUID0;
paths = (
{
closed = 1;
nodes = (
"789 -83 OFFCURVE",
"806 -73 OFFCURVE",
"822 -58 CURVE",
"927 -57 OFFCURVE",
"951 47 OFFCURVE",
"1000 128 CURVE SMOOTH",
"1042 197 OFFCURVE",
"1101 309 OFFCURVE",
"1101 391 CURVE SMOOTH",
"1101 443 OFFCURVE",
"1085 493 OFFCURVE",
"1085 544 CURVE SMOOTH",
"1085 660 OFFCURVE",
"1185 771 OFFCURVE",
"1185 869 CURVE SMOOTH",
"1185 908 OFFCURVE",
"1040 960 OFFCURVE",
"908 960 CURVE SMOOTH",
"864 960 OFFCURVE",
"826 946 OFFCURVE",
"826 859 CURVE SMOOTH",
"826 795 OFFCURVE",
"847 712 OFFCURVE",
"847 668 CURVE SMOOTH",
"847 604 OFFCURVE",
"823 549 OFFCURVE",
"792 499 CURVE SMOOTH",
"765 456 OFFCURVE",
"734 416 OFFCURVE",
"705 376 CURVE SMOOTH",
"692 358 OFFCURVE",
"660 281 OFFCURVE",
"660 246 CURVE SMOOTH",
"660 210 OFFCURVE",
"694 196 OFFCURVE",
"705 196 CURVE SMOOTH",
"754 196 OFFCURVE",
"801 304 OFFCURVE",
"819 305 CURVE",
"819 282 OFFCURVE",
"795 222 OFFCURVE",
"783 193 CURVE SMOOTH",
"752 119 OFFCURVE",
"728 65 OFFCURVE",
"687 -11 CURVE SMOOTH",
"680 -24 OFFCURVE",
"675 -38 OFFCURVE",
"675 -51 CURVE SMOOTH",
"675 -71 OFFCURVE",
"689 -81 OFFCURVE",
"712 -81 CURVE SMOOTH",
"721 -81 OFFCURVE",
"730 -78 OFFCURVE",
"739 -74 CURVE",
"750 -80 OFFCURVE",
"767 -83 OFFCURVE",
"771 -83 CURVE SMOOTH"
);
},
{
closed = 1;
nodes = (
"416 -53 OFFCURVE",
"355 79 OFFCURVE",
"325 151 CURVE",
"299 143 LINE",
"318 95 OFFCURVE",
"350 22 OFFCURVE",
"387 -28 CURVE",
"323 -13 OFFCURVE",
"294 75 OFFCURVE",
"261 139 CURVE SMOOTH",
"218 223 OFFCURVE",
"164 295 OFFCURVE",
"164 391 CURVE SMOOTH",
"164 437 OFFCURVE",
"175 482 OFFCURVE",
"178 528 CURVE",
"373 575 LINE",
"398 494 OFFCURVE",
"453 428 OFFCURVE",
"502 365 CURVE SMOOTH",
"513 351 OFFCURVE",
"544 275 OFFCURVE",
"544 247 CURVE SMOOTH",
"544 233 OFFCURVE",
"536 227 OFFCURVE",
"529 227 CURVE SMOOTH",
"491 227 OFFCURVE",
"459 329 OFFCURVE",
"417 329 CURVE SMOOTH",
"398 329 OFFCURVE",
"387 317 OFFCURVE",
"387 297 CURVE SMOOTH",
"387 265 OFFCURVE",
"409 218 OFFCURVE",
"424 182 CURVE SMOOTH",
"457 102 OFFCURVE",
"485 55 OFFCURVE",
"520 -14 CURVE SMOOTH",
"526 -26 OFFCURVE",
"530 -35 OFFCURVE",
"530 -41 CURVE SMOOTH",
"530 -45 OFFCURVE",
"527 -51 OFFCURVE",
"516 -51 CURVE SMOOTH",
"472 -51 OFFCURVE",
"404 104 OFFCURVE",
"377 170 CURVE",
"350 162 LINE",
"371 108 OFFCURVE",
"415 0 OFFCURVE",
"467 -52 CURVE",
"465 -53 OFFCURVE",
"461 -53 OFFCURVE",
"457 -53 CURVE SMOOTH"
);
},
{
closed = 1;
nodes = (
"468 -83 OFFCURVE",
"485 -80 OFFCURVE",
"496 -74 CURVE",
"505 -78 OFFCURVE",
"514 -81 OFFCURVE",
"523 -81 CURVE SMOOTH",
"546 -81 OFFCURVE",
"560 -71 OFFCURVE",
"560 -51 CURVE SMOOTH",
"560 -38 OFFCURVE",
"555 -24 OFFCURVE",
"548 -11 CURVE SMOOTH",
"507 65 OFFCURVE",
"483 119 OFFCURVE",
"452 193 CURVE SMOOTH",
"440 222 OFFCURVE",
"416 282 OFFCURVE",
"416 305 CURVE",
"434 304 OFFCURVE",
"481 196 OFFCURVE",
"530 196 CURVE SMOOTH",
"541 196 OFFCURVE",
"575 210 OFFCURVE",
"575 246 CURVE SMOOTH",
"575 281 OFFCURVE",
"543 358 OFFCURVE",
"530 376 CURVE SMOOTH",
"508 407 OFFCURVE",
"484 438 OFFCURVE",
"462 470 CURVE SMOOTH",
"422 529 OFFCURVE",
"388 591 OFFCURVE",
"388 668 CURVE SMOOTH",
"388 712 OFFCURVE",
"409 795 OFFCURVE",
"409 859 CURVE SMOOTH",
"409 946 OFFCURVE",
"371 960 OFFCURVE",
"327 960 CURVE SMOOTH",
"195 960 OFFCURVE",
"50 908 OFFCURVE",
"50 869 CURVE SMOOTH",
"50 771 OFFCURVE",
"150 660 OFFCURVE",
"150 544 CURVE SMOOTH",
"150 493 OFFCURVE",
"134 443 OFFCURVE",
"134 391 CURVE SMOOTH",
"134 309 OFFCURVE",
"194 197 OFFCURVE",
"235 128 CURVE SMOOTH",
"283 47 OFFCURVE",
"308 -57 OFFCURVE",
"413 -58 CURVE",
"429 -73 OFFCURVE",
"446 -83 OFFCURVE",
"464 -83 CURVE SMOOTH"
);
},
{
closed = 1;
nodes = (
"178 580 OFFCURVE",
"175 600 OFFCURVE",
"170 620 CURVE",
"358 665 LINE",
"358 644 OFFCURVE",
"361 624 OFFCURVE",
"365 604 CURVE",
"179 559 LINE"
);
},
{
closed = 1;
nodes = (
"138 714 OFFCURVE",
"98 778 OFFCURVE",
"78 862 CURVE",
"131 918 OFFCURVE",
"306 930 OFFCURVE",
"332 930 CURVE SMOOTH",
"366 930 OFFCURVE",
"379 894 OFFCURVE",
"379 857 CURVE SMOOTH",
"379 810 OFFCURVE",
"364 747 OFFCURVE",
"359 696 CURVE",
"161 648 LINE"
);
},
{
closed = 1;
nodes = (
"774 -53 OFFCURVE",
"770 -53 OFFCURVE",
"768 -52 CURVE",
"820 0 OFFCURVE",
"864 108 OFFCURVE",
"885 162 CURVE",
"858 170 LINE",
"831 104 OFFCURVE",
"763 -51 OFFCURVE",
"719 -51 CURVE SMOOTH",
"708 -51 OFFCURVE",
"705 -45 OFFCURVE",
"705 -41 CURVE SMOOTH",
"705 -35 OFFCURVE",
"709 -26 OFFCURVE",
"715 -14 CURVE SMOOTH",
"750 55 OFFCURVE",
"779 101 OFFCURVE",
"811 182 CURVE SMOOTH",
"825 218 OFFCURVE",
"848 265 OFFCURVE",
"848 297 CURVE SMOOTH",
"848 317 OFFCURVE",
"837 329 OFFCURVE",
"818 329 CURVE SMOOTH",
"776 329 OFFCURVE",
"744 227 OFFCURVE",
"706 227 CURVE SMOOTH",
"699 227 OFFCURVE",
"691 233 OFFCURVE",
"691 247 CURVE SMOOTH",
"691 275 OFFCURVE",
"722 351 OFFCURVE",
"733 365 CURVE SMOOTH",
"782 428 OFFCURVE",
"837 494 OFFCURVE",
"862 575 CURVE",
"1057 528 LINE",
"1060 482 OFFCURVE",
"1071 437 OFFCURVE",
"1071 391 CURVE SMOOTH",
"1071 295 OFFCURVE",
"1017 223 OFFCURVE",
"974 139 CURVE SMOOTH",
"941 75 OFFCURVE",
"912 -13 OFFCURVE",
"848 -28 CURVE",
"885 22 OFFCURVE",
"917 95 OFFCURVE",
"936 143 CURVE",
"910 151 LINE",
"880 79 OFFCURVE",
"819 -53 OFFCURVE",
"778 -53 CURVE SMOOTH"
);
},
{
closed = 1;
nodes = (
"870 604 LINE",
"874 624 OFFCURVE",
"877 644 OFFCURVE",
"877 665 CURVE",
"1065 620 LINE",
"1060 600 OFFCURVE",
"1057 580 OFFCURVE",
"1056 559 CURVE"
);
},
{
closed = 1;
nodes = (
"876 696 LINE",
"871 747 OFFCURVE",
"856 810 OFFCURVE",
"856 857 CURVE SMOOTH",
"856 894 OFFCURVE",
"869 930 OFFCURVE",
"903 930 CURVE SMOOTH",
"929 930 OFFCURVE",
"1104 918 OFFCURVE",
"1157 862 CURVE",
"1137 778 OFFCURVE",
"1097 714 OFFCURVE",
"1074 648 CURVE"
);
}
);
width = 1235;
}
);
unicode = 1442D;
},
{
glyphname = u1442E;
lastChange = "2017-06-15 15:44:51 +0000";
layers = (
{
layerId = UUID0;
paths = (
{
closed = 1;
nodes = (
"468 -83 OFFCURVE",
"485 -80 OFFCURVE",
"496 -74 CURVE",
"505 -78 OFFCURVE",
"514 -81 OFFCURVE",
"523 -81 CURVE SMOOTH",
"546 -81 OFFCURVE",
"560 -71 OFFCURVE",
"560 -51 CURVE SMOOTH",
"560 -38 OFFCURVE",
"555 -24 OFFCURVE",
"548 -11 CURVE SMOOTH",
"507 65 OFFCURVE",
"483 119 OFFCURVE",
"452 193 CURVE SMOOTH",
"440 222 OFFCURVE",
"416 282 OFFCURVE",
"416 305 CURVE",
"434 304 OFFCURVE",
"481 196 OFFCURVE",
"530 196 CURVE SMOOTH",
"541 196 OFFCURVE",
"575 210 OFFCURVE",
"575 246 CURVE SMOOTH",
"575 281 OFFCURVE",
"543 358 OFFCURVE",
"530 376 CURVE SMOOTH",
"467 463 OFFCURVE",
"388 549 OFFCURVE",
"388 668 CURVE SMOOTH",
"388 712 OFFCURVE",
"409 795 OFFCURVE",
"409 859 CURVE SMOOTH",
"409 946 OFFCURVE",
"371 960 OFFCURVE",
"327 960 CURVE SMOOTH",
"195 960 OFFCURVE",
"50 908 OFFCURVE",
"50 869 CURVE SMOOTH",
"50 771 OFFCURVE",
"150 660 OFFCURVE",
"150 544 CURVE SMOOTH",
"150 493 OFFCURVE",
"134 443 OFFCURVE",
"134 391 CURVE SMOOTH",
"134 309 OFFCURVE",
"194 197 OFFCURVE",
"235 128 CURVE SMOOTH",
"283 47 OFFCURVE",
"308 -57 OFFCURVE",
"413 -58 CURVE",
"429 -73 OFFCURVE",
"446 -83 OFFCURVE",
"464 -83 CURVE SMOOTH"
);
},
{
closed = 1;
nodes = (
"416 -53 OFFCURVE",
"355 79 OFFCURVE",
"325 151 CURVE",
"299 143 LINE",
"318 95 OFFCURVE",
"350 22 OFFCURVE",
"387 -28 CURVE",
"323 -13 OFFCURVE",
"294 75 OFFCURVE",
"261 139 CURVE SMOOTH",
"218 223 OFFCURVE",
"164 295 OFFCURVE",
"164 391 CURVE SMOOTH",
"164 437 OFFCURVE",
"175 482 OFFCURVE",
"178 528 CURVE",
"373 575 LINE",
"398 494 OFFCURVE",
"453 428 OFFCURVE",
"502 365 CURVE SMOOTH",
"513 351 OFFCURVE",
"544 275 OFFCURVE",
"544 247 CURVE SMOOTH",
"544 233 OFFCURVE",
"536 227 OFFCURVE",
"529 227 CURVE SMOOTH",
"491 227 OFFCURVE",
"459 329 OFFCURVE",
"417 329 CURVE SMOOTH",
"398 329 OFFCURVE",
"387 317 OFFCURVE",
"387 297 CURVE SMOOTH",
"387 265 OFFCURVE",
"409 218 OFFCURVE",
"424 182 CURVE SMOOTH",
"457 102 OFFCURVE",
"485 55 OFFCURVE",
"520 -14 CURVE SMOOTH",
"526 -26 OFFCURVE",
"530 -35 OFFCURVE",
"530 -41 CURVE SMOOTH",
"530 -45 OFFCURVE",
"527 -51 OFFCURVE",
"516 -51 CURVE SMOOTH",
"472 -51 OFFCURVE",
"404 104 OFFCURVE",
"377 170 CURVE",
"350 162 LINE",
"371 108 OFFCURVE",
"415 0 OFFCURVE",
"467 -52 CURVE",
"465 -53 OFFCURVE",
"461 -53 OFFCURVE",
"457 -53 CURVE SMOOTH"
);
},
{
closed = 1;
nodes = (
"178 580 OFFCURVE",
"175 600 OFFCURVE",
"170 620 CURVE",
"358 665 LINE",
"358 644 OFFCURVE",
"361 624 OFFCURVE",
"365 604 CURVE",
"179 559 LINE"
);
},
{
closed = 1;
nodes = (
"138 714 OFFCURVE",
"98 778 OFFCURVE",
"78 862 CURVE",
"131 918 OFFCURVE",
"306 930 OFFCURVE",
"332 930 CURVE SMOOTH",
"366 930 OFFCURVE",
"379 894 OFFCURVE",
"379 857 CURVE SMOOTH",
"379 810 OFFCURVE",
"364 747 OFFCURVE",
"359 696 CURVE",
"161 648 LINE"
);
}
);
width = 625;
}
);
unicode = 1442E;
},
{
glyphname = u1442F;
lastChange = "2017-06-15 15:44:51 +0000";
layers = (
{
layerId = UUID0;
paths = (
{
closed = 1;
nodes = (
"1089 -20 OFFCURVE",
"1113 24 OFFCURVE",
"1113 50 CURVE SMOOTH",
"1113 162 OFFCURVE",
"947 195 OFFCURVE",
"867 209 CURVE SMOOTH",
"821 217 OFFCURVE",
"722 209 OFFCURVE",
"722 278 CURVE SMOOTH",
"722 319 OFFCURVE",
"784 329 OFFCURVE",
"842 329 CURVE SMOOTH",
"902 329 OFFCURVE",
"971 319 OFFCURVE",
"1006 319 CURVE SMOOTH",
"1054 319 OFFCURVE",
"1129 325 OFFCURVE",
"1129 394 CURVE SMOOTH",
"1129 455 OFFCURVE",
"1078 499 OFFCURVE",
"1015 499 CURVE SMOOTH",
"912 499 OFFCURVE",
"786 453 OFFCURVE",
"682 453 CURVE SMOOTH",
"548 453 OFFCURVE",
"392 500 OFFCURVE",
"268 500 CURVE SMOOTH",
"141 500 OFFCURVE",
"50 469 OFFCURVE",
"50 414 CURVE SMOOTH",
"50 362 OFFCURVE",
"97 350 OFFCURVE",
"146 350 CURVE SMOOTH",
"203 350 OFFCURVE",
"281 351 OFFCURVE",
"326 351 CURVE SMOOTH",
"373 351 OFFCURVE",
"414 345 OFFCURVE",
"414 309 CURVE SMOOTH",
"414 267 OFFCURVE",
"231 259 OFFCURVE",
"190 259 CURVE SMOOTH",
"142 259 OFFCURVE",
"67 243 OFFCURVE",
"67 174 CURVE SMOOTH",
"67 113 OFFCURVE",
"118 89 OFFCURVE",
"188 89 CURVE SMOOTH",
"291 89 OFFCURVE",
"409 116 OFFCURVE",
"512 116 CURVE SMOOTH",
"681 116 OFFCURVE",
"879 -20 OFFCURVE",
"1027 -20 CURVE SMOOTH"
);
},
{
closed = 1;
nodes = (
"874 9 OFFCURVE",
"698 146 OFFCURVE",
"515 146 CURVE SMOOTH",
"406 146 OFFCURVE",
"303 119 OFFCURVE",
"195 119 CURVE SMOOTH",
"148 119 OFFCURVE",
"95 127 OFFCURVE",
"95 174 CURVE SMOOTH",
"95 219 OFFCURVE",
"162 229 OFFCURVE",
"188 229 CURVE SMOOTH",
"317 231 OFFCURVE",
"445 238 OFFCURVE",
"445 316 CURVE SMOOTH",
"445 364 OFFCURVE",
"392 381 OFFCURVE",
"331 381 CURVE SMOOTH",
"289 381 OFFCURVE",
"207 380 OFFCURVE",
"152 380 CURVE SMOOTH",
"112 380 OFFCURVE",
"81 385 OFFCURVE",
"81 410 CURVE SMOOTH",
"81 465 OFFCURVE",
"232 470 OFFCURVE",
"269 470 CURVE SMOOTH",
"399 470 OFFCURVE",
"551 423 OFFCURVE",
"678 423 CURVE SMOOTH",
"792 423 OFFCURVE",
"894 469 OFFCURVE",
"1001 469 CURVE SMOOTH",
"1048 469 OFFCURVE",
"1101 441 OFFCURVE",
"1101 394 CURVE SMOOTH",
"1101 349 OFFCURVE",
"1034 349 OFFCURVE",
"1008 349 CURVE SMOOTH",
"984 349 OFFCURVE",
"902 359 OFFCURVE",
"846 359 CURVE SMOOTH",
"759 359 OFFCURVE",
"691 340 OFFCURVE",
"691 272 CURVE SMOOTH",
"691 201 OFFCURVE",
"799 185 OFFCURVE",
"860 180 CURVE SMOOTH",
"923 175 OFFCURVE",
"1082 128 OFFCURVE",
"1082 54 CURVE SMOOTH",
"1082 32 OFFCURVE",
"1064 9 OFFCURVE",
"1024 9 CURVE SMOOTH"
);
}
);
width = 1179;
}
);
unicode = 1442F;
},
{
glyphname = u14430;
lastChange = "2017-06-15 15:44:51 +0000";
layers = (
{
layerId = UUID0;
paths = (
{
closed = 1;
nodes = (
"1046 75 OFFCURVE",
"1072 102 OFFCURVE",
"1084 132 CURVE SMOOTH",
"1117 216 LINE SMOOTH",
"1130 249 OFFCURVE",
"1136 291 OFFCURVE",
"1136 311 CURVE SMOOTH",
"1136 389 OFFCURVE",
"1074 398 OFFCURVE",
"1044 398 CURVE SMOOTH",
"920 398 LINE SMOOTH",
"893 398 OFFCURVE",
"866 399 OFFCURVE",
"842 403 CURVE SMOOTH",
"708 425 OFFCURVE",
"657 527 OFFCURVE",
"525 527 CURVE SMOOTH",
"461 527 OFFCURVE",
"391 519 OFFCURVE",
"357 516 CURVE SMOOTH",
"275 509 OFFCURVE",
"181 508 OFFCURVE",
"134 457 CURVE",
"86 440 OFFCURVE",
"50 414 OFFCURVE",
"50 378 CURVE SMOOTH",
"50 359 OFFCURVE",
"65 346 OFFCURVE",
"100 346 CURVE SMOOTH",
"183 346 OFFCURVE",
"275 358 OFFCURVE",
"346 358 CURVE SMOOTH",
"398 358 OFFCURVE",
"439 344 OFFCURVE",
"452 321 CURVE",
"440 300 OFFCURVE",
"301 305 OFFCURVE",
"301 241 CURVE SMOOTH",
"301 211 OFFCURVE",
"328 188 OFFCURVE",
"414 188 CURVE SMOOTH",
"522 188 OFFCURVE",
"593 232 OFFCURVE",
"677 232 CURVE SMOOTH",
"812 232 OFFCURVE",
"914 75 OFFCURVE",
"1018 75 CURVE SMOOTH"
);
},
{
closed = 1;
nodes = (
"433 -250 LINE SMOOTH",
"474 -250 OFFCURVE",
"476 -241 OFFCURVE",
"476 -199 CURVE SMOOTH",
"476 69 LINE SMOOTH",
"476 111 OFFCURVE",
"474 120 OFFCURVE",
"433 120 CURVE SMOOTH",
"403 120 LINE SMOOTH",
"362 120 OFFCURVE",
"360 111 OFFCURVE",
"360 69 CURVE SMOOTH",
"360 -199 LINE SMOOTH",
"360 -241 OFFCURVE",
"362 -250 OFFCURVE",
"403 -250 CURVE SMOOTH"
);
},
{
closed = 1;
nodes = (
"391 -220 OFFCURVE",
"390 -215 OFFCURVE",
"390 -188 CURVE SMOOTH",
"390 58 LINE SMOOTH",
"390 85 OFFCURVE",
"391 90 OFFCURVE",
"410 90 CURVE SMOOTH",
"426 90 LINE SMOOTH",
"445 90 OFFCURVE",
"446 85 OFFCURVE",
"446 58 CURVE SMOOTH",
"446 -188 LINE SMOOTH",
"446 -215 OFFCURVE",
"445 -220 OFFCURVE",
"426 -220 CURVE SMOOTH",
"410 -220 LINE SMOOTH"
);
},
{
closed = 1;
nodes = (
"789 -250 LINE SMOOTH",
"802 -250 OFFCURVE",
"802 -245 OFFCURVE",
"802 -230 CURVE SMOOTH",
"802 -156 LINE SMOOTH",
"802 -138 OFFCURVE",
"800 -135 OFFCURVE",
"789 -135 CURVE SMOOTH",
"784 -135 LINE SMOOTH",
"692 -135 OFFCURVE",
"655 -107 OFFCURVE",
"655 -64 CURVE SMOOTH",
"655 -21 OFFCURVE",
"692 -5 OFFCURVE",
"784 -5 CURVE SMOOTH",
"789 -5 LINE SMOOTH",
"801 -5 OFFCURVE",
"802 4 OFFCURVE",
"802 14 CURVE SMOOTH",
"802 101 LINE SMOOTH",
"802 110 OFFCURVE",
"800 120 OFFCURVE",
"789 120 CURVE SMOOTH",
"785 120 LINE SMOOTH",
"585 120 OFFCURVE",
"527 45 OFFCURVE",
"527 -64 CURVE SMOOTH",
"527 -173 OFFCURVE",
"585 -250 OFFCURVE",
"785 -250 CURVE SMOOTH"
);
},
{
closed = 1;
nodes = (
"617 -216 OFFCURVE",
"557 -154 OFFCURVE",
"557 -64 CURVE SMOOTH",
"557 26 OFFCURVE",
"617 86 OFFCURVE",
"772 90 CURVE",
"772 35 LINE",
"659 32 OFFCURVE",
"625 -8 OFFCURVE",
"625 -64 CURVE SMOOTH",
"625 -125 OFFCURVE",
"659 -162 OFFCURVE",
"772 -165 CURVE",
"772 -220 LINE"
);
},
{
closed = 1;
nodes = (
"383 218 OFFCURVE",
"331 220 OFFCURVE",
"331 239 CURVE SMOOTH",
"331 283 OFFCURVE",
"475 264 OFFCURVE",
"475 319 CURVE SMOOTH",
"475 367 OFFCURVE",
"414 388 OFFCURVE",
"344 388 CURVE SMOOTH",
"252 388 OFFCURVE",
"180 373 OFFCURVE",
"101 373 CURVE SMOOTH",
"94 373 OFFCURVE",
"83 373 OFFCURVE",
"83 387 CURVE SMOOTH",
"83 396 OFFCURVE",
"110 423 OFFCURVE",
"152 433 CURVE",
"176 472 OFFCURVE",
"281 483 OFFCURVE",
"361 486 CURVE SMOOTH",
"410 488 OFFCURVE",
"462 497 OFFCURVE",
"528 497 CURVE SMOOTH",
"612 497 OFFCURVE",
"670 438 OFFCURVE",
"753 400 CURVE",
"714 259 LINE",
"700 262 OFFCURVE",
"685 263 OFFCURVE",
"669 263 CURVE SMOOTH",
"583 263 OFFCURVE",
"511 218 OFFCURVE",
"421 218 CURVE SMOOTH"
);
},
{
closed = 1;
nodes = (
"263 590 LINE SMOOTH",
"304 590 OFFCURVE",
"306 599 OFFCURVE",
"306 641 CURVE SMOOTH",
"306 909 LINE SMOOTH",
"306 951 OFFCURVE",
"304 960 OFFCURVE",
"263 960 CURVE SMOOTH",
"233 960 LINE SMOOTH",
"192 960 OFFCURVE",
"190 951 OFFCURVE",
"190 909 CURVE SMOOTH",
"190 641 LINE SMOOTH",
"190 599 OFFCURVE",
"192 590 OFFCURVE",
"233 590 CURVE SMOOTH"
);
},
{
closed = 1;
nodes = (
"221 620 OFFCURVE",
"220 625 OFFCURVE",
"220 652 CURVE SMOOTH",
"220 898 LINE SMOOTH",
"220 925 OFFCURVE",
"221 930 OFFCURVE",
"240 930 CURVE SMOOTH",
"256 930 LINE SMOOTH",
"275 930 OFFCURVE",
"276 925 OFFCURVE",
"276 898 CURVE SMOOTH",
"276 652 LINE SMOOTH",
"276 625 OFFCURVE",
"275 620 OFFCURVE",
"256 620 CURVE SMOOTH",
"240 620 LINE SMOOTH"
);
},
{
closed = 1;
nodes = (
"784 236 OFFCURVE",
"764 245 OFFCURVE",
"743 252 CURVE",
"780 389 LINE",
"799 382 OFFCURVE",
"818 376 OFFCURVE",
"839 373 CURVE",
"803 226 LINE"
);
},
{
closed = 1;
nodes = (
"950 109 OFFCURVE",
"897 165 OFFCURVE",
"830 209 CURVE",
"869 369 LINE",
"878 368 OFFCURVE",
"887 368 OFFCURVE",
"897 368 CURVE SMOOTH",
"1040 368 LINE SMOOTH",
"1099 368 OFFCURVE",
"1106 334 OFFCURVE",
"1106 311 CURVE SMOOTH",
"1106 282 OFFCURVE",
"1096 245 OFFCURVE",
"1086 221 CURVE SMOOTH",
"1052 136 LINE SMOOTH",
"1045 118 OFFCURVE",
"1030 109 OFFCURVE",
"1013 109 CURVE SMOOTH"
);
},
{
closed = 1;
nodes = (
"619 590 LINE SMOOTH",
"632 590 OFFCURVE",
"632 595 OFFCURVE",
"632 610 CURVE SMOOTH",
"632 684 LINE SMOOTH",
"632 702 OFFCURVE",
"630 705 OFFCURVE",
"619 705 CURVE SMOOTH",
"614 705 LINE SMOOTH",
"522 705 OFFCURVE",
"485 733 OFFCURVE",
"485 776 CURVE SMOOTH",
"485 819 OFFCURVE",
"522 835 OFFCURVE",
"614 835 CURVE SMOOTH",
"619 835 LINE SMOOTH",
"631 835 OFFCURVE",
"632 844 OFFCURVE",
"632 854 CURVE SMOOTH",
"632 941 LINE SMOOTH",
"632 950 OFFCURVE",
"630 960 OFFCURVE",
"619 960 CURVE SMOOTH",
"615 960 LINE SMOOTH",
"415 960 OFFCURVE",
"357 885 OFFCURVE",
"357 776 CURVE SMOOTH",
"357 667 OFFCURVE",
"415 590 OFFCURVE",
"615 590 CURVE SMOOTH"
);
},
{
closed = 1;
nodes = (
"447 624 OFFCURVE",
"387 686 OFFCURVE",
"387 776 CURVE SMOOTH",
"387 866 OFFCURVE",
"447 926 OFFCURVE",
"602 930 CURVE",
"602 875 LINE",
"489 872 OFFCURVE",
"455 832 OFFCURVE",
"455 776 CURVE SMOOTH",
"455 715 OFFCURVE",
"489 678 OFFCURVE",
"602 675 CURVE",
"602 620 LINE"
);
}
);
width = 1186;
}
);
unicode = 14430;
},
